<svg width="169" height="49" viewBox="0 0 169 49" fill="none" xmlns="http://www.w3.org/2000/svg">
  <g filter="url(#filter0_d)">
    <path
      d="M64.4999 29.4995V29.5684C64.4983 29.7412 64.4934 29.9133 64.4851 30.0847C64.3359 33.0166 63.071 35.7805 60.9496 37.8099C58.8282 39.8393 56.011 40.9805 53.0752 40.9997C50.1394 41.0189 47.3074 39.9146 45.1597 37.9132C43.0119 35.9117 41.711 33.1646 41.5235 30.2349C41.5078 29.9916 41.5 29.7465 41.5 29.4995C41.4959 27.1178 42.2351 24.7941 43.6146 22.8525C43.7249 22.696 43.8396 22.5425 43.9588 22.3917C44.041 22.2869 44.1254 22.1844 44.2107 22.0827C46.152 19.783 48.9174 18.3358 51.9135 18.0515C54.9097 17.7672 57.8979 18.6685 60.2371 20.562C60.3756 20.6739 60.5117 20.7896 60.6447 20.9078C60.7511 21.0024 60.8557 21.0992 60.9584 21.198C62.9819 23.1334 64.2274 25.7423 64.46 28.5326C64.4866 28.8518 64.4999 29.1741 64.4999 29.4995Z"
      fill="url(#paint0_linear)"/>
    <path
      d="M43.9588 22.3917C43.9645 22.3941 43.9697 22.3973 43.9745 22.4011C44.0363 22.452 43.9588 22.5498 43.9682 22.6303C43.9792 22.7336 44.1168 22.7563 44.2209 22.7665C44.3249 22.7774 44.4564 22.8611 44.4071 22.9534C44.1458 23.0434 43.8814 22.955 43.6146 22.8525C42.2351 24.7941 41.4959 27.1178 41.5 29.4995C41.5 29.7467 41.5078 29.9918 41.5235 30.2349C41.5454 30.2508 41.5693 30.2637 41.5947 30.2732C41.6729 30.3029 41.7637 30.2974 41.8356 30.3397C41.8927 30.3733 41.9311 30.4328 41.9882 30.4641C42.1517 30.5532 42.3785 30.3819 42.5311 30.4883C42.5705 30.5242 42.6079 30.5624 42.643 30.6025C42.7838 30.7246 43.0153 30.6424 43.1781 30.734C43.2829 30.7926 43.3369 30.91 43.3932 31.0164C43.5332 31.2823 43.7601 31.5436 44.0597 31.5647C44.1542 31.5604 44.2489 31.5635 44.3429 31.5741C44.4352 31.5952 44.526 31.6758 44.5111 31.7689C44.4853 31.9293 44.5643 32.1045 44.5432 32.2649C44.5049 32.5582 44.0895 32.6865 44.0543 32.9799C44.0541 33.0444 44.0505 33.1089 44.0433 33.1731C44.0245 33.2498 43.9666 33.3123 43.9463 33.389C43.9072 33.5337 44.0112 33.6785 44.1247 33.7755C44.2389 33.8732 44.375 33.9577 44.4376 34.0938C44.5033 34.2386 44.4712 34.4068 44.4923 34.564C44.5393 34.9074 44.8358 35.1617 45.1409 35.3259C45.2387 35.3668 45.3255 35.43 45.3944 35.5105C45.4726 35.624 45.4648 35.7734 45.4914 35.9087C45.5555 36.2396 45.834 36.5126 45.8418 36.8498C45.8473 37.09 45.7143 37.3074 45.6345 37.5335C45.5524 37.7705 45.528 38.0237 45.5633 38.272C46.0094 38.6503 46.4835 38.9942 46.9817 39.3007C47.0088 39.2606 47.0286 39.2162 47.0403 39.1693C47.0498 39.1174 47.0433 39.0639 47.0216 39.0158C46.9999 38.9678 46.9642 38.9274 46.9191 38.9002C47.0031 38.8684 47.0796 38.8194 47.1436 38.7562C47.175 38.7239 47.1958 38.6827 47.203 38.6382C47.2103 38.5937 47.2038 38.5481 47.1843 38.5075C47.322 38.5247 47.4855 38.5333 47.5762 38.4277C47.649 38.3432 47.6443 38.2164 47.6153 38.1093C47.5864 38.0013 47.5379 37.8973 47.5371 37.7854C47.8561 37.8009 48.1758 37.7902 48.4931 37.7533C48.4472 37.5986 48.3428 37.4678 48.2021 37.3888C48.346 37.3645 48.4766 37.1924 48.522 37.054C48.5613 36.9127 48.5634 36.7637 48.5283 36.6214C48.5174 36.5848 48.5158 36.5461 48.5236 36.5087C48.5467 36.4591 48.5874 36.4198 48.6378 36.3984C48.8756 36.2615 49.1135 36.1249 49.3513 35.9885C49.3937 35.9671 49.4323 35.9388 49.4655 35.9048C49.5398 35.8164 49.5289 35.6842 49.4905 35.5755C49.4522 35.4667 49.3912 35.3643 49.3763 35.25C49.3325 34.9082 49.6986 34.6626 49.8222 34.3403C49.8642 34.2116 49.8869 34.0774 49.8895 33.9421C49.8997 33.7966 49.9005 33.6284 49.7894 33.5353C49.6822 33.4453 49.5156 33.4657 49.4037 33.382C49.3012 33.3053 49.266 33.1575 49.1541 33.0957C49.0524 33.0393 48.9257 33.0753 48.8123 33.0487C48.6136 33.0026 48.4884 32.7734 48.285 32.7522C48.1708 32.7397 48.0409 32.796 47.947 32.7295C47.8641 32.6701 47.861 32.552 47.8453 32.4518C47.8175 32.2959 47.7427 32.1522 47.6308 32.04C47.5189 31.9278 47.3754 31.8526 47.2195 31.8245C47.1014 31.8057 46.9731 31.8127 46.8721 31.7478C46.7704 31.6821 46.7243 31.5593 46.6437 31.4677C46.5154 31.3214 46.312 31.269 46.1219 31.2244C45.8637 31.1642 45.6058 31.1037 45.3482 31.043C45.2113 31.0101 45.0345 30.9929 44.9602 31.1134C44.9382 31.1592 44.9229 31.2079 44.9148 31.2581C44.8869 31.3484 44.8311 31.4275 44.7555 31.4843C44.68 31.541 44.5884 31.5725 44.4939 31.5741C44.4292 31.4637 44.3244 31.3824 44.2013 31.3473C44.1209 31.3338 44.0415 31.3149 43.9635 31.2909C43.9228 31.271 43.8866 31.243 43.8571 31.2085C43.8276 31.1741 43.8054 31.1341 43.792 31.0908C43.7785 31.0475 43.774 31.0019 43.7787 30.9568C43.7835 30.9118 43.7974 30.8681 43.8196 30.8286C43.8639 30.7492 43.881 30.6575 43.8681 30.5674C43.8553 30.4774 43.8132 30.3941 43.7484 30.3303C43.6169 30.2122 43.4268 30.1832 43.25 30.195C43.2039 30.0941 43.2813 29.9806 43.3643 29.9071C43.448 29.8343 43.5489 29.7624 43.5669 29.6528C43.5958 29.4807 43.376 29.3501 43.2094 29.401C43.0427 29.4526 42.9363 29.6145 42.8659 29.7741C42.8318 29.8683 42.7852 29.9574 42.7275 30.0393C42.6979 30.0798 42.6577 30.1113 42.6113 30.1303C42.5649 30.1494 42.5141 30.1552 42.4646 30.1472C42.3269 30.112 42.2745 29.9485 42.244 29.8109C42.1951 29.6268 42.1704 29.4372 42.1705 29.2468C42.1717 29.0546 42.248 28.8704 42.3832 28.7337C42.6109 28.524 42.9614 28.5444 43.2688 28.578C43.2359 28.5341 43.2201 28.4797 43.2244 28.4249C43.2287 28.3702 43.2529 28.3189 43.2923 28.2807C43.3334 28.2442 43.3829 28.2183 43.4363 28.2052C43.4898 28.1921 43.5456 28.1922 43.5989 28.2056C43.6916 28.2248 43.7752 28.2747 43.836 28.3472C43.9236 28.4536 43.9486 28.5983 44.0144 28.7188C44.0809 28.8401 44.2295 28.9433 44.3508 28.8784C44.4564 28.8221 44.4728 28.6766 44.447 28.56C44.4204 28.4442 44.3648 28.3308 44.3742 28.2119C44.3922 27.9858 44.6277 27.8489 44.835 27.7558C45.0423 27.6627 45.2793 27.5368 45.3122 27.3115C45.3137 27.2677 45.3222 27.2244 45.3372 27.1832C45.3602 27.1464 45.3923 27.1163 45.4303 27.0956C46.0351 26.6958 46.6507 26.2906 47.3423 26.0724C47.3783 26.0606 47.3822 26.0731 47.419 26.0645C47.4706 26.0348 47.4362 25.9527 47.3869 25.9198C47.3376 25.887 47.2719 25.8611 47.2594 25.8033C47.2508 25.761 47.2758 25.7188 47.2821 25.6757C47.2837 25.6498 47.2789 25.6238 47.2682 25.6C47.2574 25.5763 47.241 25.5556 47.2204 25.5397C47.1998 25.5238 47.1756 25.5132 47.1499 25.5088C47.1243 25.5044 47.0979 25.5064 47.0732 25.5146C47.0176 25.4411 47.1272 25.3558 47.2163 25.3308C47.4834 25.2576 47.7574 25.213 48.0339 25.1978C48.0658 25.1925 48.0985 25.198 48.127 25.2134C48.1473 25.233 48.1593 25.2597 48.1606 25.2879C48.162 25.3161 48.1524 25.3438 48.134 25.3652C48.0964 25.407 48.0547 25.445 48.0096 25.4786C47.9647 25.5222 47.9327 25.5773 47.9169 25.6378C47.9012 25.6984 47.9024 25.7621 47.9204 25.822C48.0652 25.8956 48.2216 25.9714 48.382 25.9456C48.5416 25.9198 48.6832 25.7399 48.6081 25.5967C48.5384 25.463 48.328 25.4325 48.292 25.2862C48.2498 25.1149 48.4923 24.9623 48.4375 24.7949C48.4141 24.7214 48.3405 24.6776 48.2842 24.6251C48.2179 24.5599 48.1728 24.4762 48.1548 24.3849C48.1368 24.2936 48.1467 24.1991 48.1833 24.1135C48.0917 24.1295 47.9976 24.1234 47.9089 24.0956C47.8201 24.0679 47.7393 24.0193 47.6732 23.954C47.5512 23.8311 47.4542 23.6363 47.2805 23.6426C47.1217 23.6473 46.9848 23.8327 46.8361 23.7764C46.7994 23.7623 46.761 23.7341 46.7258 23.7506C46.7142 23.758 46.7045 23.768 46.6973 23.7798C46.6901 23.7916 46.6857 23.8049 46.6844 23.8186C46.6468 23.9993 46.7118 24.2051 46.6132 24.3615C46.506 24.5313 46.258 24.5547 46.1282 24.7081C46.0577 24.791 46.0304 24.9029 45.9654 24.9905C45.9005 25.0781 45.7636 25.1344 45.6854 25.0577C45.7237 24.9792 45.7342 24.89 45.7151 24.8047C45.6961 24.7194 45.6486 24.6432 45.5805 24.5884C45.5085 24.5411 45.4307 24.5032 45.349 24.4757C45.2577 24.4372 45.1709 24.389 45.09 24.3318C45.0497 24.3072 45.017 24.2721 44.9954 24.2301C44.9783 24.1773 44.9805 24.1202 45.0016 24.069C45.0412 23.956 45.1109 23.8559 45.2031 23.7796C45.2953 23.7032 45.4066 23.6534 45.525 23.6356C45.6283 23.6215 45.7487 23.6262 45.8176 23.5472C45.8536 23.5057 45.8723 23.4423 45.9255 23.4259C45.959 23.4189 45.9939 23.423 46.0249 23.4377C46.154 23.483 46.2823 23.5284 46.4114 23.5738C46.4544 23.5935 46.5019 23.6013 46.549 23.5965C46.5724 23.5934 46.5937 23.5817 46.6087 23.5635C46.6236 23.5453 46.6311 23.5222 46.6296 23.4987C46.6171 23.4345 46.5185 23.404 46.5279 23.3391C46.5325 23.3179 46.5437 23.2987 46.56 23.2843C46.6995 23.1359 46.8701 23.0202 47.0596 22.9454C47.2491 22.8706 47.4527 22.8386 47.656 22.8517C47.7045 22.9323 47.6278 23.027 47.5629 23.095C47.4988 23.1639 47.4471 23.2859 47.5254 23.3383C47.5569 23.3549 47.5922 23.3629 47.6278 23.3618C47.723 23.3745 47.8154 23.4025 47.9017 23.4447C48.0354 23.5026 48.1669 23.5667 48.2952 23.6356C48.2763 23.5517 48.2795 23.4644 48.3045 23.3821C48.3187 23.3417 48.3473 23.3081 48.3849 23.2877C48.4225 23.2673 48.4664 23.2616 48.5079 23.2718C48.5846 23.3015 48.6237 23.4032 48.7059 23.4126C48.8146 23.4251 48.8576 23.264 48.8123 23.1639C48.7669 23.0637 48.6761 22.9808 48.6691 22.8705C48.6636 22.797 48.6918 22.7054 48.6331 22.6609C48.6123 22.647 48.5884 22.6384 48.5635 22.6358C48.0722 22.5459 47.5806 22.4556 47.0888 22.3652C47.0012 22.3487 46.8753 22.3612 46.8714 22.4496C46.869 22.4997 46.9136 22.549 46.894 22.5944C46.8729 22.6429 46.8041 22.6389 46.754 22.6562C46.7164 22.6732 46.6853 22.7021 46.6656 22.7383C46.6458 22.7746 46.6384 22.8163 46.6445 22.8572C46.6579 22.9385 46.6894 23.0158 46.7368 23.0833C46.6406 23.0434 46.4958 23.0363 46.3996 22.9957C46.3856 22.8843 46.3572 22.7751 46.3151 22.671C46.3127 22.6545 46.3067 22.6386 46.2975 22.6246C46.2883 22.6106 46.2762 22.5988 46.262 22.59C46.2477 22.5812 46.2317 22.5756 46.2151 22.5737C46.1985 22.5717 46.1816 22.5734 46.1657 22.5787C46.039 22.5983 45.9122 22.617 45.7855 22.6366C45.7537 22.6381 45.7232 22.6499 45.6987 22.6702C45.6494 22.7227 45.6979 22.8064 45.6963 22.8783C45.6917 22.9186 45.6747 22.9564 45.6477 22.9865C45.6206 23.0167 45.5849 23.0376 45.5453 23.0465C45.4657 23.0627 45.3836 23.0616 45.3044 23.0434C45.1268 23.016 44.95 22.9886 44.7724 22.9612C44.9292 22.9113 45.0686 22.818 45.1745 22.6921C45.2449 22.6092 45.2825 22.4543 45.1808 22.4152C45.1507 22.407 45.1194 22.4046 45.0885 22.4082C44.8475 22.4097 44.6574 22.2087 44.4321 22.1234C44.3613 22.097 44.2863 22.0832 44.2107 22.0827L43.9588 22.3917Z"
      fill="#3F3D56"/>
    <path
      d="M64.4853 30.0847C64.4577 30.1217 64.4215 30.1514 64.3797 30.1712C64.338 30.1909 64.292 30.2002 64.2459 30.1981C64.001 30.177 63.8978 29.8242 63.6553 29.7843C63.6338 29.7788 63.6111 29.781 63.5911 29.7905C63.5551 29.8101 63.5489 29.8586 63.5465 29.8993C63.5363 30.1011 63.5277 30.3107 63.6068 30.4969C63.7218 30.7691 64.0198 30.9976 63.9572 31.2862C63.6208 31.1306 63.4456 30.7527 63.3666 30.3905C63.2868 30.0283 63.2743 29.6481 63.1319 29.3055C63.0232 29.444 62.7963 29.3298 62.6977 29.1843C62.6038 29.0466 62.5459 28.887 62.4552 28.747C62.3644 28.6077 62.2252 28.4826 62.0593 28.4747C61.8849 28.4669 61.7331 28.5866 61.6001 28.7C61.4844 28.7855 61.3873 28.8935 61.3146 29.0176C61.2215 29.2054 61.2457 29.426 61.2411 29.6348C61.2364 29.8601 61.1886 30.0987 61.0345 30.2646C60.8804 30.4296 60.5964 30.4875 60.4267 30.3381C60.3446 30.2526 60.2861 30.1472 60.2569 30.0322C60.0723 29.4944 59.9188 28.9464 59.7969 28.391C59.7687 28.5178 59.6569 28.6813 59.5505 28.6069C59.5267 28.5867 59.5075 28.5616 59.4942 28.5334C59.2954 28.1978 58.9285 27.996 58.5569 27.8747C58.1861 27.7543 57.7958 27.6979 57.4289 27.5649C57.2231 27.4902 57.0265 27.3923 56.8429 27.2732C56.7963 27.3419 56.769 27.4219 56.7641 27.5047C56.7591 27.5876 56.7766 27.6703 56.8147 27.7441C56.856 27.8163 56.9199 27.8728 56.9966 27.9049C57.0733 27.937 57.1584 27.9429 57.2388 27.9217C57.3201 27.8951 57.389 27.8387 57.4695 27.8106C57.5501 27.7832 57.6589 27.7965 57.6941 27.8747C57.7285 27.949 57.6768 28.039 57.7027 28.1172C57.741 28.2354 57.9201 28.2447 57.9827 28.3527C58.0011 28.3954 58.0054 28.443 57.9948 28.4883C57.9842 28.5336 57.9595 28.5744 57.9241 28.6046C57.8521 28.6633 57.7726 28.7122 57.6878 28.7501C57.4249 28.8964 57.238 29.1459 57.008 29.3399C56.778 29.5347 56.4533 29.6763 56.1795 29.5519C56.2444 29.221 55.8509 28.9785 55.7782 28.6492C55.7539 28.5404 55.7664 28.4254 55.7328 28.3198C55.6835 28.1665 55.5474 28.0617 55.4363 27.9459C55.3014 27.8038 55.1962 27.6361 55.127 27.4527C55.0578 27.2693 55.026 27.074 55.0334 26.8781C55.0397 26.742 55.0647 26.6035 55.0334 26.4705C55.0029 26.3383 54.8926 26.21 54.7565 26.2155C54.4459 26.2296 54.054 26.2531 53.8913 25.9879C53.8326 25.8932 53.8075 25.7548 53.892 25.682C53.9515 25.6312 54.0391 25.6359 54.1166 25.6437C54.3505 25.6664 54.5836 25.6898 54.8175 25.7125C54.981 25.7282 55.1578 25.7415 55.2986 25.6562C55.4394 25.5709 55.5005 25.3433 55.3698 25.2424C55.2752 25.1688 55.1046 25.1727 55.0764 25.0562C55.0538 24.9584 55.1617 24.8481 55.103 24.766C55.0616 24.7081 54.9677 24.7237 54.9106 24.7675C54.8608 24.8193 54.8066 24.8666 54.7487 24.9091C54.6368 24.967 54.5038 24.9115 54.3833 24.8739C54.2628 24.8364 54.1017 24.8332 54.0438 24.9451C53.9781 25.0695 54.1009 25.2338 54.0368 25.3589C53.9507 25.524 53.6613 25.4301 53.5408 25.5725C53.4031 25.7352 53.6346 25.9793 53.5885 26.1874C53.5291 26.2168 53.463 26.2304 53.3968 26.2267C53.3305 26.223 53.2664 26.2021 53.2106 26.1662C53.1559 26.129 53.1123 26.0776 53.0845 26.0175C53.0566 25.9575 53.0456 25.891 53.0526 25.8252C53.0636 25.7313 53.1129 25.6351 53.08 25.5467C53.0446 25.4784 52.9861 25.4249 52.9149 25.3957C52.6881 25.2697 52.4612 25.1443 52.2343 25.0194C52.1709 25.1368 52.2507 25.2815 52.3509 25.3699C52.4502 25.4575 52.5754 25.524 52.6411 25.6398C52.6827 25.72 52.6921 25.8131 52.6674 25.9C52.6427 25.987 52.5857 26.0612 52.5081 26.1076C52.4983 26.1143 52.4871 26.1189 52.4754 26.1209C52.4636 26.1229 52.4516 26.1224 52.4401 26.1193C52.4292 26.1129 52.4198 26.1045 52.4122 26.0944C52.4047 26.0843 52.3993 26.0728 52.3963 26.0606C52.2766 25.7532 52.0958 25.4505 51.808 25.2901C51.5193 25.1289 51.1054 25.1626 50.9161 25.4325C50.8715 25.4966 50.841 25.5701 50.8019 25.6382C50.5946 25.9988 50.1487 26.1694 49.7325 26.1584C49.6918 26.161 49.6512 26.1515 49.6159 26.131C49.5486 26.0849 49.5518 25.9863 49.5619 25.905C49.5768 25.79 49.5909 25.6757 49.6057 25.5608C49.6061 25.4905 49.6333 25.4231 49.6816 25.3722C49.7591 25.3112 49.8702 25.3495 49.9687 25.348C50.0431 25.3447 50.1147 25.3185 50.1736 25.273C50.2326 25.2275 50.2761 25.1649 50.2981 25.0937C50.3179 25.022 50.3178 24.9461 50.2976 24.8744C50.2775 24.8027 50.2382 24.7379 50.1839 24.6869C50.1393 24.6447 50.079 24.5915 50.1025 24.5344C50.1121 24.5187 50.1249 24.5052 50.1402 24.4949C50.1554 24.4847 50.1728 24.4779 50.1909 24.475C50.3669 24.4241 50.5539 24.4108 50.7268 24.3498C50.9005 24.2896 51.0687 24.166 51.1101 23.9868C51.1226 23.9321 51.1281 23.8656 51.1774 23.8382C51.2023 23.8282 51.2288 23.8229 51.2556 23.8225C51.3497 23.8091 51.4353 23.7609 51.4957 23.6875C51.556 23.6141 51.5868 23.5208 51.5819 23.4259C51.6648 23.368 51.7814 23.4111 51.8619 23.4729C51.9417 23.5347 52.0129 23.616 52.1107 23.6426C52.293 23.6927 52.469 23.5307 52.6583 23.53C52.7381 23.53 52.8203 23.5581 52.8946 23.5307C52.9705 23.5034 53.0158 23.4283 53.0737 23.3727C53.1324 23.3164 53.2341 23.2828 53.2881 23.343C53.2724 23.2296 53.2576 23.1169 53.2419 23.0043C53.3341 23.0275 53.4302 23.0307 53.5237 23.0137C53.6172 22.9967 53.706 22.9599 53.7841 22.9057C53.5869 22.8392 53.3906 22.7727 53.1934 22.7062C53.1727 22.7011 53.1536 22.6909 53.1379 22.6765C53.0949 22.6303 53.1379 22.5584 53.1723 22.506C53.256 22.38 53.2701 22.1727 53.1324 22.1101C53.0385 22.0671 52.9313 22.1187 52.8414 22.1688C52.6974 22.2486 52.5535 22.3292 52.4096 22.409C52.3963 22.4911 52.4964 22.538 52.5582 22.5928C52.5959 22.6262 52.6225 22.6702 52.6347 22.7191C52.6468 22.7679 52.6439 22.8193 52.6263 22.8665C52.6087 22.9136 52.5772 22.9544 52.536 22.9833C52.4948 23.0122 52.4458 23.028 52.3955 23.0285C52.4238 23.0655 52.4435 23.1084 52.4531 23.154C52.4627 23.1997 52.462 23.2468 52.451 23.2921C52.3548 23.2992 52.2578 23.3062 52.1608 23.3133C52.1447 23.3165 52.1281 23.3165 52.112 23.3133C52.0959 23.31 52.0805 23.3037 52.0669 23.2945C52.0356 23.2671 52.0403 23.2186 52.0325 23.1779C52.0196 23.1293 51.9924 23.0857 51.9545 23.0526C51.9166 23.0196 51.8696 22.9987 51.8197 22.9925C51.72 22.9813 51.6191 22.9906 51.5232 23.0199C51.4815 23.0346 51.4358 23.0335 51.3949 23.0168C51.3717 23.0014 51.3541 22.9789 51.3448 22.9526C51.3278 22.899 51.3249 22.8419 51.3364 22.7868C51.3479 22.7317 51.3735 22.6805 51.4105 22.6382C51.4857 22.5547 51.5684 22.4785 51.6578 22.4105C51.8602 22.2333 52.009 22.003 52.0872 21.7456C52.2468 21.6783 52.4119 21.5876 52.5723 21.5203C52.7012 21.4605 52.8363 21.4152 52.9752 21.385C53.1058 21.365 53.2382 21.3587 53.3702 21.3662C53.5502 21.3693 53.7309 21.3724 53.9108 21.3764C54.0714 21.3696 54.2319 21.3927 54.3841 21.4444C54.532 21.5054 54.6626 21.6376 54.6728 21.7972C54.6759 21.8154 54.6742 21.8341 54.6681 21.8515C54.6619 21.8688 54.6514 21.8844 54.6376 21.8966C54.6168 21.9081 54.5932 21.9135 54.5695 21.9122C54.4201 21.9169 54.3567 21.9545 54.2073 21.9599C54.302 22.0608 54.4084 22.1672 54.546 22.1852C54.7886 22.2165 54.963 21.9654 55.0749 21.7472C55.0789 21.8027 55.1044 21.8545 55.1461 21.8915C55.1877 21.9285 55.2422 21.9477 55.2978 21.9451C55.3578 21.9348 55.415 21.9124 55.466 21.8794C55.9472 21.6164 56.4862 21.4771 57.0346 21.4741C57.0292 21.4326 57.0394 21.3906 57.0633 21.3562C57.0871 21.3218 57.1229 21.2975 57.1636 21.288C57.2755 21.2661 57.3757 21.3623 57.4296 21.4624C57.4828 21.5625 57.5165 21.6783 57.6025 21.7534C57.6878 21.8285 57.8529 21.8246 57.8865 21.7166C57.9194 21.6126 57.8106 21.5234 57.7207 21.4616C57.6299 21.4006 57.5352 21.2872 57.5963 21.1964C58.0563 21.0939 58.5202 20.9923 58.9919 20.9719C59.0721 20.9743 59.1519 20.9605 59.2266 20.9312C59.2636 20.9156 59.2944 20.8881 59.3142 20.8532C59.334 20.8183 59.3417 20.7778 59.3361 20.738C59.2332 20.762 59.1254 20.7549 59.0265 20.7176C58.9276 20.6803 58.8421 20.6144 58.7807 20.5284C59.2649 20.4885 59.7719 20.4533 60.2373 20.562L60.6449 20.9078C60.5675 20.9883 60.4642 21.0642 60.5205 21.1448C60.5391 21.1633 60.5617 21.1773 60.5865 21.1859C60.6113 21.1944 60.6377 21.1972 60.6637 21.1941C60.7623 21.1956 60.8608 21.198 60.9586 21.198C62.9821 23.1334 64.2276 25.7423 64.4603 28.5326C64.296 28.5264 64.145 28.7345 64.1661 28.9159C64.1911 29.1264 64.3429 29.2953 64.4516 29.4768C64.4697 29.5063 64.4858 29.5369 64.5002 29.5684L64.4853 30.0847Z"
      fill="#3F3D56"/>
    <path
      d="M37.4782 30.2493L36.6598 29.9189C36.2794 29.7643 35.9762 29.4167 35.8088 28.9105L35.0969 27.0746C34.9622 26.7257 34.6742 26.505 34.359 26.505H29.4682C29.1531 26.505 28.865 26.7257 28.7303 27.0733L27.9988 28.9633C27.8499 29.4167 27.5467 29.7629 27.1674 29.9176L26.3479 30.248C25.1274 30.7449 24.3058 32.1301 24.3058 33.6962V36.0872C24.3058 38.0921 25.6458 39.7218 27.2946 39.7218H36.5326C38.1814 39.7218 39.5214 38.0921 39.5214 36.0872V33.6962C39.5214 32.1301 38.6998 30.7449 37.4782 30.2493Z"
      fill="#57556E"/>
    <path
      d="M36.5326 28.4875H27.2945C26.8445 28.4875 26.4794 28.0434 26.4794 27.4963C26.4794 26.9491 26.8445 26.505 27.2945 26.505H36.5326C36.9825 26.505 37.3477 26.9491 37.3477 27.4963C37.3477 28.0434 36.9825 28.4875 36.5326 28.4875Z"
      fill="#607D8B"/>
    <path
      d="M41.6376 8.91085C41.6169 8.60819 41.4843 8.3346 41.2768 8.16675C41.0703 7.99758 40.8094 7.95396 40.5736 8.05044C35.9774 9.87303 32.969 12.4794 31.63 15.7941C30.6019 18.341 30.5628 21.2778 31.5148 24.5238C31.6311 24.9282 31.9431 25.1833 32.2811 25.1833L32.4973 25.1476C36.0045 23.9727 38.9129 21.3055 40.2801 18.0146C40.4377 17.6326 40.3779 17.1713 40.1302 16.8687L39.2205 15.7571L40.8268 15.1003C41.0974 14.9892 41.3018 14.7143 41.3626 14.3747C41.6745 12.6618 41.7669 10.8246 41.6376 8.91085Z"
      fill="#6C63FF"/>
    <path
      d="M31.9136 28.4875C31.4637 28.4875 31.0985 28.0434 31.0985 27.4963C31.0985 23.7506 32.4723 19.9918 34.684 17.6868L35.1872 17.1621C35.5295 16.8065 36.0436 16.8554 36.337 17.2691C36.6305 17.6841 36.5903 18.3106 36.249 18.6675L35.7458 19.1922C33.8851 21.1311 32.7298 24.3137 32.7298 27.4976C32.7288 28.0434 32.3636 28.4875 31.9136 28.4875Z"
      fill="#CFD8DC"/>
    <path
      d="M31.9136 15.1531C31.8114 15.3646 31.7168 15.5787 31.6288 15.7955C30.6289 18.271 30.5637 21.1139 31.4354 24.2529C31.5614 23.6462 31.7212 23.0528 31.9136 22.4765V15.1531Z"
      fill="#546D79"/>
    <path
      d="M31.9136 22.4752C31.7223 23.0515 31.5615 23.6462 31.4354 24.2516C31.2822 24.989 31.1789 25.745 31.13 26.5037H31.9136V22.4752Z"
      fill="#B4BCC0"/>
    <path
      d="M31.9136 28.748H28.1836L27.9999 29.2238C27.851 29.6772 27.5478 30.0234 27.1685 30.1781L26.349 30.5085C25.1274 31.0054 24.3058 32.3906 24.3058 33.9567V36.3477C24.3058 38.3526 25.6459 39.9823 27.2946 39.9823H31.9136V28.748Z"
      fill="#3F3D56"/>
    <path
      d="M68.12 39C67.912 39 67.736 38.936 67.592 38.808C67.464 38.664 67.4 38.488 67.4 38.28V20.976C67.4 20.752 67.464 20.576 67.592 20.448C67.736 20.32 67.912 20.256 68.12 20.256H72.704C73.872 20.256 74.904 20.504 75.8 21C76.712 21.48 77.424 22.144 77.936 22.992C78.448 23.84 78.704 24.824 78.704 25.944C78.704 27.256 78.336 28.392 77.6 29.352C76.864 30.296 75.888 30.944 74.672 31.296L78.8 37.896C79.008 38.216 79.048 38.48 78.92 38.688C78.808 38.896 78.568 39 78.2 39C78.024 39 77.888 38.968 77.792 38.904C77.712 38.824 77.632 38.728 77.552 38.616L73.136 31.56C72.992 31.56 72.848 31.56 72.704 31.56H68.84V38.28C68.84 38.488 68.776 38.664 68.648 38.808C68.52 38.936 68.344 39 68.12 39ZM68.84 30.12H72.704C73.6 30.12 74.384 29.944 75.056 29.592C75.744 29.224 76.28 28.728 76.664 28.104C77.064 27.48 77.264 26.76 77.264 25.944C77.264 25.112 77.064 24.376 76.664 23.736C76.28 23.096 75.744 22.6 75.056 22.248C74.384 21.88 73.6 21.696 72.704 21.696H68.84V30.12ZM81.4976 39C81.1936 39 80.9776 38.88 80.8496 38.64C80.7376 38.4 80.7376 38.176 80.8496 37.968L88.1216 20.76C88.2496 20.424 88.4816 20.256 88.8176 20.256C89.1376 20.256 89.3696 20.424 89.5136 20.76L96.8096 37.968C96.9376 38.192 96.9296 38.424 96.7856 38.664C96.6416 38.888 96.4336 39 96.1616 39C95.8416 39 95.6176 38.848 95.4896 38.544L93.7136 34.296H83.9456L82.1696 38.544C82.0576 38.848 81.8336 39 81.4976 39ZM84.4976 33H93.1616L88.8176 22.632L84.4976 33ZM108.272 39.24C106.992 39.24 105.784 38.992 104.648 38.496C103.528 37.984 102.536 37.288 101.672 36.408C100.808 35.512 100.128 34.488 99.6318 33.336C99.1358 32.168 98.8878 30.928 98.8878 29.616C98.8878 28.32 99.1278 27.096 99.6078 25.944C100.088 24.776 100.752 23.752 101.6 22.872C102.464 21.976 103.464 21.28 104.6 20.784C105.736 20.272 106.96 20.016 108.272 20.016C110.512 20.016 112.488 20.728 114.2 22.152C114.344 22.264 114.416 22.424 114.416 22.632C114.416 22.824 114.352 23 114.224 23.16C114.096 23.304 113.92 23.376 113.696 23.376C113.52 23.376 113.32 23.28 113.096 23.088C112.456 22.512 111.728 22.096 110.912 21.84C110.096 21.584 109.216 21.456 108.272 21.456C107.2 21.456 106.184 21.68 105.224 22.128C104.264 22.56 103.416 23.16 102.68 23.928C101.944 24.68 101.368 25.544 100.952 26.52C100.536 27.496 100.328 28.528 100.328 29.616C100.328 30.736 100.536 31.792 100.952 32.784C101.368 33.776 101.936 34.648 102.656 35.4C103.392 36.152 104.24 36.744 105.2 37.176C106.16 37.592 107.184 37.8 108.272 37.8C110.16 37.8 111.816 37.216 113.24 36.048C113.432 35.888 113.664 35.88 113.936 36.024C114.208 36.152 114.344 36.368 114.344 36.672C114.344 36.768 114.336 36.856 114.32 36.936C114.304 37.016 114.256 37.096 114.176 37.176C113.392 37.96 112.48 38.504 111.44 38.808C110.416 39.096 109.36 39.24 108.272 39.24ZM117.742 39C117.438 39 117.222 38.88 117.094 38.64C116.982 38.4 116.982 38.176 117.094 37.968L124.366 20.76C124.494 20.424 124.726 20.256 125.062 20.256C125.382 20.256 125.614 20.424 125.758 20.76L133.054 37.968C133.182 38.192 133.174 38.424 133.03 38.664C132.886 38.888 132.678 39 132.406 39C132.086 39 131.862 38.848 131.734 38.544L129.958 34.296H120.19L118.414 38.544C118.302 38.848 118.078 39 117.742 39ZM120.742 33H129.406L125.062 22.632L120.742 33ZM142.177 39.24C140.657 39.24 139.345 38.928 138.241 38.304C137.137 37.68 136.321 36.84 135.793 35.784C135.697 35.592 135.689 35.408 135.769 35.232C135.865 35.056 136.017 34.936 136.225 34.872C136.401 34.808 136.577 34.816 136.753 34.896C136.929 34.976 137.065 35.104 137.161 35.28C137.577 36.064 138.209 36.68 139.057 37.128C139.921 37.576 140.961 37.8 142.177 37.8C143.553 37.8 144.633 37.456 145.417 36.768C146.217 36.08 146.617 35.104 146.617 33.84C146.617 32.784 146.233 31.896 145.465 31.176C144.713 30.44 143.561 29.968 142.009 29.76C140.217 29.504 138.817 28.928 137.809 28.032C136.801 27.12 136.297 26.016 136.297 24.72C136.297 23.776 136.529 22.952 136.993 22.248C137.473 21.544 138.137 21 138.985 20.616C139.849 20.216 140.841 20.016 141.961 20.016C142.793 20.016 143.561 20.152 144.265 20.424C144.969 20.696 145.585 21.056 146.113 21.504C146.641 21.936 147.049 22.392 147.337 22.872C147.449 23.048 147.473 23.24 147.409 23.448C147.361 23.64 147.233 23.776 147.025 23.856C146.849 23.92 146.673 23.928 146.497 23.88C146.321 23.816 146.177 23.704 146.065 23.544C145.841 23.208 145.553 22.88 145.201 22.56C144.849 22.24 144.409 21.976 143.881 21.768C143.353 21.56 142.713 21.456 141.961 21.456C140.649 21.456 139.617 21.752 138.865 22.344C138.113 22.936 137.737 23.776 137.737 24.864C137.737 25.728 138.097 26.472 138.817 27.096C139.537 27.704 140.681 28.144 142.249 28.416C144.313 28.768 145.793 29.408 146.689 30.336C147.601 31.248 148.057 32.416 148.057 33.84C148.057 34.96 147.809 35.928 147.313 36.744C146.817 37.544 146.129 38.16 145.249 38.592C144.369 39.024 143.345 39.24 142.177 39.24ZM157.208 39C157 39 156.824 38.936 156.68 38.808C156.552 38.664 156.488 38.488 156.488 38.28V31.992L149.864 21.384C149.704 21.112 149.68 20.856 149.792 20.616C149.92 20.376 150.128 20.256 150.416 20.256C150.64 20.256 150.832 20.352 150.992 20.544L157.208 30.672L163.328 20.712C163.44 20.536 163.544 20.416 163.64 20.352C163.752 20.288 163.88 20.256 164.024 20.256C164.296 20.256 164.488 20.376 164.6 20.616C164.728 20.856 164.712 21.112 164.552 21.384L157.928 31.992V38.28C157.928 38.488 157.856 38.664 157.712 38.808C157.584 38.936 157.416 39 157.208 39Z"
      fill="white"/>
    <path
      d="M6.286 39C5.90467 39 5.582 38.8827 5.318 38.648C5.08333 38.384 4.966 38.0613 4.966 37.68V5.956C4.966 5.57466 5.08333 5.26666 5.318 5.032C5.582 4.768 5.90467 4.636 6.286 4.636H27.45C27.802 4.636 28.11 4.768 28.374 5.032C28.638 5.26666 28.77 5.57466 28.77 5.956C28.77 6.308 28.638 6.616 28.374 6.88C28.11 7.144 27.802 7.276 27.45 7.276H7.606V20.476H22.17C22.5513 20.476 22.8593 20.608 23.094 20.872C23.358 21.1067 23.49 21.4147 23.49 21.796C23.49 22.1773 23.358 22.5 23.094 22.764C22.8593 23.028 22.5513 23.16 22.17 23.16H7.606V37.68C7.606 38.0613 7.474 38.384 7.21 38.648C6.97533 38.8827 6.66733 39 6.286 39Z"
      fill="white"/>
  </g>
  <defs>
    <filter id="filter0_d" x="0.965942" y="0.636002" width="167.719" height="44.364" filterUnits="userSpaceOnUse"
            color-interpolation-filters="sRGB">
      <feFlood flood-opacity="0" result="BackgroundImageFix"/>
      <feColorMatrix in="SourceAlpha" type="matrix" values="0 0 0 0 0 0 0 0 0 0 0 0 0 0 0 0 0 0 127 0"/>
      <feOffset/>
      <feGaussianBlur stdDeviation="2"/>
      <feColorMatrix type="matrix" values="0 0 0 0 1 0 0 0 0 1 0 0 0 0 1 0 0 0 0.4 0"/>
      <feBlend mode="normal" in2="BackgroundImageFix" result="effect1_dropShadow"/>
      <feBlend mode="normal" in="SourceGraphic" in2="effect1_dropShadow" result="shape"/>
    </filter>
    <linearGradient id="paint0_linear" x1="53" y1="18" x2="53" y2="41" gradientUnits="userSpaceOnUse">
      <stop stop-color="#79ABF8"/>
      <stop offset="1" stop-color="#41CEC6" stop-opacity="0"/>
    </linearGradient>
  </defs>
</svg>
