<svg width="213" height="170" viewBox="0 0 213 170" fill="none" xmlns="http://www.w3.org/2000/svg">
  <g clip-path="url(#clip0)">
    <path opacity="0.1" d="M124.917 28.5925C111.44 28.1244 98.6013 23.7779 86.3441 19.0215C74.0869 14.265 61.9462 8.99472 48.7915 6.47503C40.3305 4.85419 30.6535 4.62532 23.8377 9.15701C17.2759 13.5264 15.156 21.048 14.0169 28.0349C13.1589 33.2907 12.655 38.8211 15.006 43.7419C16.6366 47.1583 19.5333 50.0296 21.5345 53.3129C28.5044 64.6983 23.5794 78.7387 16.0264 89.8557C12.4863 95.0719 8.37347 100.051 5.64131 105.598C2.90916 111.145 1.64304 117.51 4.03367 123.173C6.40557 128.791 12.0552 133.002 18.1734 135.967C30.6035 141.991 45.2451 143.714 59.5327 144.69C91.1503 146.851 122.935 145.915 154.636 144.979C166.368 144.631 178.15 144.28 189.691 142.467C196.101 141.46 202.717 139.865 207.371 136.007C213.277 131.111 214.741 122.82 210.784 116.682C204.143 106.384 185.795 103.827 181.147 92.7748C178.594 86.6931 181.218 79.9184 184.929 74.2756C192.892 62.1745 206.238 51.5568 206.942 37.7246C207.425 28.2222 201.007 18.7094 191.086 14.213C180.689 9.48368 166.266 10.0829 158.598 17.8833C150.698 25.9209 136.816 29.0045 124.917 28.5925Z" fill="#514EFF"/>
    <path d="M90.6797 143.67L19.4021 143.323L12.3197 126.725L37.3631 124.909L32.9983 106.711L82.5312 100.296L35.0995 83.8217L39.2893 82.8272L115.559 95.2592L111.358 123.658L105.355 139.265L90.6797 143.67Z" fill="#514EFF"/>
    <path d="M20.4954 136.371C20.4954 136.371 24.8685 135.672 27.4924 138.76C27.4924 138.76 25.5682 140.274 21.4283 138.177L20.4954 136.371Z" fill="#514EFF"/>
    <path d="M20.0372 136.302C20.0372 136.302 17.2467 139.733 18.6211 143.554C18.6211 143.554 20.8952 142.644 21.143 138.013L20.0372 136.302Z" fill="#514EFF"/>
    <path d="M17.5299 130.662C17.5299 130.662 19.2792 127.455 26.2762 131.943C26.2762 131.943 25.3433 134.099 22.2529 133.924C19.1626 133.749 18.3463 132.351 17.5299 130.662Z" fill="#514EFF"/>
    <path d="M17.0781 130.431C17.0781 130.431 13.4484 130.015 13.0964 138.316C13.0964 138.316 15.3975 138.793 17.0322 136.167C18.667 133.541 17.9964 132.068 17.0781 130.431Z" fill="#514EFF"/>
    <path d="M14.9644 123.808C14.9644 123.808 17.0052 118.157 24.4103 122.177C24.4103 122.177 22.7194 127.362 15.7224 125.731L14.9644 123.808Z" fill="#514EFF"/>
    <path d="M12.6904 115.36C12.6904 115.36 16.5387 109.651 23.3608 114.944C23.3608 114.944 20.9702 120.304 13.2735 117.391L12.6904 115.36Z" fill="#514EFF"/>
    <path d="M11.8741 107.321C11.8741 107.321 16.3638 102.075 23.1192 107.321C23.1192 107.321 18.8627 111.923 11.8741 108.661V107.321Z" fill="#514EFF"/>
    <path d="M11.1744 99.512C11.1744 99.512 15.7224 94.0357 22.1946 99.2208C22.1946 99.2208 17.0635 104.056 11.1744 100.794V99.512Z" fill="#514EFF"/>
    <path d="M11.5825 92.5792C11.5825 92.5792 16.3721 85.5299 22.4278 90.3072C22.4278 90.3072 17.2967 96.3661 11.5825 93.9192V92.5792Z" fill="#514EFF"/>
    <path d="M12.6904 84.4813C12.6904 84.4813 17.7632 77.4903 23.6523 82.8501C23.6523 82.8501 17.6466 88.909 12.6904 85.763V84.4813Z" fill="#514EFF"/>
    <path d="M14.3813 77.2427C14.3813 77.2427 20.3871 70.6719 25.6265 73.2894C25.6265 73.2894 19.3688 80.268 14.1189 78.9863L14.3813 77.2427Z" fill="#514EFF"/>
    <path d="M16.4804 70.3806C16.4804 70.3806 23.4108 62.3326 27.4424 65.0208C27.4424 65.0208 22.3362 71.2628 15.989 71.887L16.4804 70.3806Z" fill="#514EFF"/>
    <path d="M19.5103 62.4221C19.5103 62.4221 25.5765 55.8513 30.0079 57.4826C30.0079 57.4826 24.8185 64.2988 18.6961 64.4736L19.5103 62.4221Z" fill="#514EFF"/>
    <path d="M22.2529 54.9774C22.2529 54.9774 28.9584 48.6855 31.8738 49.7924C31.8738 49.7924 27.0342 56.7835 21.9614 56.3757L22.2529 54.9774Z" fill="#514EFF"/>
    <path d="M24.9351 48.1029C24.9351 48.1029 30.7076 40.5855 33.8584 41.1681C33.8584 41.1681 30.3578 47.8699 24.9351 48.8665V48.1029Z" fill="#514EFF"/>
    <path d="M27.8463 38.8336C27.8463 38.8336 32.9483 33.0722 35.7055 33.0847C35.7055 33.0847 31.678 40.7831 27.636 40.7124L27.8463 38.8336Z" fill="#514EFF"/>
    <path d="M29.5706 32.6623L34.4998 20.661C34.4998 20.661 34.7455 31.5096 28.9438 34.8886L29.5706 32.6623Z" fill="#514EFF"/>
    <path d="M31.5718 19.4272C31.5718 19.4272 32.3882 9.40461 31.8634 8.58899C31.8634 8.58899 35.3869 16.9221 31.5385 23.8548L31.5718 19.4272Z" fill="#514EFF"/>
    <path d="M14.7728 123.675C14.7728 123.675 9.66252 120.51 6.35353 128.252C6.35353 128.252 10.9016 131.269 15.3746 125.649L14.7728 123.675Z" fill="#514EFF"/>
    <path d="M12.5259 115.038C12.5259 115.038 6.25772 112.181 3.21736 120.265C3.21736 120.265 8.05903 123.594 13.0964 117.081L12.5259 115.038Z" fill="#514EFF"/>
    <path d="M11.5825 107.801C11.5825 107.801 7.09279 102.556 0.337364 107.801C0.337364 107.801 4.59386 112.404 11.5825 109.141V107.801Z" fill="#514EFF"/>
    <path d="M11.0203 99.512C11.0203 99.512 6.47221 94.0357 0 99.2208C0 99.2208 5.13112 104.056 11.0203 100.794V99.512Z" fill="#514EFF"/>
    <path d="M11.5825 92.779C11.5825 92.779 8.39221 84.8829 1.4577 88.2785C1.4577 88.2785 5.20608 95.28 11.2993 94.0898L11.5825 92.779Z" fill="#514EFF"/>
    <path d="M13.0923 84.4418C13.0923 84.4418 9.92073 76.4083 2.88834 80.1327C2.88834 80.1327 7.19482 87.4962 12.7799 85.6818L13.0923 84.4418Z" fill="#514EFF"/>
    <path d="M15.0581 77.2822C15.0581 77.2822 13.8087 68.4747 7.97783 67.6862C7.97783 67.6862 9.2148 76.9742 14.273 78.8697L15.0581 77.2822Z" fill="#514EFF"/>
    <path d="M16.6283 70.3973C16.6283 70.3973 16.141 59.7859 11.3201 59.4155C11.3201 59.4155 11.4826 67.4698 16.0847 71.8995L16.6283 70.3973Z" fill="#514EFF"/>
    <path d="M20.0101 62.1245C20.0101 62.1245 18.5732 53.3004 13.9711 52.2227C13.9711 52.2227 14.5416 60.7679 19.5541 64.2905L20.0101 62.1245Z" fill="#514EFF"/>
    <path d="M22.7985 55.0503C22.7985 55.0503 22.7506 45.8579 19.9393 44.5075C19.9393 44.5075 18.1963 52.8302 21.9843 56.2238L22.7985 55.0503Z" fill="#514EFF"/>
    <path d="M25.1496 47.9989C25.1496 47.9989 24.756 38.5339 21.8448 37.2002C21.8448 37.2002 20.8493 44.6906 24.7144 48.6189L25.1496 47.9989Z" fill="#514EFF"/>
    <path d="M28.2524 39.5888C28.2524 39.5888 28.2358 31.8904 26.1575 30.0844C26.1575 30.0844 24.0917 38.5173 27.1675 41.1369L28.2524 39.5888Z" fill="#514EFF"/>
    <path d="M29.327 32.2836L27.3049 19.4709C27.3049 19.4709 24.5582 29.9699 29.4228 34.5973L29.327 32.2836Z" fill="#514EFF"/>
    <path d="M29.7205 19.5479C29.7205 19.5479 24.5311 10.9339 24.6373 9.97681C24.6373 9.97681 25.1892 19.0048 31.7176 23.5011L29.7205 19.5479Z" fill="#514EFF"/>
    <path d="M30.3286 17.0032C30.3286 17.0032 25.4307 4.76887 23.215 3.77847C23.215 3.77847 30.212 7.33225 30.7368 16.6536L30.3286 17.0032Z" fill="#514EFF"/>
    <path d="M27.611 40.7852L27.2758 40.6833C31.4094 27.2151 32.4402 18.6282 30.1808 16.4747L30.4202 16.2209C32.8171 18.493 31.8446 26.9863 27.611 40.7852Z" fill="#444053"/>
    <path d="M16.2285 72.3198L15.7328 72.143C16.1722 70.9091 16.6449 69.6566 17.1406 68.4227C21.4554 57.6782 25.1288 47.6827 27.484 40.0092L27.9151 39.8011C25.5557 47.4892 21.9468 57.8675 17.6279 68.6266C17.1343 69.8376 16.6637 71.0839 16.2285 72.3198Z" fill="#444053"/>
    <path d="M26.6573 146.45C26.5906 146.377 19.8914 138.839 15.2205 125.97C12.4837 118.436 10.9605 110.515 10.7079 102.504C10.3872 92.4898 12.4905 81.3083 16.0931 71.1505L16.4846 71.6082C8.39639 94.4061 11.6096 113.941 15.8723 125.706C20.4933 138.458 27.1175 145.913 27.182 145.988L26.6573 146.45Z" fill="#444053"/>
    <path d="M131.346 130.445C131.346 130.445 126.625 136.203 130.373 144.906L92.6809 161.239L89.0637 161.997L87.3978 154.714L88.5119 145.524V140.501L131.346 130.445Z" fill="#D5D6DB"/>
    <path d="M12.3197 126.725L64.4889 117.223L133.615 128.225L90.6797 143.67L12.3197 126.725Z" fill="#514EFF"/>
    <path d="M12.3197 126.725L64.4889 117.223L133.615 128.225L90.6797 143.67L12.3197 126.725Z" fill="#514EFF"/>
    <path d="M12.3197 126.723C12.3197 126.723 7.44056 135.959 13.0631 144.49L90.4257 161.239C90.4257 161.239 85.6236 153.882 90.6735 143.67L12.3197 126.723Z" fill="#514EFF"/>
    <path opacity="0.1" d="M12.3197 126.723C12.3197 126.723 7.44056 135.959 13.0631 144.49L90.4257 161.239C90.4257 161.239 85.6236 153.882 90.6735 143.67L12.3197 126.723Z" fill="black"/>
    <path opacity="0.1" d="M14.6249 129.925C14.6249 129.925 11.8366 136.683 14.6249 141.057V129.925Z" fill="black"/>
    <path d="M90.4257 161.239L133.615 142.825C133.615 142.825 136.031 143.345 134.469 145.114C132.907 146.883 91.2586 163.008 91.2586 163.008L13.0631 144.49L90.4257 161.239Z" fill="#514EFF"/>
    <path opacity="0.1" d="M90.4257 161.239L133.615 142.825C133.615 142.825 136.031 143.345 134.469 145.114C132.907 146.883 91.2586 163.008 91.2586 163.008L13.0631 144.49L90.4257 161.239Z" fill="black"/>
    <path opacity="0.1" d="M86.8855 145.53C86.8855 145.53 82.7206 150.524 86.8855 158.014V145.53Z" fill="black"/>
    <path opacity="0.1" d="M107.049 145.446L88.3678 151.673L88.4337 151.87L107.115 145.643L107.049 145.446Z" fill="black"/>
    <path opacity="0.1" d="M110.791 144.826L88.3619 153.348L88.4359 153.542L110.865 145.02L110.791 144.826Z" fill="black"/>
    <path opacity="0.1" d="M114.227 144.796L88.4871 155.323L88.566 155.516L114.306 144.989L114.227 144.796Z" fill="black"/>
    <path opacity="0.1" d="M117.964 143.895L88.7875 157.063L88.8733 157.253L118.05 144.084L117.964 143.895Z" fill="black"/>
    <path opacity="0.1" d="M121.104 143.899L89.0185 157.911L89.1019 158.102L121.187 144.09L121.104 143.899Z" fill="black"/>
    <path opacity="0.1" d="M127.97 142.734L89.5023 159.334L89.5849 159.525L128.053 142.925L127.97 142.734Z" fill="black"/>
    <path opacity="0.3" d="M31.7009 127.74L68.3518 120.042L90.6797 124.307L60.6468 133.982L31.7009 127.74Z" fill="white"/>
    <path d="M133.615 128.225C133.615 128.225 135.51 128.989 134.398 130.169C133.286 131.348 90.6735 143.67 90.6735 143.67L133.615 128.225Z" fill="#514EFF"/>
    <path d="M152.022 110.433C152.022 110.433 147.303 116.189 151.052 124.894L113.36 141.227L109.742 141.989L108.076 134.707L109.207 125.518V120.489L152.022 110.433Z" fill="#D5D6DB"/>
    <path d="M32.9983 106.711L85.1654 97.2108L154.294 108.213L111.358 123.658L32.9983 106.711Z" fill="#3A3768"/>
    <path d="M32.99 106.711C32.99 106.711 28.1087 115.947 33.7313 124.478L111.094 141.227C111.094 141.227 106.294 133.864 111.35 123.656L32.99 106.711Z" fill="#3A3768"/>
    <path opacity="0.1" d="M32.99 106.711C32.99 106.711 28.1087 115.947 33.7313 124.478L111.094 141.227C111.094 141.227 106.294 133.864 111.35 123.656L86.8855 118.365L32.99 106.711Z" fill="black"/>
    <path opacity="0.1" d="M35.3015 109.913C35.3015 109.913 32.5152 116.669 35.3015 121.045V109.913Z" fill="black"/>
    <path d="M111.102 141.227L154.294 122.813C154.294 122.813 156.708 123.334 155.146 125.102C153.584 126.871 111.935 142.996 111.935 142.996L33.7397 124.478L111.102 141.227Z" fill="#3A3768"/>
    <path opacity="0.1" d="M111.102 141.227L154.294 122.813C154.294 122.813 156.708 123.334 155.146 125.102C153.584 126.871 111.935 142.996 111.935 142.996L33.7397 124.478L111.102 141.227Z" fill="black"/>
    <path opacity="0.1" d="M107.562 125.518C107.562 125.518 103.397 130.512 107.562 138.002V125.518Z" fill="black"/>
    <path opacity="0.1" d="M127.727 125.436L109.046 131.663L109.112 131.861L127.793 125.633L127.727 125.436Z" fill="black"/>
    <path opacity="0.1" d="M131.472 124.815L109.043 133.337L109.117 133.532L131.546 125.01L131.472 124.815Z" fill="black"/>
    <path opacity="0.1" d="M134.905 124.783L109.165 135.31L109.244 135.502L134.984 124.975L134.905 124.783Z" fill="black"/>
    <path opacity="0.1" d="M138.644 123.882L109.468 137.05L109.553 137.24L138.73 124.071L138.644 123.882Z" fill="black"/>
    <path opacity="0.1" d="M141.781 123.883L109.696 137.896L109.779 138.086L141.864 124.074L141.781 123.883Z" fill="black"/>
    <path opacity="0.1" d="M148.649 122.718L110.181 139.319L110.264 139.51L148.732 122.909L148.649 122.718Z" fill="black"/>
    <path opacity="0.45" d="M52.3795 107.729L89.0304 100.03L111.358 104.295L81.3254 113.971L52.3795 107.729Z" fill="white"/>
    <path d="M154.294 108.213C154.294 108.213 156.187 108.977 155.077 110.155C153.967 111.332 111.358 123.656 111.358 123.656L154.294 108.213Z" fill="#3A3768"/>
    <path d="M153.98 87.5399C153.98 87.5399 149.259 97.8746 153.007 106.578L115.315 118.334L111.706 119.097L110.04 111.815L111.154 102.625V97.5957L153.98 87.5399Z" fill="#D5D6DB"/>
    <path d="M34.962 83.8197L87.1313 74.3173L156.26 85.3198L113.322 100.765L34.962 83.8197Z" fill="#514EFF"/>
    <path d="M34.962 83.8176C34.962 83.8176 30.0746 93.0537 35.6971 101.584L113.06 118.334C113.06 118.334 108.258 110.97 113.314 100.765L34.962 83.8176Z" fill="#514EFF"/>
    <path opacity="0.1" d="M34.962 83.8176C34.962 83.8176 30.0746 93.0537 35.6971 101.584L113.06 118.334C113.06 118.334 108.258 110.97 113.314 100.765L34.962 83.8176Z" fill="black"/>
    <path opacity="0.1" d="M37.2673 87.0197C37.2673 87.0197 34.4789 93.7778 37.2673 98.1513V87.0197Z" fill="black"/>
    <path d="M113.068 118.334L156.258 104.497C156.258 104.497 158.673 105.017 157.112 106.786C155.55 108.555 113.901 120.102 113.901 120.102L35.7055 101.584L113.068 118.334Z" fill="#514EFF"/>
    <path opacity="0.1" d="M113.068 118.334L156.258 104.497C156.258 104.497 158.673 105.017 157.112 106.786C155.55 108.555 113.901 120.102 113.901 120.102L35.7055 101.584L113.068 118.334Z" fill="black"/>
    <path opacity="0.1" d="M109.528 102.625C109.528 102.625 105.363 107.618 109.528 115.109V102.625Z" fill="black"/>
    <path opacity="0.1" d="M129.694 102.542L111.012 108.769L111.078 108.967L129.76 102.739L129.694 102.542Z" fill="black"/>
    <path opacity="0.1" d="M133.437 101.922L111.008 110.444L111.082 110.639L133.511 102.117L133.437 101.922Z" fill="black"/>
    <path opacity="0.1" d="M136.868 101.891L111.128 112.418L111.207 112.61L136.947 102.083L136.868 101.891Z" fill="black"/>
    <path opacity="0.1" d="M140.61 100.988L111.434 114.157L111.519 114.346L140.696 101.177L140.61 100.988Z" fill="black"/>
    <path opacity="0.1" d="M143.748 100.992L111.663 115.004L111.746 115.195L143.831 101.182L143.748 100.992Z" fill="black"/>
    <path opacity="0.1" d="M150.616 99.8277L112.147 116.428L112.23 116.619L150.698 100.019L150.616 99.8277Z" fill="black"/>
    <path opacity="0.3" d="M54.3433 84.835L90.9942 77.1366L113.322 81.4019L83.2891 91.077L54.3433 84.835Z" fill="white"/>
    <path d="M156.258 85.3198C156.258 85.3198 158.153 86.0834 157.041 87.2631C155.929 88.4429 113.322 100.765 113.322 100.765L156.258 85.3198Z" fill="#514EFF"/>
    <path d="M64.643 22.1591C64.643 22.1591 56.7298 21.6826 57.6544 27.2297C57.6544 27.2297 57.469 28.2097 58.3582 28.6549C58.3582 28.6549 58.3728 28.2388 59.1704 28.3824C59.455 28.4312 59.7445 28.4452 60.0325 28.424C60.4207 28.3974 60.7898 28.2455 61.0841 27.9912C61.0841 27.9912 63.3103 27.0715 64.1766 23.4345C64.1766 23.4345 64.818 22.6418 64.8013 22.4379L63.4602 23.008C63.4602 23.008 63.9163 23.9713 63.5581 24.7724C63.5581 24.7724 63.5143 23.0434 63.2561 23.0829C63.2041 23.0829 62.5627 23.4179 62.5627 23.4179C62.5627 23.4179 63.3477 25.097 62.7543 26.3162C62.7543 26.3162 62.9792 24.2481 62.3169 23.5386L61.3757 24.0879C61.3757 24.0879 62.294 25.8211 61.6714 27.2359C61.6714 27.2359 61.8317 25.0658 61.1778 24.221L60.3241 24.8868C60.3241 24.8868 61.1883 26.5951 60.6614 27.7686C60.6614 27.7686 60.5927 25.2426 60.1408 25.0512C60.1408 25.0512 59.3932 25.7087 59.2807 25.9792C59.2807 25.9792 59.8722 27.2276 59.5036 27.8747C59.5036 27.8747 59.2807 26.1914 59.0871 26.1831C59.0871 26.1831 58.3437 27.2983 58.2666 28.0557C58.3026 27.3496 58.523 26.6653 58.9059 26.0707C58.4774 26.1517 58.0821 26.3564 57.7689 26.6596C57.7689 26.6596 57.8834 25.871 59.0912 25.8023C59.0912 25.8023 59.7056 24.9555 59.8701 24.9056C59.8701 24.9056 58.6685 24.8036 57.9417 25.1261C57.9417 25.1261 58.5831 24.3833 60.0887 24.71L60.9217 24.0234C60.9217 24.0234 59.3432 23.8153 58.6727 24.0462C58.6727 24.0462 59.4453 23.3888 61.1487 23.8673L62.0671 23.3201C62.0671 23.3201 60.7197 23.0309 59.918 23.1349C59.918 23.1349 60.7634 22.6792 62.3357 23.1724L62.9896 22.879C62.9896 22.879 62.0046 22.6855 61.7151 22.6543C61.4257 22.6231 61.4111 22.544 61.4111 22.544C62.0363 22.4414 62.6777 22.5134 63.2645 22.7521C63.2645 22.7521 64.6701 22.2465 64.643 22.1591Z" fill="#514EFF"/>
    <path opacity="0.1" d="M175.97 44.9591C175.97 44.9591 168.057 44.4826 168.981 50.0296C168.981 50.0296 168.796 51.0096 169.685 51.4549C169.685 51.4549 169.7 51.0388 170.497 51.1823C170.782 51.23 171.072 51.244 171.36 51.2239C171.744 51.1956 172.11 51.0438 172.401 50.7912C172.401 50.7912 174.629 49.8715 175.493 46.2345C175.493 46.2345 176.135 45.4418 176.118 45.2379L174.781 45.808C174.781 45.808 175.237 46.7713 174.879 47.5724C174.879 47.5724 174.835 45.8433 174.579 45.8829C174.527 45.8829 173.883 46.2179 173.883 46.2179C173.883 46.2179 174.669 47.897 174.077 49.1162C174.077 49.1162 174.302 47.0481 173.638 46.3385L172.697 46.8878C172.697 46.8878 173.615 48.621 172.992 50.0359C172.992 50.0359 173.153 47.8658 172.499 47.021L171.647 47.6868C171.647 47.6868 172.509 49.395 171.982 50.5685C171.982 50.5685 171.914 48.0426 171.462 47.8512C171.462 47.8512 170.716 48.5087 170.602 48.7792C170.602 48.7792 171.193 50.0276 170.826 50.6746C170.826 50.6746 170.602 48.9914 170.41 48.9831C170.41 48.9831 169.667 50.0983 169.59 50.8557C169.626 50.1493 169.847 49.4648 170.231 48.8707C169.802 48.9519 169.406 49.1566 169.092 49.4595C169.092 49.4595 169.208 48.671 170.414 48.6023C170.414 48.6023 171.028 47.7555 171.193 47.7035C171.193 47.7035 169.994 47.6036 169.265 47.9261C169.265 47.9261 169.906 47.1833 171.412 47.51L172.245 46.8233C172.245 46.8233 170.664 46.6153 169.996 46.8462C169.996 46.8462 170.766 46.1887 172.472 46.6673L173.388 46.1201C173.388 46.1201 172.041 45.8309 171.239 45.9349C171.239 45.9349 172.084 45.4792 173.657 45.9723L174.312 45.679C174.312 45.679 173.325 45.4855 173.036 45.4543C172.746 45.4231 172.732 45.344 172.732 45.344C173.357 45.2401 173.999 45.3121 174.585 45.5521C174.585 45.5521 175.995 45.0465 175.97 44.9591Z" fill="#514EFF"/>
    <path opacity="0.1" d="M77.9706 56.4277C77.9706 56.4277 74.5221 49.2848 70.1323 52.8053C70.1323 52.8053 69.1848 53.1215 69.2306 54.114C69.2306 54.114 69.5951 53.9247 69.8554 54.6904C69.9526 54.961 70.0812 55.2194 70.2385 55.4602C70.4516 55.7866 70.7652 56.0349 71.1319 56.1676C71.1319 56.1676 73.0207 57.6616 76.6212 56.642C76.6212 56.642 77.627 56.8147 77.7915 56.694L76.642 55.8056C76.642 55.8056 76.0173 56.6732 75.1468 56.7502C75.1468 56.7502 76.6379 55.8701 76.4775 55.6662C76.4442 55.6246 75.8528 55.223 75.8528 55.223C75.8528 55.223 74.7678 56.7273 73.4142 56.8043C73.4142 56.8043 75.3301 55.9929 75.6258 55.067L74.6887 54.5135C74.6887 54.5135 73.6204 56.1614 72.0815 56.307C72.0815 56.307 74.0556 55.3895 74.4742 54.4074L73.4788 53.9912C73.4788 53.9912 72.4063 55.5767 71.1236 55.6912C71.1236 55.6912 73.2976 54.3991 73.2435 53.9101C73.2435 53.9101 72.3043 53.5814 72.0128 53.6126C72.0128 53.6126 71.2173 54.7341 70.4676 54.7341C70.4676 54.7341 71.8274 53.7166 71.7441 53.5522C71.7441 53.5522 70.4072 53.4482 69.7033 53.7603C70.3376 53.4453 71.0434 53.3018 71.7504 53.3442C71.4699 53.01 71.0979 52.7648 70.68 52.6388C70.68 52.6388 71.4255 52.3558 72.0732 53.3733C72.0732 53.3733 73.1144 53.4961 73.2372 53.6146C73.2372 53.6146 72.7395 52.5202 72.1044 52.0437C72.1044 52.0437 73.0665 52.2372 73.5059 53.7083L74.5159 54.1078C74.5159 54.1078 73.9349 52.6263 73.3997 52.1582C73.3997 52.1582 74.3493 52.5098 74.7637 54.2389L75.6883 54.7715C75.6883 54.7715 75.2864 53.4544 74.8032 52.8073C74.8032 52.8073 75.6133 53.3234 75.9486 54.9338L76.5254 55.3624C76.5254 55.3624 76.213 54.4074 76.1089 54.1411C76.0048 53.8747 76.0569 53.8206 76.0569 53.8206C76.453 54.3146 76.7039 54.9089 76.7815 55.5372C76.7815 55.5372 77.8957 56.4901 77.9706 56.4277Z" fill="#514EFF"/>
    <path opacity="0.1" d="M157.89 34.8678C157.89 34.8678 154.444 27.7249 150.052 31.2454C150.052 31.2454 149.107 31.5617 149.15 32.5541C149.15 32.5541 149.517 32.3669 149.775 33.1305C149.872 33.4022 150.002 33.6614 150.16 33.9024C150.373 34.2282 150.686 34.4759 151.052 34.6077C151.052 34.6077 152.942 36.1017 156.541 35.0842C156.541 35.0842 157.547 35.2548 157.713 35.1342L156.57 34.2436C156.57 34.2436 155.945 35.1133 155.077 35.1903C155.077 35.1903 156.566 34.3081 156.406 34.1042C156.372 34.0626 155.781 33.661 155.781 33.661C155.781 33.661 154.698 35.1654 153.342 35.2423C153.342 35.2423 155.26 34.4309 155.556 33.5071L154.604 32.9578C154.604 32.9578 153.538 34.6036 151.997 34.7513C151.997 34.7513 153.971 33.8317 154.392 32.8496L153.394 32.4334C153.394 32.4334 152.322 34.021 151.041 34.1334C151.041 34.1334 153.213 32.8413 153.159 32.3544C153.159 32.3544 152.222 32.0236 151.93 32.0568C151.93 32.0568 151.135 33.1762 150.383 33.1762C150.383 33.1762 151.745 32.1588 151.662 31.9944C151.662 31.9944 150.325 31.8904 149.619 32.2025C150.253 31.8874 150.959 31.7439 151.666 31.7864C151.387 31.452 151.015 31.2067 150.598 31.081C150.598 31.081 151.343 30.798 151.991 31.8155C151.991 31.8155 153.032 31.9403 153.155 32.0589C153.155 32.0589 152.657 30.9624 152.02 30.4859C152.02 30.4859 152.982 30.6815 153.421 32.1609L154.434 32.5604C154.434 32.5604 153.853 31.0769 153.317 30.6087C153.317 30.6087 154.267 30.9603 154.679 32.6894L155.606 33.222C155.606 33.222 155.202 31.907 154.719 31.2579C154.719 31.2579 155.531 31.7739 155.864 33.3843L156.441 33.8129C156.441 33.8129 156.131 32.8579 156.025 32.5916C155.918 32.3253 155.972 32.2732 155.972 32.2732C156.367 32.7677 156.618 33.3619 156.695 33.9898C156.695 33.9898 157.826 34.9344 157.89 34.8678Z" fill="#514EFF"/>
    <path opacity="0.1" d="M168.904 70.1996C168.904 70.1996 165.458 63.0546 161.06 66.5751C161.06 66.5751 160.114 66.8914 160.158 67.8838C160.158 67.8838 160.525 67.6966 160.783 68.4602C160.879 68.7319 161.008 68.991 161.166 69.2321C161.378 69.5579 161.691 69.8056 162.057 69.9375C162.057 69.9375 163.948 71.4335 167.549 70.4139C167.549 70.4139 168.552 70.5866 168.719 70.4639L167.57 69.5754C167.57 69.5754 166.945 70.4451 166.074 70.5221C166.074 70.5221 167.563 69.6399 167.403 69.436C167.37 69.3944 166.778 68.9928 166.778 68.9928C166.778 68.9928 165.695 70.4972 164.34 70.5762C164.34 70.5762 166.258 69.7627 166.553 68.8389L165.614 68.2854C165.614 68.2854 164.548 69.9333 163.007 70.0789C163.007 70.0789 164.981 69.1593 165.402 68.1772L164.404 67.7611C164.404 67.7611 163.332 69.3465 162.051 69.461C162.051 69.461 164.225 68.1689 164.171 67.6799C164.171 67.6799 163.232 67.3491 162.94 67.3824C162.94 67.3824 162.145 68.5018 161.393 68.5018C161.393 68.5018 162.755 67.4843 162.672 67.32C162.672 67.32 161.335 67.2159 160.629 67.528C161.264 67.2132 161.97 67.0697 162.678 67.1119C162.398 66.777 162.026 66.5317 161.608 66.4066C161.608 66.4066 162.353 66.1215 163.001 67.141C163.001 67.141 164.042 67.2638 164.165 67.3824C164.165 67.3824 163.667 66.288 163.032 65.8094C163.032 65.8094 163.994 66.005 164.433 67.4844L165.443 67.8838C165.443 67.8838 164.862 66.4003 164.327 65.9343C164.327 65.9343 165.277 66.2838 165.689 68.0149L166.616 68.5455C166.616 68.5455 166.212 67.2305 165.729 66.5813C165.729 66.5813 166.541 67.0973 166.876 68.7099L167.453 69.126C167.453 69.126 167.141 68.171 167.036 67.9046C166.932 67.6383 166.984 67.5863 166.984 67.5863C167.38 68.0802 167.631 68.6747 167.707 69.3029C167.707 69.3029 168.84 70.262 168.904 70.1996Z" fill="#514EFF"/>
    <path opacity="0.1" d="M42.0548 163.158C44.6989 163.158 46.8424 162.918 46.8424 162.623C46.8424 162.328 44.6989 162.088 42.0548 162.088C39.4107 162.088 37.2673 162.328 37.2673 162.623C37.2673 162.918 39.4107 163.158 42.0548 163.158Z" fill="#514EFF"/>
    <path opacity="0.1" d="M10.6704 154.069C13.3145 154.069 15.4579 153.83 15.4579 153.534C15.4579 153.239 13.3145 153 10.6704 153C8.02634 153 5.88289 153.239 5.88289 153.534C5.88289 153.83 8.02634 154.069 10.6704 154.069Z" fill="#514EFF"/>
    <path opacity="0.1" d="M65.9779 169.194C68.6219 169.194 70.7654 168.954 70.7654 168.659C70.7654 168.364 68.6219 168.124 65.9779 168.124C63.3338 168.124 61.1903 168.364 61.1903 168.659C61.1903 168.954 63.3338 169.194 65.9779 169.194Z" fill="#514EFF"/>
    <path opacity="0.1" d="M188.571 156.046C191.215 156.046 193.358 155.806 193.358 155.511C193.358 155.216 191.215 154.976 188.571 154.976C185.927 154.976 183.783 155.216 183.783 155.511C183.783 155.806 185.927 156.046 188.571 156.046Z" fill="#514EFF"/>
    <path opacity="0.1" d="M148.732 153.451C151.376 153.451 153.519 153.212 153.519 152.917C153.519 152.621 151.376 152.382 148.732 152.382C146.088 152.382 143.944 152.621 143.944 152.917C143.944 153.212 146.088 153.451 148.732 153.451Z" fill="#514EFF"/>
    <path opacity="0.1" d="M122.96 166.106C126.087 166.106 128.622 165.671 128.622 165.134C128.622 164.598 126.087 164.163 122.96 164.163C119.832 164.163 117.297 164.598 117.297 165.134C117.297 165.671 119.832 166.106 122.96 166.106Z" fill="#514EFF"/>
    <path d="M125.486 155.368C125.486 155.368 117.601 159.437 121.675 164.231C121.675 164.231 122.058 165.272 123.166 165.199C123.166 165.199 122.945 164.795 123.79 164.473C124.091 164.356 124.377 164.205 124.642 164.021C125 163.774 125.268 163.417 125.404 163.004C125.404 163.004 127.016 160.848 125.767 156.859C125.767 156.859 125.929 155.732 125.788 155.549L124.83 156.861C124.83 156.861 125.819 157.525 125.933 158.501C125.933 158.501 124.892 156.864 124.684 157.045C124.638 157.082 124.209 157.762 124.209 157.762C124.209 157.762 125.925 158.925 126.052 160.436C126.052 160.436 125.086 158.32 124.042 158.018L123.445 159.084C123.445 159.084 125.319 160.224 125.527 161.938C125.527 161.938 124.438 159.764 123.326 159.325L122.887 160.451C122.887 160.451 124.694 161.599 124.861 163.026C124.861 163.026 123.349 160.64 122.805 160.715C122.805 160.715 122.464 161.772 122.51 162.099C122.51 162.099 123.786 162.952 123.809 163.79C123.809 163.79 122.631 162.302 122.449 162.4C122.449 162.4 122.374 163.896 122.737 164.674C122.737 164.674 122.112 163.563 122.214 162.4C121.849 162.723 121.586 163.145 121.458 163.615C121.458 163.615 121.119 162.793 122.237 162.036C122.237 162.036 122.343 160.873 122.472 160.729C122.472 160.729 121.262 161.32 120.748 162.044C120.748 162.044 120.938 160.965 122.578 160.428L122.995 159.288C122.995 159.288 121.354 159.982 120.848 160.594C120.848 160.594 121.212 159.523 123.124 159.009L123.691 157.968C123.691 157.968 122.233 158.459 121.521 159.009C121.521 159.009 122.072 158.087 123.865 157.663L124.326 157.007C124.326 157.007 123.268 157.384 122.972 157.519C122.676 157.654 122.618 157.588 122.618 157.588C123.159 157.131 123.815 156.833 124.515 156.726C124.515 156.726 125.558 155.438 125.486 155.368Z" fill="#514EFF"/>
    <path d="M148.886 78.5014C147.524 74.8041 140.027 74.4566 136.774 75.3992C134.463 76.0712 129.59 76.8286 126.987 77.2094L126.818 77.0491C127.156 76.9493 127.164 76.7038 127.122 76.3396C127.098 75.8598 127.105 75.3788 127.143 74.8998C128.738 75.395 130.159 74.2236 130.159 74.2236C132.033 73.3913 131.529 69.8292 131.887 68.8555C132.156 68.1273 132.445 63.8369 132.574 61.698H132.601L132.616 60.9802C132.635 60.6701 132.643 60.4891 132.643 60.4891C132.643 60.4891 132.826 55.2583 133.184 54.1993C133.518 53.2255 133.788 48.3193 133.83 47.5411C133.83 47.4746 133.83 47.4392 133.83 47.4392L133.803 46.9856C133.822 46.6548 133.83 46.2865 133.828 45.8995C133.828 44.1205 133.642 41.8796 133.62 41.5176C133.62 41.4656 133.62 41.4032 133.62 41.3283C133.634 40.5688 133.538 36.7654 130.3 35.3276C129.107 34.795 127.672 34.1604 126.283 33.5424C125.925 30.4526 125.107 27.3795 125.177 24.2668C125.177 23.7987 125.219 23.3305 125.265 22.8644C125.265 22.9997 125.25 23.137 125.248 23.2806C125.248 23.5823 125.248 23.886 125.248 24.1877C125.371 20.2948 126.843 16.3811 126.706 12.5714C126.693 12.9438 126.666 13.3183 126.631 13.6929C126.703 12.4043 126.568 11.1125 126.231 9.86651C126.106 9.42749 125.937 8.9739 125.577 8.68053C125.237 8.44425 124.846 8.28974 124.436 8.22902C123.451 7.97701 122.45 7.79072 121.439 7.67141C121.286 7.20195 121.058 6.76011 120.765 6.36267C118.653 3.46638 115.525 0.744867 111.827 0.120667C109.971 -0.191433 107.837 0.0686502 106.575 1.39403C106.443 1.51047 106.319 1.63559 106.204 1.76855C105.525 2.57793 105.234 3.64116 104.538 4.44845C104.493 4.50255 104.44 4.55249 104.39 4.6045C103.029 5.82169 100.907 6.07553 99.3927 7.16788C99.1259 7.36398 98.8758 7.58181 98.6451 7.81913C98.035 8.42313 97.488 9.0875 97.0124 9.80201C96.3315 10.7591 95.6318 11.7558 95.4152 12.898C94.98 15.1868 96.5397 17.3569 96.8292 19.6602C97.4747 24.814 91.7668 29.3873 92.8476 34.4725C93.1359 35.7217 93.7728 36.8638 94.6843 37.7662C92.4581 39.7802 90.5631 41.734 90.5631 41.734V41.8505H90.2112L90.2466 42.2666H90.2112L90.4049 44.5242L90.2112 47.8116C90.2112 47.8116 90.2112 47.847 90.2112 47.9136V47.9302V48.0197C90.2112 48.0197 90.2112 48.0551 90.2112 48.1216H90.2237C90.2882 49.3264 90.5444 53.6583 90.8484 54.5717C91.2066 55.6308 91.3878 60.8616 91.3878 60.8616C91.3878 60.8616 91.7834 68.2542 92.1458 69.2321C92.5081 70.21 91.9937 73.7617 93.8742 74.6002C94.4243 75.0218 95.0756 75.2916 95.763 75.3825C95.6672 76.1607 95.7276 76.7246 96.0378 76.9014C96.1707 76.9794 96.3211 77.0224 96.4752 77.0263C96.3476 77.2153 96.2341 77.4135 96.1357 77.6192C95.3893 77.5414 94.6559 77.3687 93.9533 77.1053C91.9334 76.2731 85.23 74.4005 83.2829 75.7175C81.3358 77.0346 76.6503 78.2289 78.814 83.5304C80.9777 88.832 81.9856 88.9651 81.9856 88.9651C82.6516 89.4482 83.2358 90.0347 83.7161 90.7025C84.3658 91.6783 90.4194 93.9109 91.9334 93.9109C92.5768 93.901 93.2203 93.9329 93.8596 94.0066C93.8596 94.0066 92.2166 95.4464 92.4352 96.2828C92.6539 97.1193 91.9354 103.815 91.9354 103.815C91.9354 103.815 93.6014 105.492 94.3136 103.293L94.3386 103.326C94.4718 103.507 95.1924 104.325 96.548 103.293C97.1029 102.872 97.6922 102.499 98.3098 102.177L104.874 101.249C105.558 101.207 106.244 101.202 106.929 101.235C107.97 101.32 108.993 100.704 109.636 100.228C110.996 100.744 112.524 101.308 113.251 101.514C114.726 101.93 121.502 103.746 123.087 103.178C123.416 103.047 123.709 102.839 123.94 102.571L125.452 102.618L124.744 102.76C124.744 102.76 126.123 102.783 127.997 102.808L127.918 102.854L130.269 102.833C133.709 102.864 137.574 102.874 138.082 102.76C138.878 102.583 143.011 102.708 144.23 102.76H144.569C144.569 102.76 149.111 101.855 147.237 97.2503C145.796 93.7132 141.366 92.6853 139.4 92.4024C139.954 92.2921 140.431 92.2068 140.748 92.1569C142.12 91.9488 144.786 90.7004 145.002 90.2739C145.219 89.8473 147.453 88.6093 148.03 87.904C148.607 87.1986 150.254 82.1988 148.886 78.5014ZM111.267 88.8486L111.044 88.9214L110.894 88.9714L110.607 89.2543C110.378 89.1004 110.132 88.9381 109.876 88.7716C110.328 88.7987 110.792 88.8257 111.267 88.8486Z" fill="url(#paint0_linear)"/>
    <path d="M124.544 66.9101C124.544 66.9101 127.73 75.2328 129.542 74.4005C131.354 73.5682 130.862 70.0311 131.208 69.0615C131.554 68.0919 131.937 60.7388 131.937 60.7388C131.937 60.7388 132.112 55.5372 132.458 54.4844C132.778 53.5168 133.039 48.6377 133.082 47.8699C133.082 47.8033 133.082 47.768 133.082 47.768L132.739 41.734L130.794 41.2492L126.283 42.9138L125.658 46.478L125.415 47.8699L125.311 48.4629L124.544 66.9101Z" fill="#BE6F72"/>
    <path opacity="0.1" d="M125.594 65.516C125.594 65.516 128.634 68.0024 129.55 68.2209C130.467 68.4394 131.029 70.3785 131.029 70.3785" fill="black"/>
    <path d="M99.628 67.2742C99.628 67.2742 96.4418 75.5969 94.6301 74.7646C92.8184 73.9323 93.3099 70.3952 92.9642 69.4256C92.6185 68.456 92.2353 61.1029 92.2353 61.1029C92.2353 61.1029 92.0604 55.9013 91.7147 54.8485C91.394 53.881 91.1337 49.0018 91.09 48.234C91.09 48.1674 91.09 48.1321 91.09 48.1321L91.4357 42.0981L93.3807 41.6133L97.8912 43.2779L98.5159 46.8421L98.7596 48.234L98.8637 48.827L99.628 67.2742Z" fill="#BE6F72"/>
    <path d="M120.375 22.7354H113.264V33.8108H120.375V22.7354Z" fill="#3E373A"/>
    <path opacity="0.1" d="M120.375 22.7354H113.264V33.8108H120.375V22.7354Z" fill="black"/>
    <path d="M98.3785 75.5636C98.3785 75.5636 95.9483 78.2331 96.85 78.7178C97.7517 79.2026 103.585 88.2889 103.585 88.2889C103.585 88.2889 122.743 90.6463 126.356 87.1092C129.969 83.572 129.896 77.2531 129.896 77.2531C129.896 77.2531 126.993 77.8773 126.677 77.5381C126.36 77.199 124.621 75.5636 124.621 75.5636C124.621 75.5636 100.044 74.0738 98.3785 75.5636Z" fill="#4B4B5B"/>
    <path opacity="0.02" d="M98.3785 75.5636C98.3785 75.5636 95.9483 78.2331 96.85 78.7178C97.7517 79.2026 103.585 88.2889 103.585 88.2889C103.585 88.2889 122.743 90.6463 126.356 87.1092C129.969 83.572 129.896 77.2531 129.896 77.2531C129.896 77.2531 126.993 77.8773 126.677 77.5381C126.36 77.199 124.621 75.5636 124.621 75.5636C124.621 75.5636 100.044 74.0738 98.3785 75.5636Z" fill="black"/>
    <path d="M132.868 41.8214L126.621 46.815L124.732 46.9523L124.038 47.0023L112.391 47.8554L100.313 46.9731L98.5159 46.8421L96.2252 46.6756L91.4356 42.0981C91.4356 42.0981 94.8258 38.4695 97.7954 36.0205C98.9657 35.053 100.072 34.2707 100.877 33.9627L101.015 33.9149C101.522 33.7174 101.974 33.4021 102.335 32.9952C104.68 30.5796 106.848 24.6185 106.848 24.6185C106.848 24.6185 117.191 19.2795 115.942 26.283C114.692 33.2865 120.592 31.5554 120.592 31.5554L122.537 32.4418L123.305 32.7934L125.265 33.6902L129.686 35.7167C133.155 37.3126 132.868 41.8214 132.868 41.8214Z" fill="#BE6F72"/>
    <path opacity="0.1" d="M111.906 30.3216C117.043 30.3216 121.208 26.1603 121.208 21.0272C121.208 15.8941 117.043 11.7329 111.906 11.7329C106.769 11.7329 102.604 15.8941 102.604 21.0272C102.604 26.1603 106.769 30.3216 111.906 30.3216Z" fill="black"/>
    <path opacity="0.1" d="M132.882 48.4421H91.09C91.09 48.3755 91.09 48.3402 91.09 48.3402L91.4357 42.3062C91.4357 42.3062 94.8259 38.6775 97.7954 36.2286L124.034 35.1883L125.254 33.9024L129.675 35.929C133.147 37.5228 132.868 42.0316 132.868 42.0316C132.868 42.0316 133.343 47.2561 132.882 48.4421Z" fill="black"/>
    <path d="M132.882 48.234H91.09C91.09 48.1675 91.09 48.1321 91.09 48.1321L91.4357 42.0982C91.4357 42.0982 94.8259 38.4695 97.7954 36.0205L124.034 34.9802L125.254 33.6943L129.675 35.7209C133.147 37.3147 132.868 41.8235 132.868 41.8235C132.868 41.8235 133.343 47.0481 132.882 48.234Z" fill="#E7C7CA"/>
    <path opacity="0.1" d="M105.207 31.314C105.207 31.314 111.8 39.7074 120.581 31.1413C129.363 22.5752 121.554 50.2481 121.554 50.2481L102.604 52.4952L105.207 31.314Z" fill="black"/>
    <path d="M105.207 31.7302C105.207 31.7302 111.8 40.1236 120.581 31.5575C129.363 22.9914 121.554 50.6642 121.554 50.6642L102.604 52.9113L105.207 31.7302Z" fill="#E7C7CA"/>
    <path opacity="0.1" d="M123.295 33.2033L123.992 43.8334L124.74 47.3705L125.311 50.0754C125.311 50.0754 126.768 70.8821 126.352 71.9224C125.935 72.9627 126.56 73.795 126.648 74.3484C126.735 74.9019 126.56 76.2918 126.629 76.916C126.698 77.5402 126.629 77.8169 125.034 77.5943C123.439 77.3717 121.215 76.9847 121.215 76.9847C121.215 76.9847 115.592 77.4008 113.649 76.7079C111.706 76.0151 108.026 76.013 108.026 76.013C108.026 76.013 102.473 76.1524 100.669 75.9443C98.8658 75.7363 97.8912 78.1644 96.7126 77.4694C95.5339 76.7745 98.0995 70.0498 98.9324 68.1064C99.7654 66.1631 97.8225 61.2402 97.8225 61.2402L100.321 47.3892L100.877 44.2495V34.3788L101.015 34.331C101.522 34.1335 101.974 33.8182 102.335 33.4113L102.96 43.3444L122.535 44.0394V32.86" fill="black"/>
    <path d="M123.295 32.7871L123.992 43.4173L124.74 46.9544L125.311 49.6593C125.311 49.6593 126.768 70.4659 126.352 71.5063C125.935 72.5466 126.56 73.3789 126.648 73.9323C126.735 74.4858 126.56 75.8757 126.629 76.4999C126.698 77.1241 126.629 77.4008 125.034 77.1782C123.439 76.9555 121.215 76.5685 121.215 76.5685C121.215 76.5685 115.592 76.9846 113.649 76.2918C111.706 75.5989 108.026 75.5968 108.026 75.5968C108.026 75.5968 102.473 75.7363 100.669 75.5282C98.8658 75.3201 97.8912 77.7483 96.7126 77.0533C95.5339 76.3584 98.0995 69.6337 98.9324 67.6903C99.7654 65.747 97.8225 60.8241 97.8225 60.8241L100.321 46.9731L100.877 43.8334V33.9627L101.015 33.9148C101.522 33.7173 101.974 33.4021 102.335 32.9952L102.96 42.9283L122.535 43.6232V32.4438" fill="#E7C7CA"/>
    <path opacity="0.1" d="M125.546 10.6031C125.427 10.1682 125.263 9.71671 124.921 9.42542C124.595 9.19145 124.218 9.03749 123.822 8.97599C122.872 8.72644 121.906 8.54153 120.931 8.42254C120.792 7.96053 120.581 7.52315 120.307 7.12628C118.266 4.24664 115.246 1.53137 111.694 0.917575C109.834 0.595072 107.679 0.884284 106.488 2.34907C105.834 3.15429 105.552 4.22167 104.892 5.01233C103.62 6.54786 101.323 6.7372 99.7196 7.92526C98.8637 8.54946 98.2431 9.45455 97.6371 10.3326C96.9812 11.2835 96.3065 12.2739 96.0982 13.4099C95.6817 15.6799 97.1832 17.8438 97.4601 20.1346C98.0849 25.2593 92.5872 29.8055 93.6264 34.8616C94.2324 37.8099 96.9583 39.8864 99.7779 40.9392C100.771 41.3116 101.906 41.682 102.371 42.6349C102.579 43.0511 102.614 43.5317 102.81 43.952C103.468 45.3544 105.632 45.4085 106.794 44.3869C107.956 43.3652 108.322 41.7132 108.46 40.1714C109.018 33.4384 106.319 26.7865 106.633 20.0368C106.727 17.9957 107.302 15.6799 109.132 14.7561C111.596 13.5077 114.559 15.5884 117.27 15.1909C118.553 18.3102 118.826 21.7527 118.049 25.0346C117.618 26.8302 116.873 28.5717 116.818 30.4235C116.737 33.2428 118.26 35.8187 119.576 38.3113C119.858 38.7774 120.047 39.294 120.132 39.8323C120.152 40.3784 120.051 40.9222 119.834 41.424C119.09 43.4235 117.808 45.2795 117.662 47.408C117.619 47.6564 117.675 47.9118 117.818 48.1196C117.965 48.2583 118.154 48.3433 118.355 48.3609C120.604 48.7459 122.549 46.7547 123.647 44.7551C124.87 42.5467 125.583 40.0925 125.733 37.5727C125.96 33.3364 124.44 29.1689 124.534 24.9285C124.642 20.1076 126.823 15.2534 125.546 10.6031Z" fill="black"/>
    <path d="M125.754 10.395C125.636 9.96015 125.471 9.50865 125.129 9.21735C124.803 8.98338 124.427 8.82942 124.03 8.76793C123.08 8.51837 122.114 8.33346 121.14 8.21447C121 7.75246 120.789 7.31508 120.515 6.91821C118.474 4.03857 115.454 1.3233 111.902 0.709506C110.042 0.387003 107.887 0.676215 106.696 2.141C106.042 2.94622 105.761 4.0136 105.101 4.80426C103.828 6.33979 101.531 6.52913 99.9278 7.71719C99.0719 8.34139 98.4514 9.24648 97.8454 10.1245C97.1894 11.0754 96.5147 12.0658 96.3065 13.2018C95.89 15.4718 97.3914 17.6357 97.6684 19.9265C98.2931 25.0512 92.7955 29.5975 93.8346 34.6535C94.4406 37.6018 97.1665 39.6783 99.9861 40.7311C100.979 41.1036 102.114 41.4739 102.579 42.4269C102.787 42.843 102.822 43.3236 103.018 43.7439C103.676 45.1463 105.84 45.2004 107.002 44.1788C108.164 43.1572 108.53 41.5051 108.668 39.9634C109.226 33.2303 106.527 26.5784 106.842 19.8288C106.935 17.7876 107.51 15.4718 109.34 14.548C111.804 13.2996 114.767 15.3803 117.479 14.9829C118.762 18.1021 119.034 21.5446 118.257 24.8265C117.826 26.6221 117.081 28.3636 117.027 30.2154C116.946 33.0347 118.468 35.6106 119.784 38.1032C120.066 38.5694 120.255 39.086 120.34 39.6242C120.361 40.1703 120.259 40.7142 120.042 41.2159C119.299 43.2154 118.016 45.0714 117.87 47.1999C117.827 47.4484 117.883 47.7037 118.026 47.9115C118.173 48.0502 118.362 48.1353 118.564 48.1529C120.813 48.5378 122.758 46.5466 123.855 44.5471C125.079 42.3386 125.792 39.8844 125.942 37.3646C126.169 33.1284 124.648 28.9608 124.742 24.7204C124.85 19.8995 127.031 15.0453 125.754 10.395Z" fill="#3E373A"/>
    <path d="M121.154 102.521L129.415 102.785L128.23 96.6636L121.902 97.2649L121.154 102.521Z" fill="#C3C7D9"/>
    <path d="M146.751 88.0122C146.195 88.7051 144.044 89.9535 143.836 90.3696C143.628 90.7857 141.06 92.0341 139.74 92.2422C138.42 92.4503 134.257 93.3533 133.493 93.8381C132.945 94.1876 128.549 95.2945 125.661 95.9083C124.878 96.0933 124.086 96.2357 123.289 96.3349C122.039 96.4035 108.366 91.7574 108.366 91.7574L111.002 89.0526L111.148 89.0026C111.894 88.7509 115.338 87.5878 117.25 87.0343C119.403 86.4101 121.902 83.8446 121.902 83.8446C121.902 83.8446 125.579 82.5962 126.067 82.4568C126.554 82.3174 124.817 77.6026 124.817 77.6026C124.817 77.6026 132.799 76.4957 135.923 75.5573C139.046 74.619 146.266 74.9664 147.584 78.643C148.903 82.3195 147.316 87.3194 146.751 88.0122Z" fill="#4B4B5B"/>
    <path d="M110.377 99.7326C110.377 99.7326 108.782 101.397 107.185 101.26C105.588 101.122 100.003 101.676 100.003 101.676C98.9907 102.079 98.0429 102.628 97.1894 103.305C95.8837 104.333 95.1903 103.513 95.0612 103.338L95.0383 103.305C94.3427 105.492 92.7476 103.825 92.7476 103.825C92.7476 103.825 93.441 97.1671 93.2286 96.3349C93.0162 95.5026 94.6009 94.0732 94.6009 94.0732L96.4751 93.5967L101.223 92.3816L108.026 94.739L110.377 99.7326Z" fill="#E7C7CA"/>
    <path opacity="0.1" d="M96.4668 93.5967L95.0612 103.338L95.0383 103.305C94.3427 105.492 92.7476 103.825 92.7476 103.825C92.7476 103.825 93.441 97.1671 93.2286 96.3349C93.0162 95.5026 94.601 94.0732 94.601 94.0732L96.4668 93.5967Z" fill="black"/>
    <path opacity="0.1" d="M106.292 65.8864C106.292 65.8864 109.969 67.1348 113.164 65.8864H106.292Z" fill="black"/>
    <path opacity="0.1" d="M118.847 68.2459C118.847 68.2459 120.373 69.0074 121.554 68.2459H118.847Z" fill="black"/>
    <path opacity="0.1" d="M118.847 70.0519C118.847 70.0519 121.414 70.3952 121.902 69.7023L118.847 70.0519Z" fill="black"/>
    <path opacity="0.1" d="M118.014 73.9323C118.014 73.9323 122.837 73.3081 124.034 72.4759L118.014 73.9323Z" fill="black"/>
    <path opacity="0.1" d="M103.297 72.4759C103.297 72.4759 106.004 74.001 108.018 73.9323L103.297 72.4759Z" fill="black"/>
    <path opacity="0.1" d="M125.658 95.9083C124.876 96.0932 124.084 96.2356 123.287 96.3348C122.037 96.4035 108.364 91.7574 108.364 91.7574L111 89.0525L111.146 89.0026C111.562 89.296 111.904 89.5477 112.148 89.7392C113.295 90.6422 114.403 89.4624 114.819 89.4624C115.236 89.4624 118.845 92.444 118.845 92.444C118.845 92.444 122.177 93.2076 122.733 93.9005C123.289 94.5933 125.232 94.456 125.577 94.9408C125.681 95.0906 125.694 95.4589 125.658 95.9083Z" fill="black"/>
    <path d="M100.003 77.8856C100.003 77.8856 96.6334 78.0791 94.6905 77.2614C92.7476 76.4437 86.292 74.5565 84.4178 75.8819C82.5436 77.2073 78.031 78.3787 80.1134 83.6511C82.1959 88.9235 83.1684 89.0609 83.1684 89.0609C83.8127 89.5436 84.3752 90.1267 84.8343 90.7878C85.4591 91.7595 91.2899 93.9775 92.7476 93.9775C94.2053 93.9775 96.7729 93.9775 100.382 96.4743C103.991 98.9711 107.254 99.2499 107.254 99.2499C107.254 99.2499 111.835 101.122 113.262 101.539C114.688 101.955 121.206 103.757 122.735 103.203C124.263 102.65 125.234 99.1792 125.234 99.1792C125.234 99.1792 125.927 96.0581 125.579 95.5734C125.232 95.0886 123.289 95.2259 122.735 94.533C122.181 93.8402 118.847 93.0766 118.847 93.0766C118.847 93.0766 115.246 90.0929 114.83 90.0929C114.413 90.0929 113.305 91.2705 112.158 90.3696C109.872 88.6781 107.471 87.1485 104.971 85.7921C102.335 84.4043 100.003 77.8856 100.003 77.8856Z" fill="#4B4B5B"/>
    <path opacity="0.1" d="M93.2286 79.8976C93.8286 79.7751 94.4487 79.7927 95.0407 79.949C95.6327 80.1053 96.1806 80.396 96.6417 80.7985C98.3077 82.1863 103.914 84.9723 103.914 84.9723" fill="black"/>
    <path opacity="0.1" d="M134.882 79.8102C134.882 79.8102 127.453 80.9338 126.067 82.4589L134.882 79.8102Z" fill="black"/>
    <path d="M143.42 102.785H143.093C141.918 102.743 137.939 102.618 137.172 102.785C136.271 102.993 124.33 102.785 124.33 102.785L126.664 102.3C126.664 102.3 125.798 99.2665 126.348 99.0148C126.348 99.0148 123.224 96.9591 125.579 95.5713C127.935 94.1834 130.473 94.7681 130.473 94.7681L136.385 92.7665L137.52 92.3816C137.52 92.3816 144.184 92.7291 145.987 97.3065C147.791 101.884 143.42 102.785 143.42 102.785Z" fill="#E7C7CA"/>
    <path opacity="0.1" d="M143.42 102.785H143.093C145.031 101.187 149.417 96.3224 136.385 92.7769L137.52 92.392C137.52 92.392 144.184 92.7395 145.987 97.3169C147.791 101.894 143.42 102.785 143.42 102.785Z" fill="black"/>
    <path d="M131.169 97.3919C131.37 97.3919 131.533 97.2288 131.533 97.0277C131.533 96.8266 131.37 96.6636 131.169 96.6636C130.967 96.6636 130.804 96.8266 130.804 97.0277C130.804 97.2288 130.967 97.3919 131.169 97.3919Z" fill="#4B4B5B"/>
    <path d="M129.051 97.9932C129.252 97.9932 129.415 97.8301 129.415 97.629C129.415 97.4279 129.252 97.2649 129.051 97.2649C128.849 97.2649 128.686 97.4279 128.686 97.629C128.686 97.8301 128.849 97.9932 129.051 97.9932Z" fill="#4B4B5B"/>
    <g opacity="0.1">
      <path opacity="0.1" d="M118.732 20.6839C118.813 18.3953 118.406 16.1158 117.537 13.9966C114.83 14.4003 111.864 12.3134 109.399 13.5618C107.575 14.4856 107.002 16.8014 106.9 18.8425C106.875 19.3814 106.871 19.9203 106.881 20.4592C106.881 20.2677 106.881 20.0742 106.9 19.8828C106.996 17.8417 107.568 15.5259 109.399 14.6021C111.864 13.3537 114.826 15.4344 117.537 15.0369C118.273 16.832 118.678 18.745 118.732 20.6839Z" fill="black"/>
      <path opacity="0.1" d="M97.7538 20.3031C97.7894 19.8497 97.7804 19.394 97.7267 18.9424C97.506 17.1114 96.5043 15.3615 96.3231 13.5763C96.0899 15.7298 97.4622 17.798 97.7267 19.9827C97.7538 20.0951 97.7538 20.1949 97.7538 20.3031Z" fill="black"/>
      <path opacity="0.1" d="M108.726 38.975C108.597 40.5189 108.233 42.1688 107.06 43.1925C105.888 44.2162 103.728 44.16 103.076 42.7577C102.868 42.3415 102.837 41.8567 102.635 41.4406C102.173 40.4877 101.036 40.1173 100.042 39.7449C97.2207 38.69 94.4989 36.6239 93.8929 33.6672C93.8388 33.3994 93.8019 33.1283 93.7826 32.8558C93.7314 33.4751 93.7685 34.0986 93.8929 34.7076C94.4989 37.6559 97.2248 39.7303 100.042 40.7852C101.036 41.1576 102.173 41.528 102.635 42.4809C102.843 42.8971 102.879 43.3777 103.076 43.798C103.732 45.2004 105.896 45.2545 107.06 44.2329C108.224 43.2113 108.587 41.5592 108.726 40.0153C108.79 39.2028 108.811 38.3874 108.791 37.5726C108.791 38.045 108.764 38.511 108.726 38.975Z" fill="black"/>
      <path opacity="0.1" d="M124.811 23.7342C124.811 24.0358 124.811 24.3355 124.811 24.6351C124.927 20.765 126.348 16.8742 126.208 13.0853C126.1 16.5891 124.89 20.172 124.811 23.7342Z" fill="black"/>
      <path opacity="0.1" d="M120.342 39.3891C120.393 39.1422 120.409 38.8893 120.39 38.6379C120.306 38.0995 120.117 37.5827 119.834 37.117C118.63 34.8282 117.258 32.4854 117.095 29.9449C117.095 30.0531 117.081 30.153 117.079 30.2695C116.995 33.0867 118.518 35.6647 119.834 38.1573C120.058 38.5434 120.228 38.9576 120.342 39.3891Z" fill="black"/>
      <path opacity="0.1" d="M126.008 36.3784C125.853 38.8991 125.135 41.3532 123.907 43.5608C122.808 45.5603 120.865 47.5515 118.614 47.1666C118.412 47.1492 118.222 47.0633 118.076 46.9232C118.034 46.8755 118.001 46.8205 117.978 46.7609C117.953 46.9232 117.933 47.0875 117.92 47.254C117.877 47.5018 117.933 47.7566 118.076 47.9635C118.222 48.1037 118.412 48.1896 118.614 48.2069C120.865 48.5919 122.808 46.6007 123.907 44.6011C125.135 42.3935 125.853 39.9395 126.008 37.4187C126.033 36.9318 126.035 36.447 126.021 35.9622C126.017 36.1016 126.017 36.2389 126.008 36.3784Z" fill="black"/>
    </g>
    <path opacity="0.1" d="M126.348 99.0148C126.348 99.0148 131.618 101.224 135.094 96.3349" stroke="black" stroke-miterlimit="10"/>
    <path opacity="0.1" d="M127.385 102.876C127.385 102.876 131.689 100.08 137.172 102.785" stroke="black" stroke-miterlimit="10"/>
    <path opacity="0.1" d="M98.5722 102.242C98.5722 102.242 100.38 98.168 105.207 101.274" stroke="black" stroke-miterlimit="10"/>
    <path opacity="0.1" d="M92.7122 41.9941L96.3981 38.665C96.3981 38.665 110.69 37.7287 111.281 42.5829C111.281 42.5829 116.348 36.8278 127.004 38.1095L131.512 41.6965L119.051 47.1604L106.941 51.3571L98.0224 47.3684L92.7122 41.9941Z" fill="black"/>
    <path d="M92.7122 42.2021L96.3981 38.8731C96.3981 38.8731 110.69 37.9368 111.281 42.791C111.281 42.791 116.348 37.0359 127.004 38.3175L131.512 41.9046L119.051 47.3684L106.941 51.5652L98.0224 47.5765L92.7122 42.2021Z" fill="#D5D6DB"/>
    <path opacity="0.1" d="M91.0816 42.6183L92.7122 62.1079L109.996 62.9756L109.247 43.5692L109.232 43.2425L91.0816 42.6183Z" fill="black"/>
    <path d="M91.0816 42.2022L92.7122 61.6918L109.996 62.5594L109.247 43.153L109.232 42.8264L91.0816 42.2022Z" fill="#514EFF"/>
    <path opacity="0.1" d="M132.303 42.2022L114.474 44.8738V64.4507L131.897 61.9352L132.303 42.2022Z" fill="black"/>
    <path d="M132.303 41.786L114.474 44.4576V64.0346L131.897 61.5191L132.303 41.786Z" fill="#514EFF"/>
    <path opacity="0.3" d="M128.099 46.5632L118.468 47.6327L118.678 50.9118L128.093 49.884L128.099 46.5632Z" fill="white"/>
    <path d="M93.6493 72.1284L94.6301 74.7646C94.6301 74.7646 96.0878 76.013 97.683 75.3888C99.2781 74.7646 100.669 74.4546 101.363 73.847C102.056 73.2395 103.029 70.1872 103.029 70.1872C103.029 70.1872 104.001 66.8581 104.971 66.0258C105.942 65.1936 108.512 53.727 104.971 54.8485C101.431 55.97 98.7242 66.3733 98.7242 66.3733C98.7242 66.3733 98.0995 67.1348 97.1978 67.2056C96.2961 67.2763 94.4906 67.0662 94.1428 67.8298C93.795 68.5934 92.6081 70.6033 93.6493 72.1284Z" fill="#BE6F72"/>
    <path opacity="0.1" d="M114.474 44.8716C113.561 45.0772 112.612 45.0664 111.704 44.8403C110.797 44.6141 109.954 44.1788 109.245 43.5692L109.996 62.9734C109.996 62.9734 111.766 64.8877 114.474 64.4507V44.8716Z" fill="black"/>
    <path d="M114.474 44.4555C113.561 44.661 112.612 44.6503 111.704 44.4241C110.797 44.198 109.954 43.7627 109.245 43.153L109.996 62.5573C109.996 62.5573 111.766 64.4715 114.474 64.0346V44.4555Z" fill="#514EFF"/>
    <path opacity="0.1" d="M114.474 44.4555C113.561 44.661 112.612 44.6503 111.704 44.4241C110.797 44.198 109.954 43.7627 109.245 43.153L109.996 62.5573C109.996 62.5573 111.766 64.4715 114.474 64.0346V44.4555Z" fill="black"/>
    <path opacity="0.1" d="M114.89 42.2687C114.89 42.2687 122.143 40.0528 124.034 40.3649L114.89 42.2687Z" fill="black"/>
    <path opacity="0.1" d="M106.777 41.3012C106.777 41.3012 99.7467 39.6367 98.5722 40.109L106.777 41.3012Z" fill="black"/>
    <path opacity="0.1" d="M119.463 42.5455C119.463 42.5455 124.313 40.7686 126.067 41.6133L119.463 42.5455Z" fill="black"/>
    <path opacity="0.1" d="M117.02 87.1196C117.772 86.5557 118.572 86.0592 119.411 85.6361C120.661 85.0348 122.951 83.4743 122.951 83.4743" fill="black"/>
    <path opacity="0.1" d="M98.5722 65.8864C98.5722 65.8864 95.5297 68.3728 94.6155 68.5913C93.7013 68.8097 93.137 70.7489 93.137 70.7489" fill="black"/>
    <path d="M130.515 71.758L129.544 74.4005C129.544 74.4005 128.087 75.6489 126.489 75.0247C124.892 74.4005 123.505 74.0905 122.81 73.4829C122.114 72.8754 121.144 69.823 121.144 69.823C121.144 69.823 120.173 66.494 119.201 65.6617C118.228 64.8294 115.661 53.3629 119.201 54.4844C122.741 55.6058 125.448 66.0092 125.448 66.0092C125.448 66.0092 126.073 66.7707 126.975 66.8414C127.876 66.9122 129.682 66.702 130.029 67.4656C130.377 68.2292 131.556 70.2392 130.515 71.758Z" fill="#BE6F72"/>
    <path opacity="0.1" d="M128.813 66.8976C128.813 66.8976 130.802 68.1751 130.794 69.7023L128.813 66.8976Z" fill="black"/>
    <path d="M111.939 29.8659C117.077 29.8659 121.242 25.7047 121.242 20.5716C121.242 15.4384 117.077 11.2772 111.939 11.2772C106.802 11.2772 102.637 15.4384 102.637 20.5716C102.637 25.7047 106.802 29.8659 111.939 29.8659Z" fill="#BE6F72"/>
    <path d="M106.098 18.0768C107.227 17.9 108.216 17.2446 109.295 16.868C111.708 16.0211 114.378 16.6016 116.821 17.3652C117.758 17.6586 118.709 17.9894 119.692 17.9894C120.675 17.9894 121.718 17.5879 122.22 16.741C122.683 15.9629 122.593 14.9517 122.204 14.134C121.814 13.3163 121.162 12.6588 120.504 12.0387C118.339 9.99551 115.652 8.08546 112.681 8.29353C111.485 8.37883 110.342 8.80537 109.243 9.27768C107.858 9.87379 106.51 10.5519 105.207 11.3084C104.205 11.8889 102.35 12.665 101.773 13.7261C100.461 16.1168 104.057 18.3972 106.098 18.0768Z" fill="#3E373A"/>
    <path opacity="0.1" d="M122.22 15.8672C121.718 16.714 120.675 17.1156 119.692 17.1156C118.709 17.1156 117.758 16.7972 116.818 16.5038C114.376 15.7402 111.708 15.1576 109.293 16.0066C108.216 16.3832 107.225 17.0469 106.096 17.2133C104.451 17.4714 101.802 16.0399 101.515 14.2193C101.192 16.3228 104.263 18.1247 106.096 17.8375C107.225 17.6607 108.216 17.0053 109.293 16.6308C111.708 15.7818 114.376 16.3644 116.818 17.128C117.758 17.4214 118.707 17.7522 119.692 17.7398C120.677 17.7273 121.718 17.3403 122.22 16.4914C122.48 16.0295 122.583 15.4956 122.512 14.9704C122.479 15.2866 122.38 15.5923 122.22 15.8672Z" fill="black"/>
    <path d="M197.711 128.629C197.711 128.629 198.946 130.241 197.14 132.678C195.335 135.114 193.848 137.17 194.448 138.689C194.448 138.689 197.171 134.166 199.387 134.101C201.603 134.037 200.145 131.348 197.711 128.629Z" fill="#514EFF"/>
    <path opacity="0.1" d="M197.711 128.629C197.818 128.785 197.903 128.955 197.963 129.135C200.124 131.673 201.278 134.043 199.198 134.101C197.261 134.157 194.939 137.617 194.383 138.489C194.401 138.56 194.422 138.629 194.448 138.697C194.448 138.697 197.171 134.174 199.387 134.109C201.603 134.045 200.145 131.348 197.711 128.629Z" fill="black"/>
    <path d="M200.001 130.685C200.001 131.253 199.937 131.712 199.86 131.712C199.783 131.712 199.716 131.253 199.716 130.685C199.716 130.117 199.795 130.385 199.874 130.385C199.954 130.385 200.001 130.117 200.001 130.685Z" fill="#FFD037"/>
    <path d="M200.791 131.363C200.293 131.633 199.858 131.798 199.82 131.729C199.783 131.66 200.156 131.384 200.653 131.105C201.151 130.826 200.955 131.03 200.993 131.105C201.03 131.18 201.29 131.09 200.791 131.363Z" fill="#FFD037"/>
    <path d="M191.184 128.629C191.184 128.629 189.949 130.241 191.755 132.678C193.56 135.114 195.047 137.17 194.445 138.689C194.445 138.689 191.724 134.166 189.506 134.101C187.288 134.037 188.756 131.348 191.184 128.629Z" fill="#514EFF"/>
    <path opacity="0.1" d="M191.184 128.629C191.077 128.785 190.992 128.955 190.932 129.135C188.771 131.673 187.617 134.043 189.698 134.101C191.632 134.157 193.956 137.617 194.512 138.489C194.495 138.56 194.472 138.629 194.445 138.697C194.445 138.697 191.724 134.174 189.506 134.109C187.288 134.045 188.756 131.348 191.184 128.629Z" fill="black"/>
    <path d="M188.89 130.685C188.89 131.253 188.952 131.712 189.031 131.712C189.11 131.712 189.175 131.253 189.175 130.685C189.175 130.117 189.094 130.385 189.017 130.385C188.94 130.385 188.89 130.117 188.89 130.685Z" fill="#FFD037"/>
    <path d="M188.102 131.363C188.6 131.633 189.035 131.798 189.073 131.729C189.11 131.66 188.738 131.384 188.24 131.105C187.742 130.826 187.938 131.03 187.9 131.105C187.863 131.18 187.603 131.09 188.102 131.363Z" fill="#FFD037"/>
    <path opacity="0.1" d="M194.448 151.031C201.578 151.031 207.359 150.146 207.359 149.053C207.359 147.96 201.578 147.074 194.448 147.074C187.317 147.074 181.536 147.96 181.536 149.053C181.536 150.146 187.317 151.031 194.448 151.031Z" fill="#514EFF"/>
    <path d="M201.093 136.515L201.03 137.018L200.943 137.73L200.907 138.027L200.82 138.739L200.782 139.036L200.697 139.746L199.708 147.84C199.62 148.562 198.44 149.126 197.013 149.126H191.88C190.453 149.126 189.275 148.562 189.185 147.84L188.196 139.746L188.109 139.036L188.073 138.739L187.986 138.027L187.948 137.73L187.863 137.018L187.8 136.515C187.753 136.098 188.39 135.761 189.198 135.761H199.697C200.503 135.761 201.143 136.105 201.093 136.515Z" fill="#65617D"/>
    <path d="M201.03 137.018L200.945 137.73H187.95L187.863 137.018H201.03Z" fill="#9D9CB5"/>
    <path d="M200.907 138.027L200.822 138.739H188.073L187.986 138.027H200.907Z" fill="#9D9CB5"/>
    <path d="M200.784 139.036L200.697 139.748H188.196L188.111 139.036H200.784Z" fill="#9D9CB5"/>
    <path d="M191.362 14.3613C191.362 14.3613 183.448 13.8848 184.373 19.4319C184.373 19.4319 184.188 20.4119 185.077 20.8572C185.077 20.8572 185.091 20.441 185.889 20.5846C186.174 20.6334 186.463 20.6474 186.751 20.6262C187.139 20.5996 187.508 20.4478 187.803 20.1934C187.803 20.1934 190.029 19.2738 190.895 15.6368C190.895 15.6368 191.537 14.844 191.52 14.6401L190.179 15.2102C190.179 15.2102 190.635 16.1736 190.277 16.9746C190.277 16.9746 190.233 15.2456 189.975 15.2851C189.923 15.2851 189.281 15.6201 189.281 15.6201C189.281 15.6201 190.066 17.2992 189.473 18.5185C189.473 18.5185 189.698 16.4503 189.036 15.7408L188.094 16.2901C188.094 16.2901 189.013 18.0233 188.39 19.4381C188.39 19.4381 188.55 17.268 187.896 16.4233L187.043 17.0891C187.043 17.0891 187.907 18.7973 187.38 19.9708C187.38 19.9708 187.311 17.4449 186.859 17.2534C186.859 17.2534 186.112 17.9109 185.999 18.1814C185.999 18.1814 186.591 19.4298 186.222 20.0769C186.222 20.0769 185.999 18.3936 185.806 18.3853C185.806 18.3853 185.062 19.5006 184.985 20.2579C185.021 19.5519 185.242 18.8675 185.625 18.273C185.196 18.354 184.801 18.5587 184.488 18.8618C184.488 18.8618 184.602 18.0732 185.81 18.0046C185.81 18.0046 186.424 17.1577 186.589 17.1078C186.589 17.1078 185.387 17.0058 184.66 17.3283C184.66 17.3283 185.302 16.5855 186.807 16.9122L187.64 16.2256C187.64 16.2256 186.062 16.0175 185.391 16.2485C185.391 16.2485 186.164 15.591 187.867 16.0695L188.786 15.5223C188.786 15.5223 187.438 15.2331 186.637 15.3371C186.637 15.3371 187.482 14.8815 189.054 15.3746L189.708 15.0812C189.708 15.0812 188.723 14.8877 188.434 14.8565C188.144 14.8253 188.13 14.7462 188.13 14.7462C188.755 14.6437 189.396 14.7157 189.983 14.9543C189.983 14.9543 191.389 14.4487 191.362 14.3613Z" fill="#514EFF"/>
    <path d="M176.984 94.249C176.984 94.249 174.476 101.769 180.073 102.312C180.073 102.312 180.972 102.745 181.632 102.001C181.632 102.001 181.234 101.879 181.579 101.146C181.7 100.884 181.788 100.608 181.842 100.324C181.917 99.9421 181.866 99.5462 181.697 99.1961C181.697 99.1961 181.384 96.8078 178.096 95.0297C178.096 95.0297 177.496 94.205 177.295 94.1683L177.498 95.6113C177.498 95.6113 178.547 95.4201 179.228 95.9734C179.228 95.9734 177.546 95.5681 177.518 95.8278C177.504 95.8781 177.662 96.5843 177.662 96.5843C177.662 96.5843 179.487 96.2606 180.511 97.1494C180.511 97.1494 178.572 96.3969 177.715 96.8529L178.002 97.9043C178.002 97.9043 179.914 97.4658 181.119 98.4334C181.119 98.4334 179.064 97.7169 178.079 98.1298L178.501 99.1268C178.501 99.1268 180.375 98.7342 181.372 99.5468C181.372 99.5468 178.915 98.9595 178.613 99.3464C178.613 99.3464 179.054 100.239 179.286 100.417C179.286 100.417 180.645 100.169 181.175 100.693C181.175 100.693 179.491 100.472 179.433 100.657C179.433 100.657 180.318 101.664 181.03 101.934C180.357 101.717 179.753 101.327 179.278 100.803C179.245 101.238 179.341 101.673 179.552 102.054C179.552 102.054 178.82 101.739 179.067 100.555C179.067 100.555 178.408 99.742 178.402 99.5702C178.402 99.5702 177.992 100.704 178.116 101.49C178.116 101.49 177.564 100.678 178.27 99.3084L177.822 98.3261C177.822 98.3261 177.212 99.7969 177.262 100.504C177.262 100.504 176.827 99.588 177.73 98.0664L177.439 97.0377C177.439 97.0377 176.811 98.2643 176.704 99.0657C176.704 99.0657 176.483 98.1311 177.366 96.74L177.252 96.0325C177.252 96.0325 176.81 96.9338 176.705 97.2053C176.6 97.4769 176.52 97.4705 176.52 97.4705C176.582 96.8401 176.818 96.2392 177.2 95.7341C177.2 95.7341 177.076 94.2455 176.984 94.249Z" fill="#514EFF"/>
  </g>
  <defs>
    <linearGradient id="paint0_linear" x1="113.834" y1="104.433" x2="113.834" y2="-1.2223e-05" gradientUnits="userSpaceOnUse">
      <stop stop-color="#808080" stop-opacity="0.25"/>
      <stop offset="0.54" stop-color="#808080" stop-opacity="0.12"/>
      <stop offset="1" stop-color="#808080" stop-opacity="0.1"/>
    </linearGradient>
    <clipPath id="clip0">
      <rect width="213" height="169.191" fill="white"/>
    </clipPath>
  </defs>
</svg>
