<svg width="558" height="508" viewBox="0 0 558 508" fill="none" xmlns="http://www.w3.org/2000/svg">
<path opacity="0.1" d="M196.638 18.7194C214.375 2.93158 242.216 -0.304927 267.562 0.952028C347.163 4.91113 419.016 43.3363 481.171 86.8075C503.675 102.541 525.826 119.501 540.43 141.172C570.184 185.287 561.343 246.398 520.003 282.741C505.934 295.104 488.883 304.601 471.377 312.987C440.25 327.924 406.665 339.917 371.336 343.348C346.149 345.777 320.645 343.803 295.597 340.409C225.627 330.9 156.956 309.914 99.3725 274.015C74.124 258.27 50.3269 238.693 39.9191 213.232C29.5112 187.771 36.1725 155.466 61.9553 140.365C72.6181 134.129 85.3698 131.311 97.8483 128.664C116.223 124.771 134.889 120.934 151.466 113.021C168.596 104.848 188.871 89.0421 185.471 70.9468C181.852 51.5581 178.925 34.5073 196.638 18.7194Z" fill="#6C63FF"/>
<path d="M415.919 406.876C415.919 406.876 431.136 379.921 454.046 372.155C463.678 368.958 472.014 362.724 477.801 354.387C480.518 350.409 482.864 346.189 484.808 341.781" stroke="#535461" stroke-width="2" stroke-miterlimit="10"/>
<path d="M499.224 336.796C496.613 339.334 484.45 341.951 484.45 341.951C484.45 341.951 487.431 329.874 490.042 327.341C491.296 326.124 492.982 325.454 494.73 325.48C496.477 325.506 498.143 326.224 499.36 327.478C500.578 328.732 501.247 330.418 501.222 332.165C501.196 333.913 500.477 335.578 499.224 336.796V336.796Z" fill="#6C63FF"/>
<path d="M492.344 358.65C488.773 359.36 477.163 354.952 477.163 354.952C477.163 354.952 486.235 346.451 489.8 345.722C491.514 345.382 493.293 345.736 494.746 346.707C496.2 347.679 497.207 349.187 497.548 350.902C497.888 352.616 497.534 354.396 496.563 355.849C495.591 357.302 494.083 358.309 492.368 358.65H492.344Z" fill="#6C63FF"/>
<path d="M467.296 382.295C463.853 381.081 456.038 371.426 456.038 371.426C456.038 371.426 468.182 368.657 471.607 369.847C472.442 370.116 473.216 370.549 473.881 371.121C474.547 371.692 475.092 372.391 475.484 373.176C475.876 373.961 476.107 374.817 476.164 375.692C476.22 376.568 476.102 377.446 475.815 378.275C475.527 379.104 475.078 379.868 474.491 380.521C473.905 381.173 473.194 381.703 472.401 382.077C471.607 382.452 470.747 382.664 469.87 382.701C468.994 382.739 468.118 382.601 467.296 382.295V382.295Z" fill="#6C63FF"/>
<path d="M444.312 395.921C440.724 395.314 431.385 387.111 431.385 387.111C431.385 387.111 442.867 382.326 446.456 382.921C447.316 383.054 448.141 383.357 448.883 383.811C449.626 384.266 450.271 384.862 450.781 385.567C451.292 386.272 451.657 387.072 451.857 387.919C452.057 388.766 452.087 389.644 451.945 390.503C451.804 391.362 451.493 392.184 451.032 392.922C450.571 393.66 449.968 394.3 449.258 394.803C448.549 395.307 447.746 395.665 446.897 395.857C446.048 396.049 445.17 396.071 444.312 395.921V395.921Z" fill="#6C63FF"/>
<path d="M466.999 345.516C466.999 349.159 473.581 359.706 473.581 359.706C473.581 359.706 480.175 349.159 480.175 345.522C480.175 343.774 479.481 342.099 478.246 340.863C477.01 339.627 475.334 338.933 473.587 338.933C471.84 338.933 470.164 339.627 468.928 340.863C467.693 342.099 466.999 343.774 466.999 345.522V345.516Z" fill="#6C63FF"/>
<path d="M440.323 361.789C441.416 365.263 450.852 373.363 450.852 373.363C450.852 373.363 453.986 361.322 452.899 357.848C452.376 356.181 451.212 354.789 449.664 353.979C448.115 353.17 446.308 353.009 444.64 353.531C442.973 354.054 441.581 355.217 440.771 356.766C439.962 358.315 439.8 360.122 440.323 361.789V361.789Z" fill="#6C63FF"/>
<path d="M416.568 381.16C417.054 384.767 424.99 394.349 424.99 394.349C424.99 394.349 430.115 383.012 429.63 379.405C429.397 377.673 428.486 376.104 427.096 375.044C425.707 373.984 423.954 373.519 422.221 373.752C420.489 373.984 418.921 374.896 417.861 376.285C416.8 377.674 416.336 379.428 416.568 381.16Z" fill="#6C63FF"/>
<path opacity="0.25" d="M499.224 336.796C496.613 339.334 484.45 341.951 484.45 341.951C484.45 341.951 487.431 329.874 490.042 327.341C491.296 326.124 492.982 325.454 494.73 325.48C496.477 325.506 498.143 326.224 499.36 327.478C500.578 328.732 501.247 330.418 501.222 332.165C501.196 333.913 500.477 335.578 499.224 336.796V336.796Z" fill="black"/>
<path opacity="0.25" d="M492.344 358.65C488.773 359.36 477.163 354.952 477.163 354.952C477.163 354.952 486.235 346.451 489.8 345.722C491.514 345.382 493.293 345.736 494.746 346.707C496.2 347.679 497.207 349.187 497.548 350.902C497.888 352.616 497.534 354.396 496.563 355.849C495.591 357.302 494.083 358.309 492.368 358.65H492.344Z" fill="black"/>
<path opacity="0.25" d="M467.296 382.295C463.853 381.081 456.038 371.426 456.038 371.426C456.038 371.426 468.182 368.657 471.607 369.847C472.442 370.116 473.216 370.549 473.881 371.121C474.547 371.692 475.092 372.391 475.484 373.176C475.876 373.961 476.107 374.817 476.164 375.692C476.22 376.568 476.102 377.446 475.815 378.275C475.527 379.104 475.078 379.868 474.491 380.521C473.905 381.173 473.194 381.703 472.401 382.077C471.607 382.452 470.747 382.664 469.87 382.701C468.994 382.739 468.118 382.601 467.296 382.295V382.295Z" fill="black"/>
<path opacity="0.25" d="M444.312 395.921C440.724 395.314 431.385 387.111 431.385 387.111C431.385 387.111 442.867 382.326 446.456 382.921C447.316 383.054 448.141 383.357 448.883 383.811C449.626 384.266 450.271 384.862 450.781 385.567C451.292 386.272 451.657 387.072 451.857 387.919C452.057 388.766 452.087 389.644 451.945 390.503C451.804 391.362 451.493 392.184 451.032 392.922C450.571 393.66 449.968 394.3 449.258 394.803C448.549 395.307 447.746 395.665 446.897 395.857C446.048 396.049 445.17 396.071 444.312 395.921V395.921Z" fill="black"/>
<path opacity="0.25" d="M466.999 345.516C466.999 349.159 473.581 359.706 473.581 359.706C473.581 359.706 480.175 349.159 480.175 345.522C480.175 343.774 479.481 342.099 478.246 340.863C477.01 339.627 475.334 338.933 473.587 338.933C471.84 338.933 470.164 339.627 468.928 340.863C467.693 342.099 466.999 343.774 466.999 345.522V345.516Z" fill="black"/>
<path opacity="0.25" d="M440.323 361.789C441.416 365.263 450.852 373.363 450.852 373.363C450.852 373.363 453.986 361.322 452.899 357.848C452.376 356.181 451.212 354.789 449.664 353.979C448.115 353.17 446.308 353.009 444.64 353.531C442.973 354.054 441.581 355.217 440.771 356.766C439.962 358.315 439.8 360.122 440.323 361.789V361.789Z" fill="black"/>
<path opacity="0.25" d="M416.568 381.16C417.054 384.767 424.99 394.349 424.99 394.349C424.99 394.349 430.115 383.012 429.63 379.405C429.397 377.673 428.486 376.104 427.096 375.044C425.707 373.984 423.954 373.519 422.221 373.752C420.489 373.984 418.921 374.896 417.861 376.285C416.8 377.674 416.336 379.428 416.568 381.16Z" fill="black"/>
<path d="M416.793 406.329C416.793 406.329 419.781 375.519 437.584 359.136C445.094 352.308 450.186 343.229 452.097 333.262C452.971 328.521 453.406 323.71 453.396 318.889" stroke="#535461" stroke-width="2" stroke-miterlimit="10"/>
<path d="M464.551 308.518C463.191 311.894 453.135 319.217 453.135 319.217C453.135 319.217 450.974 306.963 452.334 303.593C452.642 302.769 453.111 302.016 453.715 301.377C454.319 300.737 455.044 300.225 455.849 299.871C456.654 299.516 457.521 299.327 458.4 299.313C459.28 299.299 460.153 299.461 460.968 299.79C461.784 300.118 462.525 300.607 463.149 301.227C463.773 301.846 464.266 302.585 464.6 303.398C464.934 304.212 465.102 305.084 465.093 305.963C465.085 306.842 464.901 307.711 464.551 308.518V308.518Z" fill="#6C63FF"/>
<path d="M467.12 331.282C464.144 333.377 451.72 334.057 451.72 334.057C451.72 334.057 456.578 322.599 459.535 320.504C460.243 320.006 461.042 319.652 461.886 319.463C462.731 319.274 463.604 319.253 464.457 319.401C465.309 319.549 466.124 319.864 466.855 320.328C467.586 320.791 468.219 321.393 468.717 322.101C469.215 322.809 469.568 323.608 469.758 324.452C469.947 325.297 469.968 326.17 469.82 327.023C469.671 327.875 469.357 328.69 468.893 329.421C468.43 330.152 467.827 330.784 467.12 331.282Z" fill="#6C63FF"/>
<path d="M453.803 363.052C450.16 363.356 439.108 357.672 439.108 357.672C439.108 357.672 449.073 350.228 452.674 349.918C454.415 349.771 456.144 350.323 457.479 351.451C458.814 352.579 459.647 354.191 459.793 355.932C459.94 357.674 459.388 359.403 458.261 360.738C457.133 362.073 455.52 362.906 453.779 363.052H453.803Z" fill="#6C63FF"/>
<path d="M438.313 384.821C434.791 385.732 422.926 382.004 422.926 382.004C422.926 382.004 431.482 372.974 435.003 372.064C435.847 371.827 436.73 371.76 437.599 371.868C438.469 371.977 439.308 372.257 440.068 372.694C440.827 373.13 441.492 373.714 442.024 374.411C442.555 375.107 442.942 375.903 443.163 376.751C443.383 377.6 443.431 378.483 443.306 379.35C443.18 380.218 442.883 381.051 442.431 381.802C441.98 382.553 441.383 383.206 440.676 383.724C439.969 384.241 439.165 384.612 438.313 384.815V384.821Z" fill="#6C63FF"/>
<path d="M438.629 329.54C440.098 332.867 450.397 339.862 450.397 339.862C450.397 339.862 452.152 327.548 450.676 324.22C449.948 322.656 448.635 321.441 447.019 320.834C445.404 320.228 443.616 320.28 442.038 320.978C440.46 321.676 439.219 322.965 438.582 324.568C437.944 326.172 437.961 327.961 438.629 329.552V329.54Z" fill="#6C63FF"/>
<path d="M420.837 355.231C423.235 357.964 435.149 361.546 435.149 361.546C435.149 361.546 433.139 349.268 430.735 346.536C430.169 345.869 429.476 345.321 428.696 344.925C427.916 344.529 427.065 344.292 426.193 344.228C425.32 344.164 424.444 344.275 423.615 344.553C422.786 344.831 422.02 345.272 421.363 345.849C420.706 346.427 420.17 347.129 419.788 347.915C419.405 348.702 419.182 349.557 419.133 350.43C419.084 351.303 419.21 352.178 419.502 353.002C419.795 353.826 420.248 354.584 420.837 355.231V355.231Z" fill="#6C63FF"/>
<path d="M406.968 382.569C408.875 385.672 420.011 391.209 420.011 391.209C420.011 391.209 420.103 378.773 418.19 375.671C417.737 374.933 417.143 374.293 416.443 373.785C415.742 373.277 414.948 372.912 414.107 372.711C413.265 372.51 412.392 372.477 411.538 372.613C410.683 372.75 409.864 373.053 409.127 373.506C408.39 373.959 407.749 374.552 407.241 375.253C406.733 375.954 406.369 376.747 406.168 377.589C405.967 378.43 405.933 379.303 406.07 380.158C406.206 381.012 406.509 381.831 406.962 382.569H406.968Z" fill="#6C63FF"/>
<path opacity="0.1" d="M227.205 507.122C267.073 507.122 299.392 501.704 299.392 495.02C299.392 488.337 267.073 482.918 227.205 482.918C187.338 482.918 155.019 488.337 155.019 495.02C155.019 501.704 187.338 507.122 227.205 507.122Z" fill="#6C63FF"/>
<path opacity="0.1" d="M369.29 414.223C409.157 414.223 441.477 408.805 441.477 402.121C441.477 395.437 409.157 390.019 369.29 390.019C329.422 390.019 297.103 395.437 297.103 402.121C297.103 408.805 329.422 414.223 369.29 414.223Z" fill="#6C63FF"/>
<path d="M374.081 242.403L374.014 244.765L369.91 389.6H363.011L366.394 244.765L366.461 242.038L374.081 242.403Z" fill="#B77B7F"/>
<path d="M414.018 365.099L408.85 365.087L332.073 364.923L327.98 364.917L330.16 358.201H413.471L414.018 365.099Z" fill="#DDA2A6"/>
<path opacity="0.1" d="M374.081 242.403L374.014 244.765H366.394L366.46 242.038L374.081 242.403Z" fill="black"/>
<path d="M376.99 238.863H364.195V243.678H376.99V238.863Z" fill="#B77B7F"/>
<path opacity="0.1" d="M332.753 358.201L332.073 364.923L327.98 364.917L330.16 358.201H332.753Z" fill="black"/>
<path d="M343.774 238.772L343.562 240.86L326.529 408.843L318.726 408.473L336.676 240.86L336.876 238.954L343.774 238.772Z" fill="#DDA2A6"/>
<path opacity="0.1" d="M414.018 365.099L408.851 365.087L408.152 358.201H413.472L414.018 365.099Z" fill="black"/>
<path d="M422.185 408.473L414.376 408.843L397.349 240.86L397.137 238.772L404.029 238.954L404.229 240.86L422.185 408.473Z" fill="#DDA2A6"/>
<path d="M455.394 73.1511H283.331V238.134H455.394V73.1511Z" fill="white"/>
<path d="M372.721 17.9724V57.8124H366.011V17.9724C365.992 17.5198 366.064 17.068 366.224 16.6442C366.384 16.2204 366.628 15.8333 366.941 15.5062C367.255 15.1792 367.631 14.9189 368.048 14.7411C368.464 14.5633 368.913 14.4717 369.366 14.4717C369.819 14.4717 370.267 14.5633 370.684 14.7411C371.1 14.9189 371.477 15.1792 371.79 15.5062C372.104 15.8333 372.348 16.2204 372.507 16.6442C372.667 17.068 372.74 17.5198 372.721 17.9724V17.9724Z" fill="#DDA2A6"/>
<path opacity="0.1" d="M372.721 54.1874H366.005V57.8125H372.721V54.1874Z" fill="black"/>
<path d="M375.356 56.9077V70.0602H363.412V56.9077C363.411 56.693 363.453 56.4802 363.535 56.2817C363.617 56.0832 363.737 55.9028 363.889 55.7509C364.041 55.5991 364.221 55.4788 364.42 55.397C364.618 55.3152 364.831 55.2735 365.046 55.2743H373.735C374.166 55.2775 374.578 55.451 374.882 55.757C375.186 56.063 375.356 56.4766 375.356 56.9077Z" fill="#DDA2A6"/>
<path opacity="0.1" d="M369.363 66.162C370.765 66.162 371.901 65.0256 371.901 63.6238C371.901 62.222 370.765 61.0856 369.363 61.0856C367.961 61.0856 366.825 62.222 366.825 63.6238C366.825 65.0256 367.961 66.162 369.363 66.162Z" fill="black"/>
<path d="M369.363 65.6153C370.765 65.6153 371.901 64.4789 371.901 63.0771C371.901 61.6753 370.765 60.5389 369.363 60.5389C367.961 60.5389 366.825 61.6753 366.825 63.0771C366.825 64.4789 367.961 65.6153 369.363 65.6153Z" fill="#B77B7F"/>
<path opacity="0.1" d="M375.356 68.433H363.375V70.0664H375.356V68.433Z" fill="black"/>
<path opacity="0.1" d="M380.256 70.6128H358.475V74.244H380.256V70.6128Z" fill="black"/>
<path d="M380.256 69.5197H358.475V73.1509H380.256V69.5197Z" fill="#DDA2A6"/>
<path opacity="0.1" d="M325.302 233.884H416.781C417.828 233.884 418.832 234.299 419.572 235.04C420.312 235.78 420.728 236.784 420.728 237.831V238.693H321.355V237.831C321.355 236.784 321.771 235.78 322.512 235.04C323.252 234.299 324.256 233.884 325.302 233.884V233.884Z" fill="black"/>
<path opacity="0.1" d="M336.876 238.954L343.774 238.772L343.561 240.86H336.676L336.876 238.954Z" fill="black"/>
<path opacity="0.1" d="M376.99 238.863H364.195V240.86H376.99V238.863Z" fill="black"/>
<path opacity="0.1" d="M404.229 240.86H397.349L397.137 238.772L404.029 238.954L404.229 240.86Z" fill="black"/>
<path d="M325.302 234.958H416.781C417.828 234.958 418.832 235.374 419.572 236.114C420.312 236.854 420.728 237.858 420.728 238.905V239.767H321.355V238.905C321.355 237.858 321.771 236.854 322.512 236.114C323.252 235.374 324.256 234.958 325.302 234.958V234.958Z" fill="#DDA2A6"/>
<path d="M305.246 158.363C303.867 157.634 288.851 146.291 288.851 146.291L264.616 130.922C264.616 130.922 264.489 130.558 264.258 129.933C270.907 122.385 269.456 111.43 262.691 103.731C254.494 94.3917 217.453 74.2865 206.292 91.4831C204.732 93.912 204.677 96.6688 204.27 99.3406C203.317 105.577 200.244 111.619 195.423 116.707C191.707 120.636 186.831 124.255 184.693 128.7C184.693 128.645 184.651 128.591 184.633 128.53C184.117 129.483 183.742 130.505 183.521 131.566C182.459 136.989 186.102 142.186 188.039 147.463C188.689 149.25 189.161 151.097 189.448 152.977C189.496 152.6 189.539 152.23 189.582 151.853C190.054 154.53 190.215 157.252 190.061 159.966C176.611 162.705 176.605 185.712 176.605 185.712C176.605 185.712 174.947 194.857 175.227 198.154C175.506 201.452 175.5 208.58 175.5 210.299C175.5 212.017 173.842 222.735 173.678 224.022C173.68 224.04 173.68 224.059 173.678 224.077C173.435 225.485 170.915 232.274 177.006 233.792C177.431 233.902 177.88 233.993 178.348 234.078C178.609 239.573 179.083 251.08 178.664 253.642C178.664 253.642 180.88 269.102 182.72 273.031C183.883 275.335 185.245 277.533 186.788 279.601C186.655 280.543 186.337 281.449 185.853 282.267C184.912 283.621 185.398 284.732 186.97 285.212C186.916 285.68 186.855 286.208 186.788 286.803C186.114 292.766 185.106 304.619 186.819 310.624C189.169 318.858 189.308 321.603 189.308 321.603C189.308 321.603 189.308 324.068 190.28 325.441C191.251 326.813 193.043 339.577 193.043 341.635C193.043 343.694 197.743 362.214 196.358 366.605C194.974 370.995 196.085 377.17 196.085 377.17C196.085 377.17 195.253 388.009 194.263 390.341C193.273 392.673 192.879 430.266 194.397 440.006C195.915 449.746 196.886 457.84 196.886 457.84C196.886 457.84 195.921 466.76 196.747 467.993C197.573 469.226 199.097 476.64 197.992 477.047C196.886 477.453 196.334 480.477 196.334 480.477C196.918 481.366 197.549 482.223 198.222 483.046C197.796 482.897 197.38 482.721 196.978 482.518C197.415 483.125 198.071 483.987 198.878 484.947L198.119 494.814C198.087 495.199 198.191 495.583 198.413 495.899C198.635 496.215 198.961 496.444 199.334 496.545C201.758 497.204 204.316 497.193 206.735 496.512C209.154 495.832 211.343 494.509 213.069 492.683C219.979 485.687 222.329 486.647 223.574 482.396C223.708 481.941 223.823 481.491 223.92 481.066C224.813 477.277 220.775 474.46 217.562 476.075C218.006 473.075 218.352 469.669 218.018 467.744C217.326 463.767 217.465 453.341 217.465 453.341L216.5 403.396C216.5 403.396 218.291 393.517 220.368 389.679C222.445 385.841 222.189 372.391 222.189 372.391L224.539 328.21L226.75 306.671C226.75 306.671 228.96 299.263 231.723 307.497C231.723 307.497 230.205 324.093 230.897 328.076C231.589 332.06 232.555 351.4 231.863 355.65C231.17 359.901 228.134 383.23 230.041 389.126C231.948 395.023 234.073 402.17 233.648 404.508C233.223 406.845 231.826 457.464 231.826 457.464C231.826 457.464 235.561 467.179 232.798 470.361C230.035 473.543 232.658 486.149 232.658 486.149C232.658 486.149 232.992 486.386 233.563 486.714L233.484 487.764L232.616 499.113C232.585 499.499 232.689 499.883 232.911 500.2C233.132 500.517 233.457 500.747 233.83 500.85C236.255 501.51 238.813 501.499 241.232 500.819C243.651 500.139 245.84 498.814 247.565 496.988C254.476 489.987 256.826 490.952 258.07 486.695C258.204 486.24 258.319 485.797 258.423 485.366C259.394 481.23 254.476 478.231 251.184 480.933L251.02 481.073C250.849 481.219 250.668 481.355 250.48 481.479C250.393 481.544 250.301 481.602 250.207 481.655C250.899 478.522 251.907 473.154 251.421 470.64C250.729 466.936 252.107 455.69 252.107 455.69C252.107 455.69 256.115 442.24 256.255 436.867L257.36 394.063C257.36 394.063 257.226 376.636 257.779 372.385C258.331 368.135 262.752 331.361 267.173 320.383C270.567 311.979 272.085 290.531 271.186 279.656C271.138 279.122 271.089 278.606 271.029 278.126C276.451 274.124 276.992 267.469 276.992 267.469C276.992 267.469 272.012 257.96 267.221 253.934C262.43 249.908 261.398 242.986 261.568 240.041C261.649 238.246 261.058 236.486 259.91 235.104C259.91 235.104 257.7 227.969 256.224 227.24C256.104 227.179 255.995 227.097 255.903 226.997C254.901 225.923 255.672 222.85 255.672 222.85V222.753C255.848 222.043 256.886 217.44 256.577 216.262C256.206 214.987 256.759 208.945 256.759 208.945C256.759 208.945 260.262 198.519 259.71 190.285C259.157 182.051 266.899 182.785 266.899 182.785L290.806 182.536H293.526C294.485 181.722 295.362 180.815 296.143 179.828C300.698 179.288 309.909 177.569 310.941 172.542C312.344 165.868 306.63 159.098 305.246 158.363ZM194.488 234.485L194.652 230.301C195.217 230.787 195.593 231.096 195.593 231.096C195.898 232.191 195.913 233.346 195.636 234.448C195.487 234.966 195.224 235.443 194.865 235.845C194.507 236.246 194.062 236.562 193.565 236.768C193.449 236.818 193.338 236.877 193.231 236.944L193 234.582L194.488 234.485ZM281.2 161.01C280.186 160.555 276.773 160.646 275.018 160.646C273.263 160.646 270.415 159.183 270.415 159.183C269.808 157.999 266.45 157.294 263.463 156.893C261.192 151.295 257.998 145.836 257.566 140C257.566 139.788 257.566 139.575 257.536 139.363L257.882 139.97C257.882 139.97 271.8 148.848 273.366 151.507C274.581 153.535 280.428 158.065 283.137 160.093C282.764 160.58 282.241 160.93 281.649 161.089C281.495 161.106 281.339 161.079 281.2 161.01V161.01Z" fill="url(#paint0_linear)"/>
<path d="M258.216 485.402C258.113 485.827 258.004 486.271 257.87 486.72C256.656 490.97 254.33 489.987 247.547 496.927C245.857 498.739 243.704 500.054 241.321 500.73C238.937 501.407 236.414 501.419 234.024 500.765C233.651 500.666 233.325 500.439 233.103 500.124C232.881 499.809 232.777 499.425 232.81 499.04L233.666 487.783L234.073 482.366C234.073 482.366 244.906 485.402 250.419 481.546C250.604 481.42 250.783 481.284 250.954 481.14C250.996 481.101 251.037 481.061 251.075 481.018C251.787 480.429 252.665 480.077 253.587 480.012C254.508 479.947 255.427 480.172 256.214 480.655C257.001 481.139 257.618 481.856 257.977 482.708C258.336 483.559 258.42 484.501 258.216 485.402V485.402Z" fill="#67647E"/>
<path d="M224.212 481.151C224.109 481.576 224 482.02 223.866 482.469C222.651 486.72 220.326 485.736 213.543 492.677C211.853 494.488 209.7 495.803 207.316 496.48C204.933 497.156 202.41 497.168 200.02 496.514C199.647 496.416 199.321 496.189 199.099 495.873C198.877 495.558 198.773 495.174 198.806 494.79L199.662 483.532L200.069 478.115C200.069 478.115 210.902 481.151 216.415 477.295C216.6 477.169 216.779 477.033 216.95 476.889C216.992 476.85 217.033 476.81 217.071 476.767C217.783 476.178 218.661 475.826 219.582 475.761C220.504 475.696 221.423 475.921 222.21 476.405C222.997 476.888 223.614 477.606 223.973 478.457C224.332 479.308 224.415 480.25 224.212 481.151V481.151Z" fill="#67647E"/>
<path opacity="0.1" d="M213.021 482.839L213.458 488.693C207.24 494.905 199.838 485.657 197.67 482.621C203.372 485.56 213.021 482.839 213.021 482.839Z" fill="black"/>
<path opacity="0.1" d="M249.569 485.22L250.383 484.679C244.705 493.314 236.271 489.331 233.642 487.782L234.049 482.366C234.049 482.366 244.882 485.402 250.395 481.546C249.964 483.659 249.569 485.22 249.569 485.22Z" fill="black"/>
<path d="M266.863 321.737C262.503 332.624 258.149 369.1 257.603 373.351C257.056 377.601 257.196 394.859 257.196 394.859L256.103 437.298C255.963 442.611 252.016 455.951 252.016 455.951C252.016 455.951 250.656 467.112 251.336 470.786C252.016 474.46 249.569 484.145 249.569 484.145L250.383 483.598C243.576 493.921 232.822 486.185 232.822 486.185C232.822 486.185 230.235 473.664 232.962 470.531C235.688 467.398 232.008 457.737 232.008 457.737C232.008 457.737 233.369 407.507 233.775 405.194C234.182 402.88 232.142 395.8 230.235 389.946C228.329 384.093 231.328 360.951 232.008 356.731C232.688 352.511 231.735 333.316 231.055 329.369C230.375 325.422 231.869 308.948 231.869 308.948C229.148 300.781 226.968 308.135 226.968 308.135L224.788 329.503L222.475 373.339C222.475 373.339 222.748 386.698 220.708 390.493C218.668 394.288 216.894 404.101 216.894 404.101L217.848 453.656C217.848 453.656 217.714 463.979 218.394 467.944C219.074 471.909 216.894 482.105 216.894 482.105C209.274 500.06 197.032 480.593 197.032 480.593C197.032 480.593 197.579 477.599 198.666 477.192C199.753 476.785 198.259 469.432 197.451 468.205C196.644 466.979 197.585 458.131 197.585 458.131C197.585 458.131 196.631 450.104 195.156 440.437C193.68 430.77 194.069 393.474 195.022 391.161C195.976 388.847 196.789 378.093 196.789 378.093C196.789 378.093 195.702 371.966 197.063 367.606C198.423 363.246 193.796 344.878 193.796 342.832C193.796 340.785 192.029 328.131 191.075 326.77C190.122 325.41 190.122 322.957 190.122 322.957C190.122 322.957 189.988 320.237 187.693 312.07C186.005 306.107 187.001 294.351 187.663 288.43C187.9 286.238 188.106 284.842 188.106 284.842C188.106 284.842 266.177 272.181 269.292 275.041C270.021 275.715 270.506 278.029 270.792 281.326C271.721 292.11 270.191 313.424 266.863 321.737Z" fill="#444053"/>
<path opacity="0.1" d="M237.316 382.945C237.68 382.945 246.303 383.674 249.46 383.036C252.618 382.399 237.316 382.945 237.316 382.945Z" fill="black"/>
<path opacity="0.1" d="M237.953 388.027C237.953 388.027 249.861 390.116 250.468 389.029C251.075 387.942 237.953 388.027 237.953 388.027Z" fill="black"/>
<path opacity="0.1" d="M201.562 385.848C201.562 385.848 207.732 386.121 211.09 387.669C214.448 389.218 201.562 385.848 201.562 385.848Z" fill="black"/>
<path d="M179.143 233.21C179.143 233.21 180.139 252.173 179.599 255.531C179.599 255.531 181.773 270.87 183.588 274.768C185.404 278.666 189.308 283.573 189.308 283.573L194.664 245.925L193.389 233.027L179.143 233.21Z" fill="#EFB7B9"/>
<path d="M235.409 146.814C246.986 146.814 256.37 137.429 256.37 125.852C256.37 114.275 246.986 104.891 235.409 104.891C223.832 104.891 214.448 114.275 214.448 125.852C214.448 137.429 223.832 146.814 235.409 146.814Z" fill="#EFB7B9"/>
<path d="M224.521 135.647C224.521 135.647 217.988 148.447 211.454 154.434C204.92 160.421 250.656 167.228 251.743 167.228C252.83 167.228 243.576 140.006 245.21 136.721C246.843 133.436 224.521 135.647 224.521 135.647Z" fill="#EFB7B9"/>
<path opacity="0.1" d="M270.804 281.326C269.777 282.11 268.645 282.743 267.44 283.208C259.097 286.475 250.019 291.011 243.849 289.201C237.68 287.392 224.612 289.201 224.612 289.201C224.612 289.201 198.289 287.022 193.037 288.291C190.644 288.868 188.786 288.843 187.572 288.43C187.808 286.238 188.015 284.842 188.015 284.842C188.015 284.842 266.177 272.181 269.292 275.041C270.033 275.715 270.506 278.029 270.804 281.326Z" fill="black"/>
<path d="M276.518 269.23C276.518 269.23 275.795 278.308 267.44 281.575C259.085 284.842 250.019 289.378 243.849 287.568C237.68 285.759 224.612 287.568 224.612 287.568C224.612 287.568 198.289 285.388 193.037 286.657C187.784 287.926 185.046 286.299 186.679 283.937C188.313 281.575 188.136 273.772 188.136 270.505C188.136 267.238 186.315 253.989 187.948 251.627C189.582 249.264 191.033 240.192 194.3 238.735C194.79 238.529 195.228 238.215 195.581 237.816C195.934 237.418 196.194 236.946 196.34 236.434C196.61 235.341 196.595 234.198 196.298 233.112C196.298 233.112 195.745 232.657 194.986 231.983C193.061 230.264 189.806 227.076 190.851 226.032C192.302 224.575 190.851 215.138 190.851 215.138C190.851 215.138 187.402 207.882 188.677 205.162C189.952 202.441 177.601 188.099 177.601 188.099C177.601 188.099 177.601 163.421 192.484 162.328C192.484 162.328 203.013 162.692 204.283 157.974C205.552 153.256 213.901 150.53 213.901 150.53L232.962 154.707C232.962 154.707 249.837 158.351 252.927 156.159C256.018 153.967 258.392 159.061 258.392 159.061C258.392 159.061 268.916 159.608 270.002 161.788C271.089 163.968 266.56 185.196 266.56 185.196C266.56 185.196 258.933 184.474 259.479 192.641C260.026 200.808 256.54 211.155 256.54 211.155C256.54 211.155 255.994 217.142 256.358 218.411C256.698 219.583 255.642 224.15 255.472 224.854V224.945C255.472 224.945 254.713 227.981 255.696 229.062C255.787 229.16 255.894 229.242 256.012 229.305C257.469 230.028 259.655 237.108 259.655 237.108C260.789 238.482 261.371 240.229 261.289 242.008C261.113 244.917 262.2 251.809 266.918 255.804C271.636 259.8 276.518 269.23 276.518 269.23Z" fill="#A36468"/>
<path d="M195.569 227.198V227.969L195.241 236.47C195.241 236.47 184.074 237.375 177.996 235.863C171.918 234.351 174.474 227.605 174.717 226.208C174.719 226.19 174.719 226.172 174.717 226.153C174.893 224.878 176.539 214.264 176.539 212.539C176.539 210.815 176.539 203.735 176.265 200.468C175.992 197.201 177.601 188.099 177.601 188.099L178.779 186.653L191.567 191.554L195.569 227.198Z" fill="#A36468"/>
<path opacity="0.1" d="M195.538 227.987L195.21 236.488C195.21 236.488 184.044 237.393 177.965 235.881C171.887 234.369 174.443 227.623 174.686 226.226L195.538 227.987Z" fill="black"/>
<path opacity="0.1" d="M196.34 236.44C196.61 235.347 196.595 234.204 196.297 233.118C196.297 233.118 195.745 232.663 194.986 231.989C204.598 230.647 242.665 225.425 255.484 224.854V224.945C255.484 224.945 254.725 227.981 255.708 229.062L196.34 236.44Z" fill="black"/>
<path opacity="0.1" d="M256.917 242.986C256.917 242.986 259.279 256.345 250.474 261.045C250.468 261.069 255.466 254.444 256.917 242.986Z" fill="black"/>
<path opacity="0.1" d="M199.291 261.427C199.291 261.427 220.544 257.784 224.704 260.613C228.863 263.443 199.291 261.427 199.291 261.427Z" fill="black"/>
<path opacity="0.1" d="M249.569 178.754C249.569 178.754 246.302 192.185 248.749 195.27C251.197 198.355 249.569 178.754 249.569 178.754Z" fill="black"/>
<path opacity="0.1" d="M188.039 167.775C188.039 167.775 191.033 172.766 189.217 177.94C187.402 183.113 188.039 167.775 188.039 167.775Z" fill="black"/>
<path opacity="0.1" d="M181.852 211.519C181.852 211.519 185.665 213.784 184.396 217.324C183.127 220.864 181.852 211.519 181.852 211.519Z" fill="black"/>
<path opacity="0.1" d="M181.505 201.172C181.505 201.172 185.039 203.079 185.495 205.89C185.95 208.702 181.505 201.172 181.505 201.172Z" fill="black"/>
<path opacity="0.1" d="M233.958 309.708C233.958 309.708 256.195 311.979 260.639 306.714C260.639 306.744 240.583 310.71 233.958 309.708Z" fill="black"/>
<path opacity="0.1" d="M195.569 308.439C195.569 308.439 219.439 314.068 224.157 309.617C224.157 309.617 203.645 311.159 195.569 308.439Z" fill="black"/>
<path opacity="0.1" d="M235.682 317.067C235.682 317.067 245.665 317.067 250.292 317.34C254.919 317.614 235.682 317.067 235.682 317.067Z" fill="black"/>
<path opacity="0.1" d="M197.203 321.318C197.203 321.318 202.103 326.856 207.641 325.86C213.179 324.864 197.203 321.318 197.203 321.318Z" fill="black"/>
<path d="M206.827 94.6102C205.291 96.9966 205.236 99.7595 204.835 102.407C203.9 108.595 200.87 114.588 196.127 119.64C191.774 124.267 185.805 128.463 184.675 134.116C183.607 139.484 187.232 144.652 189.132 149.904C194.142 163.682 187.147 178.134 185.106 192.355C184.542 196.284 185.222 201.306 190.061 202.611C191.573 203.024 193.304 202.97 194.664 203.625C196.486 204.5 197.044 206.315 197.378 207.949C198.596 213.792 199.017 219.772 198.629 225.728C198.411 229.068 198.168 232.912 201.325 235.207C202.758 236.258 204.689 236.792 206.554 237.296C211.527 238.638 217.957 239.725 221.309 236.573C222.718 235.256 223.246 233.398 225.001 232.353C227.63 230.793 231.359 231.849 234.668 232.013C241.463 232.353 247.705 228.37 250.383 223.567C253.061 218.763 252.812 213.244 251.84 208.064C250.869 202.884 249.132 197.741 249.011 192.483C248.968 190.661 249.132 188.809 250.177 187.194C252.199 184.067 256.905 182.646 260.123 180.186C266.153 175.572 266.134 168.012 263.942 161.684C261.75 155.357 257.815 149.291 257.33 142.751C257.113 141.17 257.427 139.562 258.222 138.179C259.085 136.849 260.59 135.853 261.866 134.754C270.664 127.321 269.626 115.116 262.351 106.761C254.3 97.5006 217.818 77.5533 206.827 94.6102Z" fill="#E3787D"/>
<g opacity="0.1">
<path opacity="0.1" d="M190.25 155.624C190.936 150.105 190.808 144.634 188.859 139.26C187.9 136.624 186.509 134.007 185.495 131.366C184.988 132.321 184.62 133.343 184.402 134.402C183.333 139.77 186.958 144.937 188.859 150.19C189.499 151.952 189.965 153.772 190.25 155.624Z" fill="black"/>
<path opacity="0.1" d="M198.356 215.084C198.743 209.128 198.324 203.148 197.111 197.304C196.771 195.671 196.213 193.861 194.391 192.987C193.031 192.331 191.3 192.38 189.788 191.973C188.859 191.75 187.993 191.318 187.257 190.71C186.52 190.102 185.932 189.333 185.538 188.463C185.258 189.847 185.015 191.226 184.815 192.61C184.25 196.539 184.93 201.561 189.77 202.866C191.282 203.273 193.013 203.219 194.373 203.874C196.194 204.749 196.753 206.564 197.093 208.198C197.65 210.908 198.04 213.65 198.259 216.408C198.302 215.958 198.326 215.521 198.356 215.084Z" fill="black"/>
<path opacity="0.1" d="M250.116 212.928C247.432 217.749 241.19 221.715 234.395 221.375C231.086 221.205 227.357 220.16 224.734 221.715C222.979 222.753 222.445 224.617 221.036 225.935C217.684 229.062 211.254 227.999 206.281 226.657C204.416 226.147 202.491 225.619 201.052 224.569C199.681 223.56 198.755 222.057 198.472 220.379C198.508 222.243 198.472 224.113 198.356 225.977C198.138 229.317 197.895 233.161 201.052 235.462C202.491 236.507 204.416 237.041 206.281 237.545C211.254 238.887 217.684 239.974 221.036 236.822C222.445 235.505 222.979 233.647 224.734 232.572C227.357 231.011 231.086 232.068 234.395 232.232C241.19 232.572 247.432 228.588 250.116 223.785C252.691 219.146 252.575 213.9 251.677 208.89C251.338 210.299 250.813 211.657 250.116 212.928Z" fill="black"/>
<path opacity="0.1" d="M261.617 124.14C260.317 125.233 258.811 126.235 257.973 127.564C257.178 128.948 256.864 130.556 257.081 132.137C257.257 134.124 257.677 136.082 258.332 137.966C259.343 136.888 260.451 135.904 261.641 135.027C267.592 130.006 269.037 122.798 267.106 116.07C266.087 119.23 264.182 122.031 261.617 124.14V124.14Z" fill="black"/>
<path opacity="0.1" d="M259.85 169.542C256.638 172.001 251.926 173.428 249.91 176.555C248.859 178.171 248.695 180.035 248.738 181.838C248.812 183.962 249.072 186.075 249.515 188.153C249.63 187.908 249.762 187.67 249.91 187.443C251.926 184.316 256.638 182.895 259.85 180.436C265.357 176.221 265.819 169.554 264.192 163.609C263.366 165.974 261.854 168.04 259.85 169.542V169.542Z" fill="black"/>
</g>
<path d="M292.853 182.476C292.853 182.476 308.556 181.662 309.916 175.037C311.276 168.412 305.665 161.678 304.293 160.968C302.92 160.257 288.116 148.987 288.116 148.987L264.252 133.746C264.252 133.746 252.818 100.956 250.286 113.507C247.754 126.058 257.64 142.727 257.64 142.727C257.64 142.727 271.339 151.532 272.881 154.161C274.423 156.79 283.866 163.688 283.866 163.688L292.853 182.476Z" fill="#EFB7B9"/>
<path d="M301.293 171.764C297.576 181.207 292.761 184.929 292.761 184.929H290.083L266.541 185.172L263.827 177.758L267.64 161.69L269.996 161.788C269.996 161.788 272.814 163.239 274.532 163.239C276.251 163.239 279.621 163.148 280.605 163.597C280.742 163.664 280.897 163.688 281.048 163.664C281.94 163.573 282.869 162.237 282.869 162.237C282.869 162.237 305.015 162.328 301.293 171.764Z" fill="#A36468"/>
<path opacity="0.1" d="M301.293 171.764C297.577 181.207 292.762 184.929 292.762 184.929H290.084C291.48 181.188 294.425 173.513 295.549 171.74C296.648 170.064 286.786 165.892 281.018 163.64C281.91 163.549 282.839 162.213 282.839 162.213C282.839 162.213 305.015 162.328 301.293 171.764Z" fill="black"/>
<path d="M88.6671 325.793C88.6671 327.815 88.4425 329.436 88.1632 329.436C87.8838 329.436 87.6531 327.797 87.6531 325.793C87.6531 323.789 87.9385 324.724 88.2178 324.724C88.4971 324.724 88.6671 323.747 88.6671 325.793Z" fill="#FFD037"/>
<path d="M91.4723 328.21C89.6992 329.175 88.1508 329.764 88.0172 329.515C87.8836 329.266 89.2316 328.301 90.9865 327.317C92.7414 326.333 92.0613 327.056 92.201 327.317C92.3406 327.578 93.2454 327.238 91.4723 328.21Z" fill="#FFD037"/>
<path d="M49.1309 325.793C49.1309 327.815 49.3555 329.436 49.6349 329.436C49.9142 329.436 50.1449 327.797 50.1449 325.793C50.1449 323.789 49.8595 324.724 49.5802 324.724C49.3009 324.724 49.1309 323.747 49.1309 325.793Z" fill="#FFD037"/>
<path d="M46.3253 328.21C48.1045 329.175 49.6468 329.764 49.7865 329.515C49.9261 329.266 48.572 328.301 46.8111 327.317C45.0501 326.333 45.7363 327.056 45.5966 327.317C45.457 327.578 44.5522 327.238 46.3253 328.21Z" fill="#FFD037"/>
<path opacity="0.1" d="M109.294 95.4484C119.858 95.4484 128.422 86.8847 128.422 76.3208C128.422 65.7569 119.858 57.1932 109.294 57.1932C98.7302 57.1932 90.1665 65.7569 90.1665 76.3208C90.1665 86.8847 98.7302 95.4484 109.294 95.4484Z" fill="#6C63FF"/>
<path opacity="0.1" d="M69.2176 42.6198C75.7571 42.6198 81.0585 37.3184 81.0585 30.7789C81.0585 24.2393 75.7571 18.938 69.2176 18.938C62.6781 18.938 57.3767 24.2393 57.3767 30.7789C57.3767 37.3184 62.6781 42.6198 69.2176 42.6198Z" fill="#6C63FF"/>
<path opacity="0.1" d="M7.2867 64.4799C11.311 64.4799 14.5734 61.2175 14.5734 57.1932C14.5734 53.1689 11.311 49.9065 7.2867 49.9065C3.26237 49.9065 0 53.1689 0 57.1932C0 61.2175 3.26237 64.4799 7.2867 64.4799Z" fill="#6C63FF"/>
<path d="M480.807 400.658L480.151 401.399L480.023 401.289C480.285 401.071 480.546 400.852 480.807 400.658Z" fill="#6C63FF"/>
<defs>
<linearGradient id="paint0_linear" x1="242.052" y1="501.311" x2="242.052" y2="84.7551" gradientUnits="userSpaceOnUse">
<stop stop-color="#808080" stop-opacity="0.25"/>
<stop offset="0.54" stop-color="#808080" stop-opacity="0.12"/>
<stop offset="1" stop-color="#808080" stop-opacity="0.1"/>
</linearGradient>
</defs>
</svg>
