<svg width="558" height="507" viewBox="0 0 558 507" fill="none" xmlns="http://www.w3.org/2000/svg">
<path opacity="0.1" d="M196.638 18.0124C214.375 2.22455 242.216 -1.01196 267.562 0.244997C347.163 4.2041 419.016 42.6293 481.171 86.1005C503.675 101.834 525.826 118.793 540.43 140.465C570.184 184.58 561.343 245.691 520.003 282.034C505.934 294.397 488.883 303.894 471.377 312.28C440.25 327.217 406.665 339.21 371.336 342.641C346.149 345.07 320.645 343.096 295.597 339.702C225.627 330.193 156.956 309.207 99.3725 273.308C74.124 257.563 50.3269 237.986 39.9191 212.525C29.5112 187.064 36.1725 154.759 61.9553 139.658C72.6181 133.422 85.3698 130.604 97.8483 127.957C116.223 124.064 134.889 120.227 151.466 112.314C168.596 104.141 188.871 88.3351 185.471 70.2398C181.852 50.8511 178.925 33.8002 196.638 18.0124Z" fill="#6C63FF"/>
<path d="M415.919 406.169C415.919 406.169 431.136 379.214 454.046 371.448C463.678 368.251 472.014 362.017 477.801 353.68C480.518 349.702 482.864 345.482 484.808 341.074" stroke="#535461" stroke-width="2" stroke-miterlimit="10"/>
<path d="M499.224 336.089C496.613 338.627 484.45 341.244 484.45 341.244C484.45 341.244 487.431 329.167 490.042 326.634C491.296 325.417 492.982 324.747 494.73 324.773C496.477 324.799 498.143 325.517 499.36 326.771C500.578 328.025 501.247 329.711 501.222 331.458C501.196 333.206 500.477 334.871 499.224 336.089Z" fill="#6C63FF"/>
<path d="M492.344 357.943C488.773 358.653 477.163 354.245 477.163 354.245C477.163 354.245 486.235 345.744 489.8 345.015C491.514 344.675 493.293 345.029 494.746 346C496.2 346.972 497.207 348.48 497.548 350.195C497.888 351.909 497.534 353.689 496.563 355.142C495.591 356.595 494.083 357.602 492.368 357.943H492.344Z" fill="#6C63FF"/>
<path d="M467.296 381.588C463.853 380.374 456.038 370.719 456.038 370.719C456.038 370.719 468.182 367.95 471.607 369.14C472.442 369.409 473.216 369.842 473.881 370.414C474.547 370.985 475.092 371.684 475.484 372.469C475.876 373.254 476.107 374.11 476.164 374.985C476.22 375.861 476.102 376.739 475.815 377.568C475.527 378.397 475.078 379.161 474.491 379.814C473.905 380.466 473.194 380.996 472.401 381.37C471.607 381.745 470.747 381.957 469.87 381.994C468.994 382.032 468.118 381.894 467.296 381.588Z" fill="#6C63FF"/>
<path d="M444.312 395.214C440.724 394.607 431.385 386.404 431.385 386.404C431.385 386.404 442.867 381.619 446.456 382.214C447.316 382.347 448.141 382.65 448.883 383.104C449.626 383.558 450.271 384.155 450.781 384.86C451.292 385.565 451.657 386.364 451.857 387.212C452.057 388.059 452.087 388.937 451.945 389.796C451.804 390.655 451.493 391.477 451.032 392.215C450.571 392.953 449.968 393.593 449.258 394.096C448.549 394.6 447.746 394.958 446.897 395.15C446.048 395.342 445.17 395.364 444.312 395.214Z" fill="#6C63FF"/>
<path d="M466.999 344.809C466.999 348.452 473.581 358.999 473.581 358.999C473.581 358.999 480.175 348.452 480.175 344.815C480.175 343.067 479.481 341.392 478.246 340.156C477.01 338.92 475.334 338.226 473.587 338.226C471.84 338.226 470.164 338.92 468.928 340.156C467.693 341.392 466.999 343.067 466.999 344.815V344.809Z" fill="#6C63FF"/>
<path d="M440.323 361.082C441.416 364.556 450.852 372.656 450.852 372.656C450.852 372.656 453.986 360.615 452.899 357.141C452.376 355.474 451.212 354.082 449.664 353.272C448.115 352.463 446.308 352.302 444.64 352.824C442.973 353.347 441.581 354.51 440.771 356.059C439.962 357.608 439.8 359.415 440.323 361.082Z" fill="#6C63FF"/>
<path d="M416.568 380.453C417.054 384.06 424.99 393.642 424.99 393.642C424.99 393.642 430.115 382.305 429.63 378.698C429.397 376.966 428.486 375.397 427.096 374.337C425.707 373.277 423.954 372.812 422.221 373.045C420.489 373.277 418.921 374.189 417.861 375.578C416.8 376.967 416.336 378.721 416.568 380.453Z" fill="#6C63FF"/>
<path opacity="0.25" d="M499.224 336.089C496.613 338.627 484.45 341.244 484.45 341.244C484.45 341.244 487.431 329.167 490.042 326.634C491.296 325.417 492.982 324.747 494.73 324.773C496.477 324.799 498.143 325.517 499.36 326.771C500.578 328.025 501.247 329.711 501.222 331.458C501.196 333.206 500.477 334.871 499.224 336.089Z" fill="black"/>
<path opacity="0.25" d="M492.344 357.943C488.773 358.653 477.163 354.245 477.163 354.245C477.163 354.245 486.235 345.744 489.8 345.015C491.514 344.675 493.293 345.029 494.746 346C496.2 346.972 497.207 348.48 497.548 350.195C497.888 351.909 497.534 353.689 496.563 355.142C495.591 356.595 494.083 357.602 492.368 357.943H492.344Z" fill="black"/>
<path opacity="0.25" d="M467.296 381.588C463.853 380.374 456.038 370.719 456.038 370.719C456.038 370.719 468.182 367.95 471.607 369.14C472.442 369.409 473.216 369.842 473.881 370.414C474.547 370.985 475.092 371.684 475.484 372.469C475.876 373.254 476.107 374.11 476.164 374.985C476.22 375.861 476.102 376.739 475.815 377.568C475.527 378.397 475.078 379.161 474.491 379.814C473.905 380.466 473.194 380.996 472.401 381.37C471.607 381.745 470.747 381.957 469.87 381.994C468.994 382.032 468.118 381.894 467.296 381.588Z" fill="black"/>
<path opacity="0.25" d="M444.312 395.214C440.724 394.607 431.385 386.404 431.385 386.404C431.385 386.404 442.867 381.619 446.456 382.214C447.316 382.347 448.141 382.65 448.883 383.104C449.626 383.558 450.271 384.155 450.781 384.86C451.292 385.565 451.657 386.364 451.857 387.212C452.057 388.059 452.087 388.937 451.945 389.796C451.804 390.655 451.493 391.477 451.032 392.215C450.571 392.953 449.968 393.593 449.258 394.096C448.549 394.6 447.746 394.958 446.897 395.15C446.048 395.342 445.17 395.364 444.312 395.214Z" fill="black"/>
<path opacity="0.25" d="M466.999 344.809C466.999 348.452 473.581 358.999 473.581 358.999C473.581 358.999 480.175 348.452 480.175 344.815C480.175 343.067 479.481 341.392 478.246 340.156C477.01 338.92 475.334 338.226 473.587 338.226C471.84 338.226 470.164 338.92 468.928 340.156C467.693 341.392 466.999 343.067 466.999 344.815V344.809Z" fill="black"/>
<path opacity="0.25" d="M440.323 361.082C441.416 364.556 450.852 372.656 450.852 372.656C450.852 372.656 453.986 360.615 452.899 357.141C452.376 355.474 451.212 354.082 449.664 353.272C448.115 352.463 446.308 352.302 444.64 352.824C442.973 353.347 441.581 354.51 440.771 356.059C439.962 357.608 439.8 359.415 440.323 361.082Z" fill="black"/>
<path opacity="0.25" d="M416.568 380.453C417.054 384.06 424.99 393.642 424.99 393.642C424.99 393.642 430.115 382.305 429.63 378.698C429.397 376.966 428.486 375.397 427.096 374.337C425.707 373.277 423.954 372.812 422.221 373.045C420.489 373.277 418.921 374.189 417.861 375.578C416.8 376.967 416.336 378.721 416.568 380.453Z" fill="black"/>
<path d="M416.793 405.622C416.793 405.622 419.781 374.812 437.584 358.429C445.094 351.601 450.186 342.522 452.097 332.555C452.971 327.814 453.406 323.003 453.396 318.182" stroke="#535461" stroke-width="2" stroke-miterlimit="10"/>
<path d="M464.551 307.811C463.191 311.187 453.135 318.51 453.135 318.51C453.135 318.51 450.974 306.256 452.334 302.886C452.642 302.062 453.111 301.309 453.715 300.669C454.319 300.03 455.044 299.518 455.849 299.164C456.654 298.809 457.521 298.62 458.4 298.606C459.28 298.592 460.153 298.754 460.968 299.082C461.784 299.411 462.525 299.9 463.149 300.52C463.773 301.139 464.266 301.878 464.6 302.691C464.934 303.505 465.102 304.377 465.093 305.256C465.085 306.135 464.901 307.004 464.551 307.811Z" fill="#6C63FF"/>
<path d="M467.12 330.575C464.144 332.67 451.72 333.35 451.72 333.35C451.72 333.35 456.578 321.892 459.535 319.797C460.243 319.299 461.042 318.945 461.886 318.756C462.731 318.567 463.604 318.546 464.457 318.694C465.309 318.842 466.124 319.157 466.855 319.62C467.586 320.084 468.219 320.686 468.717 321.394C469.215 322.102 469.568 322.901 469.758 323.745C469.947 324.59 469.968 325.463 469.82 326.316C469.671 327.168 469.357 327.983 468.893 328.714C468.43 329.445 467.827 330.077 467.12 330.575Z" fill="#6C63FF"/>
<path d="M453.803 362.345C450.16 362.649 439.108 356.965 439.108 356.965C439.108 356.965 449.073 349.521 452.674 349.211C454.415 349.064 456.144 349.616 457.479 350.744C458.814 351.872 459.647 353.484 459.793 355.225C459.94 356.967 459.388 358.696 458.261 360.031C457.133 361.366 455.52 362.199 453.779 362.345H453.803Z" fill="#6C63FF"/>
<path d="M438.313 384.114C434.791 385.025 422.926 381.297 422.926 381.297C422.926 381.297 431.482 372.267 435.003 371.357C435.847 371.12 436.73 371.053 437.599 371.161C438.469 371.27 439.308 371.55 440.068 371.987C440.827 372.423 441.492 373.007 442.024 373.704C442.555 374.4 442.942 375.196 443.163 376.044C443.383 376.893 443.431 377.776 443.306 378.643C443.18 379.511 442.883 380.344 442.431 381.095C441.98 381.846 441.383 382.499 440.676 383.017C439.969 383.534 439.165 383.905 438.313 384.108V384.114Z" fill="#6C63FF"/>
<path d="M438.629 328.833C440.098 332.16 450.397 339.155 450.397 339.155C450.397 339.155 452.152 326.841 450.676 323.513C449.948 321.949 448.635 320.734 447.019 320.127C445.404 319.521 443.616 319.573 442.038 320.271C440.46 320.969 439.219 322.258 438.582 323.861C437.944 325.465 437.961 327.254 438.629 328.845V328.833Z" fill="#6C63FF"/>
<path d="M420.837 354.524C423.235 357.257 435.149 360.839 435.149 360.839C435.149 360.839 433.139 348.561 430.735 345.829C430.169 345.162 429.476 344.614 428.696 344.218C427.916 343.822 427.065 343.585 426.193 343.521C425.32 343.457 424.444 343.568 423.615 343.846C422.786 344.124 422.02 344.565 421.363 345.142C420.706 345.72 420.17 346.422 419.788 347.208C419.405 347.995 419.182 348.85 419.133 349.723C419.084 350.596 419.21 351.471 419.502 352.295C419.795 353.119 420.248 353.877 420.837 354.524Z" fill="#6C63FF"/>
<path d="M406.968 381.862C408.875 384.964 420.011 390.502 420.011 390.502C420.011 390.502 420.103 378.066 418.19 374.963C417.737 374.226 417.143 373.586 416.443 373.078C415.742 372.57 414.948 372.205 414.107 372.004C413.265 371.803 412.392 371.77 411.538 371.906C410.683 372.043 409.864 372.346 409.127 372.799C408.39 373.252 407.749 373.845 407.241 374.546C406.733 375.247 406.369 376.04 406.168 376.882C405.967 377.723 405.933 378.596 406.07 379.451C406.206 380.305 406.509 381.124 406.962 381.862H406.968Z" fill="#6C63FF"/>
<path opacity="0.1" d="M227.205 506.415C267.073 506.415 299.392 500.997 299.392 494.313C299.392 487.63 267.073 482.211 227.205 482.211C187.338 482.211 155.019 487.63 155.019 494.313C155.019 500.997 187.338 506.415 227.205 506.415Z" fill="#6C63FF"/>
<path opacity="0.1" d="M369.29 413.516C409.157 413.516 441.477 408.098 441.477 401.414C441.477 394.73 409.157 389.312 369.29 389.312C329.422 389.312 297.103 394.73 297.103 401.414C297.103 408.098 329.422 413.516 369.29 413.516Z" fill="#6C63FF"/>
<path d="M374.081 241.696L374.014 244.058L369.91 388.893H363.011L366.394 244.058L366.461 241.331L374.081 241.696Z" fill="#B77B7F"/>
<path d="M414.018 364.392L408.85 364.38L332.073 364.216L327.98 364.21L330.16 357.494H413.471L414.018 364.392Z" fill="#DDA2A6"/>
<path opacity="0.1" d="M374.081 241.696L374.014 244.058H366.394L366.46 241.331L374.081 241.696Z" fill="black"/>
<path d="M376.99 238.156H364.195V242.971H376.99V238.156Z" fill="#B77B7F"/>
<path opacity="0.1" d="M332.753 357.494L332.073 364.216L327.98 364.21L330.16 357.494H332.753Z" fill="black"/>
<path d="M343.774 238.065L343.562 240.153L326.529 408.136L318.726 407.766L336.676 240.153L336.876 238.247L343.774 238.065Z" fill="#DDA2A6"/>
<path opacity="0.1" d="M414.018 364.392L408.851 364.38L408.152 357.494H413.472L414.018 364.392Z" fill="black"/>
<path d="M422.185 407.766L414.376 408.136L397.349 240.153L397.137 238.065L404.029 238.247L404.229 240.153L422.185 407.766Z" fill="#DDA2A6"/>
<path d="M455.394 72.4441H283.331V237.427H455.394V72.4441Z" fill="white"/>
<path d="M372.721 17.2654V57.1054H366.011V17.2654C365.992 16.8128 366.064 16.361 366.224 15.9372C366.384 15.5133 366.628 15.1262 366.941 14.7992C367.255 14.4721 367.631 14.2119 368.048 14.0341C368.464 13.8563 368.913 13.7646 369.366 13.7646C369.819 13.7646 370.267 13.8563 370.684 14.0341C371.1 14.2119 371.477 14.4721 371.79 14.7992C372.104 15.1262 372.348 15.5133 372.507 15.9372C372.667 16.361 372.74 16.8128 372.721 17.2654Z" fill="#DDA2A6"/>
<path opacity="0.1" d="M372.721 53.4803H366.005V57.1055H372.721V53.4803Z" fill="black"/>
<path d="M375.356 56.2007V69.3532H363.412V56.2007C363.411 55.986 363.453 55.7732 363.535 55.5747C363.617 55.3761 363.737 55.1957 363.889 55.0439C364.041 54.8921 364.221 54.7718 364.42 54.69C364.618 54.6082 364.831 54.5665 365.046 54.5673H373.735C374.166 54.5705 374.578 54.744 374.882 55.05C375.186 55.3559 375.356 55.7696 375.356 56.2007Z" fill="#DDA2A6"/>
<path opacity="0.1" d="M369.363 65.4549C370.765 65.4549 371.901 64.3185 371.901 62.9167C371.901 61.5149 370.765 60.3785 369.363 60.3785C367.961 60.3785 366.825 61.5149 366.825 62.9167C366.825 64.3185 367.961 65.4549 369.363 65.4549Z" fill="black"/>
<path d="M369.363 64.9083C370.765 64.9083 371.901 63.7719 371.901 62.3701C371.901 60.9683 370.765 59.8319 369.363 59.8319C367.961 59.8319 366.825 60.9683 366.825 62.3701C366.825 63.7719 367.961 64.9083 369.363 64.9083Z" fill="#B77B7F"/>
<path opacity="0.1" d="M375.356 67.726H363.375V69.3594H375.356V67.726Z" fill="black"/>
<path opacity="0.1" d="M380.256 69.9058H358.475V73.537H380.256V69.9058Z" fill="black"/>
<path d="M380.256 68.8126H358.475V72.4438H380.256V68.8126Z" fill="#DDA2A6"/>
<path opacity="0.1" d="M325.302 233.177H416.781C417.828 233.177 418.832 233.592 419.572 234.333C420.312 235.073 420.728 236.077 420.728 237.123V237.986H321.355V237.123C321.355 236.077 321.771 235.073 322.512 234.333C323.252 233.592 324.256 233.177 325.302 233.177Z" fill="black"/>
<path opacity="0.1" d="M336.876 238.247L343.774 238.065L343.561 240.153H336.676L336.876 238.247Z" fill="black"/>
<path opacity="0.1" d="M376.99 238.156H364.195V240.153H376.99V238.156Z" fill="black"/>
<path opacity="0.1" d="M404.229 240.153H397.349L397.137 238.065L404.029 238.247L404.229 240.153Z" fill="black"/>
<path d="M325.302 234.251H416.781C417.828 234.251 418.832 234.667 419.572 235.407C420.312 236.147 420.728 237.151 420.728 238.198V239.06H321.355V238.198C321.355 237.151 321.771 236.147 322.512 235.407C323.252 234.667 324.256 234.251 325.302 234.251Z" fill="#DDA2A6"/>
<path d="M305.246 157.656C303.867 156.927 288.851 145.584 288.851 145.584L264.616 130.215C264.616 130.215 264.489 129.851 264.258 129.226C270.907 121.678 269.456 110.723 262.691 103.024C254.494 93.6847 217.453 73.5795 206.292 90.7761C204.732 93.205 204.677 95.9618 204.27 98.6336C203.317 104.87 200.244 110.912 195.423 116C191.707 119.929 186.831 123.548 184.693 127.993C184.693 127.938 184.651 127.884 184.633 127.823C184.117 128.776 183.742 129.798 183.521 130.859C182.459 136.282 186.102 141.479 188.039 146.756C188.689 148.543 189.161 150.39 189.448 152.27C189.496 151.893 189.539 151.523 189.582 151.146C190.054 153.823 190.215 156.545 190.061 159.259C176.611 161.997 176.605 185.005 176.605 185.005C176.605 185.005 174.947 194.15 175.227 197.447C175.506 200.745 175.5 207.873 175.5 209.592C175.5 211.31 173.842 222.028 173.678 223.315C173.68 223.333 173.68 223.352 173.678 223.37C173.435 224.778 170.915 231.567 177.006 233.085C177.431 233.195 177.88 233.286 178.348 233.371C178.609 238.866 179.083 250.373 178.664 252.935C178.664 252.935 180.88 268.395 182.72 272.324C183.883 274.628 185.245 276.826 186.788 278.894C186.655 279.836 186.337 280.742 185.853 281.56C184.912 282.914 185.398 284.025 186.97 284.505C186.916 284.973 186.855 285.501 186.788 286.096C186.114 292.059 185.106 303.912 186.819 309.917C189.169 318.151 189.308 320.896 189.308 320.896C189.308 320.896 189.308 323.361 190.28 324.734C191.251 326.106 193.043 338.87 193.043 340.928C193.043 342.987 197.743 361.507 196.358 365.898C194.974 370.288 196.085 376.463 196.085 376.463C196.085 376.463 195.253 387.302 194.263 389.634C193.273 391.966 192.879 429.559 194.397 439.299C195.915 449.039 196.886 457.133 196.886 457.133C196.886 457.133 195.921 466.053 196.747 467.286C197.573 468.518 199.097 475.933 197.992 476.34C196.886 476.746 196.334 479.77 196.334 479.77C196.918 480.659 197.549 481.516 198.222 482.339C197.796 482.19 197.38 482.014 196.978 481.811C197.415 482.418 198.071 483.28 198.878 484.24L198.119 494.107C198.087 494.492 198.191 494.876 198.413 495.192C198.635 495.508 198.961 495.737 199.334 495.838C201.758 496.497 204.316 496.486 206.735 495.805C209.154 495.125 211.343 493.802 213.069 491.976C219.979 484.98 222.329 485.94 223.574 481.689C223.708 481.234 223.823 480.784 223.92 480.359C224.813 476.57 220.775 473.753 217.562 475.368C218.006 472.368 218.352 468.962 218.018 467.037C217.326 463.06 217.465 452.633 217.465 452.633L216.5 402.689C216.5 402.689 218.291 392.81 220.368 388.972C222.445 385.134 222.189 371.684 222.189 371.684L224.539 327.503L226.75 305.964C226.75 305.964 228.96 298.556 231.723 306.79C231.723 306.79 230.205 323.386 230.897 327.369C231.589 331.352 232.555 350.693 231.863 354.943C231.17 359.194 228.134 382.523 230.041 388.419C231.948 394.316 234.073 401.463 233.648 403.8C233.223 406.138 231.826 456.757 231.826 456.757C231.826 456.757 235.561 466.472 232.798 469.654C230.035 472.836 232.658 485.442 232.658 485.442C232.658 485.442 232.992 485.679 233.563 486.007L233.484 487.057L232.616 498.406C232.585 498.792 232.689 499.176 232.911 499.493C233.132 499.81 233.457 500.04 233.83 500.143C236.255 500.803 238.813 500.792 241.232 500.112C243.651 499.431 245.84 498.107 247.565 496.281C254.476 489.28 256.826 490.245 258.07 485.988C258.204 485.533 258.319 485.09 258.423 484.659C259.394 480.523 254.476 477.524 251.184 480.226L251.02 480.365C250.849 480.512 250.668 480.647 250.48 480.772C250.393 480.837 250.301 480.895 250.207 480.948C250.899 477.815 251.907 472.447 251.421 469.933C250.729 466.229 252.107 454.983 252.107 454.983C252.107 454.983 256.115 441.533 256.255 436.159L257.36 393.356C257.36 393.356 257.226 375.929 257.779 371.678C258.331 367.428 262.752 330.654 267.173 319.676C270.567 311.272 272.085 289.824 271.186 278.949C271.138 278.415 271.089 277.898 271.029 277.419C276.451 273.417 276.992 266.762 276.992 266.762C276.992 266.762 272.012 257.253 267.221 253.227C262.43 249.201 261.398 242.279 261.568 239.334C261.649 237.539 261.058 235.779 259.91 234.397C259.91 234.397 257.7 227.262 256.224 226.533C256.104 226.472 255.995 226.39 255.903 226.29C254.901 225.216 255.672 222.143 255.672 222.143V222.046C255.848 221.335 256.886 216.733 256.577 215.555C256.206 214.28 256.759 208.238 256.759 208.238C256.759 208.238 260.262 197.812 259.71 189.578C259.157 181.344 266.899 182.078 266.899 182.078L290.806 181.829H293.526C294.485 181.015 295.362 180.108 296.143 179.121C300.698 178.581 309.909 176.862 310.941 171.835C312.344 165.161 306.63 158.391 305.246 157.656ZM194.488 233.778L194.652 229.594C195.217 230.08 195.593 230.389 195.593 230.389C195.898 231.484 195.913 232.639 195.636 233.741C195.487 234.259 195.224 234.736 194.865 235.138C194.507 235.539 194.062 235.855 193.565 236.061C193.449 236.111 193.338 236.17 193.231 236.237L193 233.875L194.488 233.778ZM281.2 160.303C280.186 159.848 276.773 159.939 275.018 159.939C273.263 159.939 270.415 158.476 270.415 158.476C269.808 157.291 266.45 156.587 263.463 156.186C261.192 150.588 257.998 145.129 257.566 139.293C257.566 139.081 257.566 138.868 257.536 138.656L257.882 139.263C257.882 139.263 271.8 148.141 273.366 150.8C274.581 152.828 280.428 157.358 283.137 159.386C282.764 159.873 282.241 160.223 281.649 160.382C281.495 160.399 281.339 160.372 281.2 160.303Z" fill="url(#paint0_linear)"/>
<path d="M258.216 484.695C258.113 485.12 258.004 485.564 257.87 486.013C256.656 490.263 254.33 489.28 247.547 496.22C245.857 498.032 243.704 499.347 241.321 500.023C238.937 500.7 236.414 500.712 234.024 500.058C233.651 499.959 233.325 499.732 233.103 499.417C232.881 499.102 232.777 498.718 232.81 498.333L233.666 487.076L234.073 481.659C234.073 481.659 244.906 484.695 250.419 480.839C250.604 480.713 250.783 480.577 250.954 480.432C250.996 480.394 251.037 480.354 251.075 480.311C251.787 479.722 252.665 479.37 253.587 479.305C254.508 479.24 255.427 479.465 256.214 479.948C257.001 480.432 257.618 481.149 257.977 482.001C258.336 482.852 258.42 483.794 258.216 484.695Z" fill="#67647E"/>
<path d="M224.212 480.444C224.109 480.869 224 481.313 223.866 481.762C222.651 486.013 220.326 485.029 213.543 491.969C211.853 493.781 209.7 495.096 207.316 495.773C204.933 496.449 202.41 496.461 200.02 495.807C199.647 495.709 199.321 495.482 199.099 495.166C198.877 494.851 198.773 494.467 198.806 494.083L199.662 482.825L200.069 477.408C200.069 477.408 210.902 480.444 216.415 476.588C216.6 476.462 216.779 476.326 216.95 476.182C216.992 476.143 217.033 476.103 217.071 476.06C217.783 475.471 218.661 475.119 219.582 475.054C220.504 474.989 221.423 475.214 222.21 475.698C222.997 476.181 223.614 476.899 223.973 477.75C224.332 478.601 224.415 479.543 224.212 480.444Z" fill="#67647E"/>
<path opacity="0.1" d="M213.021 482.132L213.458 487.986C207.24 494.198 199.838 484.95 197.67 481.914C203.372 484.853 213.021 482.132 213.021 482.132Z" fill="black"/>
<path opacity="0.1" d="M249.569 484.513L250.383 483.972C244.705 492.607 236.271 488.624 233.642 487.075L234.049 481.659C234.049 481.659 244.882 484.695 250.395 480.839C249.964 482.952 249.569 484.513 249.569 484.513Z" fill="black"/>
<path d="M266.863 321.03C262.503 331.917 258.149 368.393 257.603 372.644C257.056 376.894 257.196 394.152 257.196 394.152L256.103 436.591C255.963 441.904 252.016 455.244 252.016 455.244C252.016 455.244 250.656 466.405 251.336 470.079C252.016 473.753 249.569 483.438 249.569 483.438L250.383 482.891C243.576 493.214 232.822 485.478 232.822 485.478C232.822 485.478 230.235 472.957 232.962 469.824C235.688 466.691 232.008 457.03 232.008 457.03C232.008 457.03 233.369 406.8 233.775 404.487C234.182 402.173 232.142 395.093 230.235 389.239C228.329 383.385 231.328 360.244 232.008 356.024C232.688 351.804 231.735 332.609 231.055 328.662C230.375 324.715 231.869 308.241 231.869 308.241C229.148 300.074 226.968 307.428 226.968 307.428L224.788 328.796L222.475 372.632C222.475 372.632 222.748 385.99 220.708 389.786C218.668 393.581 216.894 403.394 216.894 403.394L217.848 452.949C217.848 452.949 217.714 463.272 218.394 467.237C219.074 471.202 216.894 481.398 216.894 481.398C209.274 499.353 197.032 479.886 197.032 479.886C197.032 479.886 197.579 476.892 198.666 476.485C199.753 476.078 198.259 468.725 197.451 467.498C196.644 466.272 197.585 457.424 197.585 457.424C197.585 457.424 196.631 449.397 195.156 439.73C193.68 430.063 194.069 392.767 195.022 390.454C195.976 388.14 196.789 377.386 196.789 377.386C196.789 377.386 195.702 371.259 197.063 366.899C198.423 362.539 193.796 344.171 193.796 342.125C193.796 340.078 192.029 327.424 191.075 326.063C190.122 324.703 190.122 322.25 190.122 322.25C190.122 322.25 189.988 319.53 187.693 311.363C186.005 305.4 187.001 293.644 187.663 287.723C187.9 285.531 188.106 284.135 188.106 284.135C188.106 284.135 266.177 271.474 269.292 274.334C270.021 275.008 270.506 277.322 270.792 280.619C271.721 291.403 270.191 312.717 266.863 321.03Z" fill="#444053"/>
<path opacity="0.1" d="M237.316 382.238C237.68 382.238 246.303 382.967 249.46 382.329C252.618 381.692 237.316 382.238 237.316 382.238Z" fill="black"/>
<path opacity="0.1" d="M237.953 387.32C237.953 387.32 249.861 389.409 250.468 388.322C251.075 387.235 237.953 387.32 237.953 387.32Z" fill="black"/>
<path opacity="0.1" d="M201.562 385.141C201.562 385.141 207.732 385.414 211.09 386.962C214.448 388.511 201.562 385.141 201.562 385.141Z" fill="black"/>
<path d="M179.143 232.503C179.143 232.503 180.139 251.466 179.599 254.824C179.599 254.824 181.773 270.163 183.588 274.061C185.404 277.959 189.308 282.866 189.308 282.866L194.664 245.218L193.389 232.32L179.143 232.503Z" fill="#EFB7B9"/>
<path d="M235.409 146.107C246.986 146.107 256.37 136.722 256.37 125.145C256.37 113.568 246.986 104.184 235.409 104.184C223.832 104.184 214.448 113.568 214.448 125.145C214.448 136.722 223.832 146.107 235.409 146.107Z" fill="#EFB7B9"/>
<path d="M224.521 134.94C224.521 134.94 217.988 147.74 211.454 153.727C204.92 159.714 250.656 166.521 251.743 166.521C252.83 166.521 243.576 139.299 245.21 136.014C246.843 132.729 224.521 134.94 224.521 134.94Z" fill="#EFB7B9"/>
<path opacity="0.1" d="M270.804 280.619C269.777 281.403 268.645 282.036 267.44 282.501C259.097 285.768 250.019 290.304 243.849 288.494C237.68 286.685 224.612 288.494 224.612 288.494C224.612 288.494 198.289 286.315 193.037 287.584C190.644 288.16 188.786 288.136 187.572 287.723C187.808 285.531 188.015 284.135 188.015 284.135C188.015 284.135 266.177 271.474 269.292 274.334C270.033 275.008 270.506 277.322 270.804 280.619Z" fill="black"/>
<path d="M276.518 268.523C276.518 268.523 275.795 277.601 267.44 280.868C259.085 284.135 250.019 288.671 243.849 286.861C237.68 285.052 224.612 286.861 224.612 286.861C224.612 286.861 198.289 284.681 193.037 285.95C187.784 287.219 185.046 285.592 186.679 283.23C188.313 280.868 188.136 273.065 188.136 269.798C188.136 266.531 186.315 253.282 187.948 250.92C189.582 248.557 191.033 239.485 194.3 238.028C194.79 237.822 195.228 237.508 195.581 237.109C195.934 236.711 196.194 236.239 196.34 235.727C196.61 234.634 196.595 233.491 196.298 232.405C196.298 232.405 195.745 231.95 194.986 231.276C193.061 229.557 189.806 226.369 190.851 225.325C192.302 223.868 190.851 214.431 190.851 214.431C190.851 214.431 187.402 207.175 188.677 204.455C189.952 201.734 177.601 187.392 177.601 187.392C177.601 187.392 177.601 162.714 192.484 161.621C192.484 161.621 203.013 161.985 204.283 157.267C205.552 152.549 213.901 149.823 213.901 149.823L232.962 154C232.962 154 249.837 157.644 252.927 155.452C256.018 153.26 258.392 158.354 258.392 158.354C258.392 158.354 268.916 158.901 270.002 161.081C271.089 163.261 266.56 184.489 266.56 184.489C266.56 184.489 258.933 183.767 259.479 191.934C260.026 200.101 256.54 210.448 256.54 210.448C256.54 210.448 255.994 216.435 256.358 217.704C256.698 218.876 255.642 223.443 255.472 224.147V224.238C255.472 224.238 254.713 227.274 255.696 228.355C255.787 228.453 255.894 228.535 256.012 228.598C257.469 229.321 259.655 236.401 259.655 236.401C260.789 237.775 261.371 239.522 261.289 241.301C261.113 244.21 262.2 251.102 266.918 255.097C271.636 259.093 276.518 268.523 276.518 268.523Z" fill="#A36468"/>
<path d="M195.569 226.491V227.262L195.241 235.763C195.241 235.763 184.074 236.668 177.996 235.156C171.918 233.644 174.474 226.898 174.717 225.501C174.719 225.483 174.719 225.465 174.717 225.446C174.893 224.171 176.539 213.557 176.539 211.832C176.539 210.108 176.539 203.028 176.265 199.761C175.992 196.494 177.601 187.392 177.601 187.392L178.779 185.946L191.567 190.847L195.569 226.491Z" fill="#A36468"/>
<path opacity="0.1" d="M195.538 227.28L195.21 235.781C195.21 235.781 184.044 236.686 177.965 235.174C171.887 233.662 174.443 226.916 174.686 225.519L195.538 227.28Z" fill="black"/>
<path opacity="0.1" d="M196.34 235.733C196.61 234.64 196.595 233.497 196.297 232.411C196.297 232.411 195.745 231.956 194.986 231.282C204.598 229.94 242.665 224.718 255.484 224.147V224.238C255.484 224.238 254.725 227.274 255.708 228.355L196.34 235.733Z" fill="black"/>
<path opacity="0.1" d="M256.917 242.279C256.917 242.279 259.279 255.638 250.474 260.338C250.468 260.362 255.466 253.737 256.917 242.279Z" fill="black"/>
<path opacity="0.1" d="M199.291 260.72C199.291 260.72 220.544 257.077 224.704 259.906C228.863 262.736 199.291 260.72 199.291 260.72Z" fill="black"/>
<path opacity="0.1" d="M249.569 178.047C249.569 178.047 246.302 191.478 248.749 194.563C251.197 197.648 249.569 178.047 249.569 178.047Z" fill="black"/>
<path opacity="0.1" d="M188.039 167.068C188.039 167.068 191.033 172.059 189.217 177.233C187.402 182.406 188.039 167.068 188.039 167.068Z" fill="black"/>
<path opacity="0.1" d="M181.852 210.812C181.852 210.812 185.665 213.077 184.396 216.617C183.127 220.157 181.852 210.812 181.852 210.812Z" fill="black"/>
<path opacity="0.1" d="M181.505 200.465C181.505 200.465 185.039 202.372 185.495 205.183C185.95 207.995 181.505 200.465 181.505 200.465Z" fill="black"/>
<path opacity="0.1" d="M233.958 309.001C233.958 309.001 256.195 311.272 260.639 306.007C260.639 306.037 240.583 310.003 233.958 309.001Z" fill="black"/>
<path opacity="0.1" d="M195.569 307.732C195.569 307.732 219.439 313.361 224.157 308.91C224.157 308.91 203.645 310.452 195.569 307.732Z" fill="black"/>
<path opacity="0.1" d="M235.682 316.36C235.682 316.36 245.665 316.36 250.292 316.633C254.919 316.907 235.682 316.36 235.682 316.36Z" fill="black"/>
<path opacity="0.1" d="M197.203 320.611C197.203 320.611 202.103 326.149 207.641 325.153C213.179 324.157 197.203 320.611 197.203 320.611Z" fill="black"/>
<path d="M206.827 93.9032C205.291 96.2896 205.236 99.0525 204.835 101.7C203.9 107.888 200.87 113.881 196.127 118.933C191.774 123.56 185.805 127.756 184.675 133.409C183.607 138.777 187.232 143.945 189.132 149.197C194.142 162.975 187.147 177.427 185.106 191.648C184.542 195.577 185.222 200.599 190.061 201.904C191.573 202.317 193.304 202.262 194.664 202.918C196.486 203.793 197.044 205.608 197.378 207.242C198.596 213.085 199.017 219.065 198.629 225.021C198.411 228.361 198.168 232.205 201.325 234.5C202.758 235.551 204.689 236.085 206.554 236.589C211.527 237.931 217.957 239.018 221.309 235.866C222.718 234.549 223.246 232.691 225.001 231.646C227.63 230.086 231.359 231.142 234.668 231.306C241.463 231.646 247.705 227.663 250.383 222.86C253.061 218.056 252.812 212.537 251.84 207.357C250.869 202.177 249.132 197.034 249.011 191.776C248.968 189.954 249.132 188.102 250.177 186.487C252.199 183.36 256.905 181.939 260.123 179.479C266.153 174.864 266.134 167.305 263.942 160.977C261.75 154.65 257.815 148.584 257.33 142.044C257.113 140.463 257.427 138.855 258.222 137.472C259.085 136.142 260.59 135.146 261.866 134.047C270.664 126.614 269.626 114.409 262.351 106.054C254.3 96.7936 217.818 76.8463 206.827 93.9032Z" fill="#E3787D"/>
<g opacity="0.1">
<path opacity="0.1" d="M190.25 154.917C190.936 149.398 190.808 143.927 188.859 138.553C187.9 135.917 186.509 133.3 185.495 130.659C184.988 131.614 184.62 132.636 184.402 133.695C183.333 139.063 186.958 144.23 188.859 149.483C189.499 151.244 189.965 153.065 190.25 154.917Z" fill="black"/>
<path opacity="0.1" d="M198.356 214.377C198.743 208.421 198.324 202.441 197.111 196.597C196.771 194.964 196.213 193.154 194.391 192.28C193.031 191.624 191.3 191.673 189.788 191.266C188.859 191.043 187.993 190.611 187.257 190.003C186.52 189.395 185.932 188.626 185.538 187.756C185.258 189.14 185.015 190.519 184.815 191.903C184.25 195.832 184.93 200.854 189.77 202.159C191.282 202.566 193.013 202.512 194.373 203.167C196.194 204.042 196.753 205.857 197.093 207.491C197.65 210.201 198.04 212.943 198.259 215.7C198.302 215.251 198.326 214.814 198.356 214.377Z" fill="black"/>
<path opacity="0.1" d="M250.116 212.221C247.432 217.042 241.19 221.008 234.395 220.668C231.086 220.498 227.357 219.453 224.734 221.008C222.979 222.046 222.445 223.91 221.036 225.228C217.684 228.355 211.254 227.292 206.281 225.95C204.416 225.44 202.491 224.912 201.052 223.862C199.681 222.853 198.755 221.35 198.472 219.672C198.508 221.536 198.472 223.406 198.356 225.27C198.138 228.61 197.895 232.454 201.052 234.755C202.491 235.8 204.416 236.334 206.281 236.838C211.254 238.18 217.684 239.267 221.036 236.115C222.445 234.798 222.979 232.94 224.734 231.865C227.357 230.304 231.086 231.361 234.395 231.525C241.19 231.865 247.432 227.881 250.116 223.078C252.691 218.439 252.575 213.193 251.677 208.183C251.338 209.592 250.813 210.95 250.116 212.221Z" fill="black"/>
<path opacity="0.1" d="M261.617 123.433C260.317 124.526 258.811 125.528 257.973 126.857C257.178 128.241 256.864 129.849 257.081 131.43C257.257 133.417 257.677 135.375 258.332 137.259C259.343 136.181 260.451 135.197 261.641 134.32C267.592 129.298 269.037 122.091 267.106 115.363C266.087 118.523 264.182 121.324 261.617 123.433Z" fill="black"/>
<path opacity="0.1" d="M259.85 168.835C256.638 171.294 251.926 172.721 249.91 175.848C248.859 177.464 248.695 179.328 248.738 181.131C248.812 183.255 249.072 185.368 249.515 187.446C249.63 187.201 249.762 186.963 249.91 186.736C251.926 183.609 256.638 182.188 259.85 179.729C265.357 175.514 265.819 168.847 264.192 162.902C263.366 165.267 261.854 167.333 259.85 168.835Z" fill="black"/>
</g>
<path d="M294.981 175.831C294.981 175.831 310.684 175.017 312.044 168.393C313.405 161.768 307.794 155.034 306.421 154.323C305.049 153.613 290.245 142.343 290.245 142.343L266.381 127.101C266.381 127.101 254.947 94.3111 252.415 106.862C249.883 119.414 259.768 136.082 259.768 136.082C259.768 136.082 273.467 144.887 275.01 147.516C276.552 150.145 285.994 157.044 285.994 157.044L294.981 175.831Z" fill="#EFB7B9"/>
<path d="M301.293 171.057C297.576 180.5 292.761 184.222 292.761 184.222H290.083L266.541 184.465L263.827 177.051L267.64 160.983L269.996 161.081C269.996 161.081 272.814 162.532 274.532 162.532C276.251 162.532 279.621 162.441 280.605 162.89C280.742 162.957 280.897 162.981 281.048 162.957C281.94 162.866 282.869 161.53 282.869 161.53C282.869 161.53 305.015 161.621 301.293 171.057Z" fill="#A36468"/>
<path opacity="0.1" d="M301.293 171.057C297.577 180.5 292.762 184.222 292.762 184.222H290.084C291.48 180.481 294.425 172.806 295.549 171.033C296.648 169.357 286.786 165.185 281.018 162.933C281.91 162.841 282.839 161.506 282.839 161.506C282.839 161.506 305.015 161.621 301.293 171.057Z" fill="black"/>
<path d="M88.6671 325.086C88.6671 327.108 88.4425 328.729 88.1632 328.729C87.8838 328.729 87.6531 327.09 87.6531 325.086C87.6531 323.082 87.9385 324.017 88.2178 324.017C88.4971 324.017 88.6671 323.039 88.6671 325.086Z" fill="#FFD037"/>
<path d="M91.4723 327.503C89.6992 328.468 88.1508 329.057 88.0172 328.808C87.8836 328.559 89.2316 327.594 90.9865 326.61C92.7414 325.626 92.0613 326.349 92.201 326.61C92.3406 326.871 93.2454 326.531 91.4723 327.503Z" fill="#FFD037"/>
<path d="M49.1309 325.086C49.1309 327.108 49.3555 328.729 49.6349 328.729C49.9142 328.729 50.1449 327.09 50.1449 325.086C50.1449 323.082 49.8595 324.017 49.5802 324.017C49.3009 324.017 49.1309 323.039 49.1309 325.086Z" fill="#FFD037"/>
<path d="M46.3253 327.503C48.1045 328.468 49.6468 329.057 49.7865 328.808C49.9261 328.559 48.572 327.594 46.8111 326.61C45.0501 325.626 45.7363 326.349 45.5966 326.61C45.457 326.871 44.5522 326.531 46.3253 327.503Z" fill="#FFD037"/>
<path opacity="0.1" d="M109.294 94.7414C119.858 94.7414 128.422 86.1777 128.422 75.6138C128.422 65.0499 119.858 56.4862 109.294 56.4862C98.7302 56.4862 90.1665 65.0499 90.1665 75.6138C90.1665 86.1777 98.7302 94.7414 109.294 94.7414Z" fill="#6C63FF"/>
<path opacity="0.1" d="M69.2176 41.9127C75.7571 41.9127 81.0585 36.6114 81.0585 30.0718C81.0585 23.5323 75.7571 18.231 69.2176 18.231C62.6781 18.231 57.3767 23.5323 57.3767 30.0718C57.3767 36.6114 62.6781 41.9127 69.2176 41.9127Z" fill="#6C63FF"/>
<path opacity="0.1" d="M7.2867 63.7729C11.311 63.7729 14.5734 60.5105 14.5734 56.4862C14.5734 52.4618 11.311 49.1995 7.2867 49.1995C3.26237 49.1995 0 52.4618 0 56.4862C0 60.5105 3.26237 63.7729 7.2867 63.7729Z" fill="#6C63FF"/>
<path d="M480.807 399.951L480.151 400.691L480.023 400.582C480.285 400.364 480.546 400.145 480.807 399.951Z" fill="#6C63FF"/>
<path d="M309.129 143V142.58L310.989 141.78V128.22L309.129 127.44V127H312.849L321.469 139.08V128.22L319.609 127.44V127H323.869V127.44L321.969 128.22V143H321.469L311.489 128.98V141.78L313.409 142.58V143H309.129ZM330.998 143.2C330.038 143.2 329.164 142.98 328.378 142.54C327.591 142.087 326.964 141.453 326.498 140.64C326.044 139.813 325.818 138.873 325.818 137.82C325.818 136.767 326.044 135.833 326.498 135.02C326.964 134.207 327.591 133.58 328.378 133.14C329.164 132.687 330.038 132.46 330.998 132.46C331.958 132.46 332.831 132.687 333.618 133.14C334.404 133.58 335.024 134.207 335.478 135.02C335.944 135.833 336.178 136.767 336.178 137.82C336.178 138.873 335.944 139.813 335.478 140.64C335.024 141.453 334.404 142.087 333.618 142.54C332.831 142.98 331.958 143.2 330.998 143.2ZM330.998 142.76C331.984 142.76 332.724 142.4 333.218 141.68C333.724 140.96 333.978 140.007 333.978 138.82V136.82C333.978 135.633 333.724 134.687 333.218 133.98C332.724 133.26 331.984 132.9 330.998 132.9C330.011 132.9 329.264 133.26 328.758 133.98C328.264 134.687 328.018 135.633 328.018 136.82V138.82C328.018 140.007 328.264 140.96 328.758 141.68C329.264 142.4 330.011 142.76 330.998 142.76ZM350.933 143.4C349.48 143.4 348.207 143.047 347.113 142.34C346.02 141.633 345.173 140.647 344.573 139.38C343.987 138.113 343.693 136.653 343.693 135C343.693 133.347 343.993 131.887 344.593 130.62C345.207 129.34 346.067 128.353 347.173 127.66C348.293 126.953 349.58 126.6 351.033 126.6C351.607 126.6 352.187 126.7 352.773 126.9C353.373 127.1 353.913 127.38 354.393 127.74L355.733 126.6H356.153V131.56H355.733L354.493 128.46C354.027 128.033 353.48 127.693 352.853 127.44C352.24 127.187 351.633 127.06 351.033 127.06C350.1 127.06 349.273 127.3 348.553 127.78C347.847 128.26 347.293 128.96 346.893 129.88C346.493 130.8 346.293 131.893 346.293 133.16V136.82C346.293 138.087 346.487 139.18 346.873 140.1C347.26 141.02 347.8 141.727 348.493 142.22C349.187 142.7 350 142.94 350.933 142.94C351.613 142.94 352.293 142.793 352.973 142.5C353.653 142.193 354.22 141.787 354.673 141.28L355.833 138.06H356.253V143.2H355.833L354.393 142.18C353.913 142.567 353.367 142.867 352.753 143.08C352.14 143.293 351.533 143.4 350.933 143.4ZM361.756 143.2C360.902 143.2 360.202 142.98 359.656 142.54C359.109 142.087 358.836 141.42 358.836 140.54C358.836 139.287 359.362 138.4 360.416 137.88C361.469 137.347 362.689 137.08 364.076 137.08H365.416V135.54C365.416 134.847 365.336 134.313 365.176 133.94C365.029 133.553 364.796 133.287 364.476 133.14C364.156 132.98 363.722 132.9 363.176 132.9C362.549 132.9 362.082 133.027 361.776 133.28C361.469 133.52 361.316 133.847 361.316 134.26C361.316 134.647 361.502 134.9 361.876 135.02C361.876 135.353 361.749 135.647 361.496 135.9C361.242 136.153 360.942 136.28 360.596 136.28C360.222 136.28 359.922 136.18 359.696 135.98C359.469 135.767 359.356 135.447 359.356 135.02C359.356 134.247 359.742 133.627 360.516 133.16C361.289 132.693 362.256 132.46 363.416 132.46C366.082 132.46 367.416 133.62 367.416 135.94V141.66C367.416 141.953 367.476 142.18 367.596 142.34C367.729 142.487 367.916 142.56 368.156 142.56C368.382 142.56 368.562 142.487 368.696 142.34C368.829 142.18 368.896 141.967 368.896 141.7H369.316C369.316 142.167 369.162 142.533 368.856 142.8C368.562 143.067 368.149 143.2 367.616 143.2C367.002 143.2 366.482 143.027 366.056 142.68C365.642 142.32 365.429 141.767 365.416 141.02C365.096 141.7 364.602 142.233 363.936 142.62C363.282 143.007 362.556 143.2 361.756 143.2ZM362.856 142.32C363.216 142.32 363.582 142.213 363.956 142C364.342 141.787 364.669 141.48 364.936 141.08C365.202 140.667 365.362 140.173 365.416 139.6V137.52H364.076C362.982 137.52 362.162 137.767 361.616 138.26C361.082 138.74 360.816 139.42 360.816 140.3C360.816 141.033 360.989 141.553 361.336 141.86C361.682 142.167 362.189 142.32 362.856 142.32ZM374.343 143.2C373.463 143.2 372.757 142.98 372.223 142.54C371.703 142.1 371.443 141.4 371.443 140.44V133.24L370.023 133.04V132.64H371.443V130.98L373.443 130.48V132.64H376.043V133.04L373.443 133.24V140.4C373.443 141.813 373.95 142.52 374.963 142.52C375.177 142.52 375.377 142.487 375.563 142.42C375.763 142.353 375.917 142.287 376.023 142.22C376.143 142.153 376.217 142.107 376.243 142.08L376.503 142.4C375.903 142.933 375.183 143.2 374.343 143.2ZM382.531 143.2C381.545 143.2 380.651 142.98 379.851 142.54C379.051 142.087 378.418 141.453 377.951 140.64C377.485 139.827 377.251 138.887 377.251 137.82C377.251 136.753 377.478 135.82 377.931 135.02C378.398 134.207 379.018 133.58 379.791 133.14C380.578 132.687 381.451 132.46 382.411 132.46C383.251 132.46 384.005 132.647 384.671 133.02C385.338 133.393 385.858 133.913 386.231 134.58C386.605 135.233 386.798 135.987 386.811 136.84H379.451V138.82C379.451 139.993 379.711 140.947 380.231 141.68C380.765 142.4 381.531 142.76 382.531 142.76C383.451 142.76 384.265 142.5 384.971 141.98C385.678 141.46 386.111 140.787 386.271 139.96H386.731C386.545 140.947 386.071 141.733 385.311 142.32C384.551 142.907 383.625 143.2 382.531 143.2ZM384.611 136.34C384.611 135.18 384.431 134.32 384.071 133.76C383.711 133.187 383.151 132.9 382.391 132.9C381.498 132.9 380.805 133.213 380.311 133.84C379.818 134.467 379.538 135.3 379.471 136.34H384.611ZM398.802 131.7C398.802 132.22 398.609 132.667 398.222 133.04C397.836 133.413 397.222 133.653 396.382 133.76C396.729 134.267 396.902 134.96 396.902 135.84C396.902 136.88 396.529 137.7 395.782 138.3C395.049 138.9 394.116 139.2 392.982 139.2C392.516 139.2 392.089 139.16 391.702 139.08C390.849 139.133 390.422 139.467 390.422 140.08C390.422 140.427 390.562 140.68 390.842 140.84C391.136 141 391.596 141.08 392.222 141.08H394.462C395.542 141.08 396.342 141.3 396.862 141.74C397.396 142.18 397.662 142.933 397.662 144C397.662 144.747 397.469 145.433 397.082 146.06C396.709 146.687 396.162 147.18 395.442 147.54C394.722 147.913 393.862 148.1 392.862 148.1C391.356 148.1 390.242 147.873 389.522 147.42C388.816 146.967 388.462 146.367 388.462 145.62C388.462 145.167 388.636 144.767 388.982 144.42C389.329 144.073 389.802 143.9 390.402 143.9C390.522 143.9 390.769 143.927 391.142 143.98C390.729 144.42 390.522 144.94 390.522 145.54C390.522 146.113 390.722 146.613 391.122 147.04C391.522 147.467 392.176 147.68 393.082 147.68C393.869 147.68 394.569 147.527 395.182 147.22C395.809 146.927 396.289 146.54 396.622 146.06C396.956 145.58 397.122 145.087 397.122 144.58C397.122 144.02 396.942 143.613 396.582 143.36C396.222 143.12 395.582 143 394.662 143H392.222C391.289 143 390.582 142.82 390.102 142.46C389.636 142.087 389.402 141.54 389.402 140.82C389.402 140.34 389.536 139.92 389.802 139.56C390.082 139.187 390.436 138.947 390.862 138.84C389.702 138.347 389.122 137.347 389.122 135.84C389.122 134.787 389.489 133.96 390.222 133.36C390.956 132.76 391.876 132.46 392.982 132.46C394.382 132.46 395.396 132.753 396.022 133.34C396.396 133.273 396.676 133.153 396.862 132.98C397.049 132.793 397.142 132.587 397.142 132.36C397.142 132.147 397.082 131.987 396.962 131.88C396.842 131.76 396.702 131.7 396.542 131.7C396.542 131.407 396.649 131.153 396.862 130.94C397.089 130.713 397.356 130.6 397.662 130.6C397.996 130.6 398.269 130.7 398.482 130.9C398.696 131.1 398.802 131.367 398.802 131.7ZM395.022 135.34C395.022 134.527 394.849 133.9 394.502 133.46C394.169 133.02 393.662 132.8 392.982 132.8C391.662 132.8 391.002 133.647 391.002 135.34V136.32C391.002 137.107 391.162 137.727 391.482 138.18C391.816 138.633 392.316 138.86 392.982 138.86C393.662 138.86 394.169 138.633 394.502 138.18C394.849 137.727 395.022 137.107 395.022 136.32V135.34ZM404.95 143.2C403.99 143.2 403.117 142.98 402.33 142.54C401.543 142.087 400.917 141.453 400.45 140.64C399.997 139.813 399.77 138.873 399.77 137.82C399.77 136.767 399.997 135.833 400.45 135.02C400.917 134.207 401.543 133.58 402.33 133.14C403.117 132.687 403.99 132.46 404.95 132.46C405.91 132.46 406.783 132.687 407.57 133.14C408.357 133.58 408.977 134.207 409.43 135.02C409.897 135.833 410.13 136.767 410.13 137.82C410.13 138.873 409.897 139.813 409.43 140.64C408.977 141.453 408.357 142.087 407.57 142.54C406.783 142.98 405.91 143.2 404.95 143.2ZM404.95 142.76C405.937 142.76 406.677 142.4 407.17 141.68C407.677 140.96 407.93 140.007 407.93 138.82V136.82C407.93 135.633 407.677 134.687 407.17 133.98C406.677 133.26 405.937 132.9 404.95 132.9C403.963 132.9 403.217 133.26 402.71 133.98C402.217 134.687 401.97 135.633 401.97 136.82V138.82C401.97 140.007 402.217 140.96 402.71 141.68C403.217 142.4 403.963 142.76 404.95 142.76ZM411.92 142.6L413.32 142.4V133.24L411.92 133.04V132.64H415.32V134.18C416.16 133.033 417.107 132.46 418.16 132.46C418.667 132.46 419.114 132.593 419.5 132.86C419.887 133.113 420.08 133.48 420.08 133.96C420.08 134.307 419.967 134.6 419.74 134.84C419.514 135.067 419.214 135.18 418.84 135.18C418.414 135.18 418.067 135.013 417.8 134.68C417.947 134.493 418.02 134.293 418.02 134.08C418.02 133.853 417.94 133.673 417.78 133.54C417.634 133.393 417.434 133.32 417.18 133.32C416.9 133.32 416.614 133.453 416.32 133.72C416.027 133.973 415.694 134.373 415.32 134.92V142.4L416.92 142.6V143H411.92V142.6ZM422.988 148.84C422.295 148.84 421.735 148.667 421.308 148.32C420.881 147.973 420.668 147.507 420.668 146.92C420.668 146.52 420.781 146.193 421.008 145.94C421.248 145.7 421.541 145.58 421.888 145.58C422.141 145.58 422.368 145.633 422.568 145.74C422.768 145.847 422.928 146.007 423.048 146.22C422.848 146.5 422.748 146.793 422.748 147.1C422.748 147.367 422.835 147.587 423.008 147.76C423.181 147.933 423.401 148.02 423.668 148.02C423.988 148.02 424.261 147.913 424.488 147.7C424.728 147.487 424.941 147.113 425.128 146.58L426.328 143.14L421.688 133.26L420.348 133.06V132.66H425.328V133.06L423.928 133.3L427.268 140.44L429.648 133.56L427.928 133.06V132.66H431.528V133.06L430.168 133.56L425.688 146.58C425.408 147.367 425.068 147.94 424.668 148.3C424.281 148.66 423.721 148.84 422.988 148.84ZM338.983 182.6L340.383 182.4V173.24L338.983 173.04V172.64H340.383V170.96C340.383 169.68 340.643 168.667 341.163 167.92C341.683 167.173 342.57 166.8 343.823 166.8C344.61 166.8 345.257 166.993 345.763 167.38C346.283 167.753 346.543 168.267 346.543 168.92C346.543 169.32 346.43 169.647 346.203 169.9C345.99 170.153 345.697 170.28 345.323 170.28C344.99 170.28 344.697 170.153 344.443 169.9C344.19 169.647 344.063 169.353 344.063 169.02C344.517 168.887 344.743 168.573 344.743 168.08C344.743 167.853 344.65 167.66 344.463 167.5C344.29 167.327 344.077 167.24 343.823 167.24C343.303 167.24 342.93 167.487 342.703 167.98C342.49 168.46 342.383 169.247 342.383 170.34V172.64H344.983V173.04L342.383 173.24V182.4L344.763 182.6V183H338.983V182.6ZM351.387 183.2C350.427 183.2 349.554 182.98 348.767 182.54C347.981 182.087 347.354 181.453 346.887 180.64C346.434 179.813 346.207 178.873 346.207 177.82C346.207 176.767 346.434 175.833 346.887 175.02C347.354 174.207 347.981 173.58 348.767 173.14C349.554 172.687 350.427 172.46 351.387 172.46C352.347 172.46 353.221 172.687 354.007 173.14C354.794 173.58 355.414 174.207 355.867 175.02C356.334 175.833 356.567 176.767 356.567 177.82C356.567 178.873 356.334 179.813 355.867 180.64C355.414 181.453 354.794 182.087 354.007 182.54C353.221 182.98 352.347 183.2 351.387 183.2ZM351.387 182.76C352.374 182.76 353.114 182.4 353.607 181.68C354.114 180.96 354.367 180.007 354.367 178.82V176.82C354.367 175.633 354.114 174.687 353.607 173.98C353.114 173.26 352.374 172.9 351.387 172.9C350.401 172.9 349.654 173.26 349.147 173.98C348.654 174.687 348.407 175.633 348.407 176.82V178.82C348.407 180.007 348.654 180.96 349.147 181.68C349.654 182.4 350.401 182.76 351.387 182.76ZM362.658 183.2C361.698 183.2 360.938 182.96 360.378 182.48C359.831 182 359.558 181.287 359.558 180.34V173.24L358.158 173.04V172.64H361.558V180.3C361.558 180.98 361.698 181.513 361.978 181.9C362.258 182.287 362.691 182.48 363.278 182.48C363.891 182.48 364.478 182.28 365.038 181.88C365.611 181.467 366.118 180.96 366.558 180.36V173.24L365.158 173.04V172.64H368.558V182.4L369.958 182.6V183H366.558V181.08C366.078 181.747 365.498 182.267 364.818 182.64C364.151 183.013 363.431 183.2 362.658 183.2ZM371.394 182.6L372.794 182.4V173.24L371.394 173.04V172.64H374.794V174.8C375.288 174.08 375.868 173.513 376.534 173.1C377.201 172.673 377.921 172.46 378.694 172.46C379.654 172.46 380.408 172.7 380.954 173.18C381.514 173.66 381.794 174.373 381.794 175.32V182.4L383.194 182.6V183H378.594V182.6L379.794 182.4V175.36C379.794 174.667 379.654 174.133 379.374 173.76C379.094 173.373 378.661 173.18 378.074 173.18C377.461 173.18 376.868 173.407 376.294 173.86C375.734 174.3 375.234 174.847 374.794 175.5V182.4L375.994 182.6V183H371.394V182.6ZM389.59 183.2C388.643 183.2 387.81 182.98 387.09 182.54C386.37 182.087 385.81 181.46 385.41 180.66C385.01 179.847 384.81 178.9 384.81 177.82C384.81 176.74 385.01 175.8 385.41 175C385.81 174.187 386.37 173.56 387.09 173.12C387.81 172.68 388.643 172.46 389.59 172.46C390.363 172.46 391.036 172.667 391.61 173.08C392.183 173.48 392.636 174.033 392.97 174.74V167.6L391.57 167.4V167H394.97V182.4L396.37 182.6V183H392.97V180.92C392.636 181.627 392.183 182.187 391.61 182.6C391.036 183 390.363 183.2 389.59 183.2ZM389.79 182.7C390.376 182.7 390.903 182.533 391.37 182.2C391.85 181.853 392.23 181.4 392.51 180.84C392.803 180.267 392.956 179.647 392.97 178.98V176.68C392.956 176.013 392.803 175.4 392.51 174.84C392.23 174.267 391.85 173.813 391.37 173.48C390.903 173.133 390.376 172.96 389.79 172.96C387.936 172.96 387.01 174.247 387.01 176.82V178.82C387.01 181.407 387.936 182.7 389.79 182.7ZM399.382 183.2C399.048 183.2 398.762 183.087 398.522 182.86C398.295 182.62 398.182 182.333 398.182 182C398.182 181.667 398.295 181.393 398.522 181.18C398.762 180.953 399.048 180.84 399.382 180.84C399.715 180.84 399.995 180.953 400.222 181.18C400.448 181.393 400.562 181.667 400.562 182C400.562 182.333 400.448 182.62 400.222 182.86C399.995 183.087 399.715 183.2 399.382 183.2Z" fill="#100895"/>
<defs>
<linearGradient id="paint0_linear" x1="242.052" y1="500.604" x2="242.052" y2="84.048" gradientUnits="userSpaceOnUse">
<stop stop-color="#808080" stop-opacity="0.25"/>
<stop offset="0.54" stop-color="#808080" stop-opacity="0.12"/>
<stop offset="1" stop-color="#808080" stop-opacity="0.1"/>
</linearGradient>
</defs>
</svg>
