<svg width="614" height="729" viewBox="0 0 614 729" fill="none" xmlns="http://www.w3.org/2000/svg">
<path d="M585.666 172.947H581.667V63.4019C581.667 55.0759 580.027 46.8314 576.841 39.1391C573.654 31.4468 568.984 24.4574 563.097 18.57C557.21 12.6826 550.22 8.01244 542.528 4.82619C534.836 1.63995 526.591 3.93981e-06 518.265 1.54799e-10H286.178C269.363 -3.71302e-05 253.237 6.67975 241.346 18.5699C229.456 30.46 222.776 46.5865 222.776 63.4017V664.376C222.776 681.191 229.456 697.318 241.346 709.208C253.236 721.098 269.363 727.778 286.178 727.778H518.265C535.08 727.778 551.207 721.098 563.097 709.208C574.987 697.318 581.667 681.192 581.667 664.376V250.923H585.666L585.666 172.947Z" fill="#E6E6E6"/>
<path d="M568.172 63.8444V663.934C568.172 676.492 563.183 688.536 554.303 697.416C545.423 706.295 533.38 711.284 520.822 711.284H287.622C275.064 711.284 263.021 706.295 254.141 697.416C245.261 688.536 240.272 676.492 240.272 663.934V63.8444C240.272 51.2865 245.261 39.2429 254.141 30.3631C263.021 21.4833 275.064 16.4946 287.622 16.4944H315.912C314.522 19.9104 313.992 23.6156 314.37 27.2842C314.748 30.9527 316.022 34.4722 318.079 37.5331C320.137 40.5939 322.915 43.1022 326.169 44.8375C329.423 46.5727 333.054 47.4817 336.742 47.4844H469.702C473.39 47.4816 477.021 46.5727 480.275 44.8374C483.529 43.1022 486.307 40.5938 488.365 37.533C490.422 34.4722 491.696 30.9527 492.073 27.2841C492.451 23.6156 491.922 19.9104 490.532 16.4944H520.822C533.38 16.4946 545.423 21.4833 554.303 30.3631C563.183 39.2429 568.172 51.2865 568.172 63.8444V63.8444Z" fill="white"/>
<path d="M300.053 72.1511C291.566 72.1511 283.427 75.5225 277.425 81.5236C271.424 87.5248 268.053 95.6641 268.053 104.151C268.053 112.638 271.424 120.777 277.425 126.778C283.426 132.78 291.566 136.151 300.053 136.151H300.053C308.54 136.151 316.679 132.78 322.68 126.779C328.681 120.777 332.053 112.638 332.053 104.151C332.053 95.6642 328.681 87.5249 322.68 81.5237C316.679 75.5225 308.54 72.1511 300.053 72.1511Z" fill="#E6E6E6"/>
<path d="M532.391 131.151H364.391C362.27 131.151 360.235 130.309 358.734 128.808C357.234 127.308 356.391 125.273 356.391 123.151C356.391 121.03 357.234 118.995 358.734 117.495C360.235 115.994 362.27 115.151 364.391 115.151H532.391C534.513 115.151 536.548 115.994 538.048 117.495C539.548 118.995 540.391 121.03 540.391 123.151C540.391 125.273 539.548 127.308 538.048 128.808C536.548 130.309 534.513 131.151 532.391 131.151Z" fill="#E6E6E6"/>
<path d="M417.391 97.1514H364.391C362.27 97.1514 360.235 96.3085 358.734 94.8082C357.234 93.3079 356.391 91.2731 356.391 89.1514C356.391 87.0296 357.234 84.9948 358.734 83.4945C360.235 81.9942 362.27 81.1514 364.391 81.1514H417.391C419.513 81.1514 421.548 81.9942 423.048 83.4945C424.548 84.9948 425.391 87.0296 425.391 89.1514C425.391 91.2731 424.548 93.3079 423.048 94.8082C421.548 96.3085 419.513 97.1514 417.391 97.1514Z" fill="#E6E6E6"/>
<path d="M300.053 206.151C291.566 206.151 283.427 209.522 277.425 215.524C271.424 221.525 268.053 229.664 268.053 238.151C268.053 246.638 271.424 254.777 277.425 260.778C283.426 266.78 291.566 270.151 300.053 270.151H300.053C308.54 270.151 316.679 266.78 322.68 260.779C328.681 254.777 332.053 246.638 332.053 238.151C332.053 229.664 328.681 221.525 322.68 215.524C316.679 209.523 308.54 206.151 300.053 206.151Z" fill="#E6E6E6"/>
<path d="M532.391 265.151H364.391C362.27 265.151 360.235 264.309 358.734 262.808C357.234 261.308 356.391 259.273 356.391 257.151C356.391 255.03 357.234 252.995 358.734 251.495C360.235 249.994 362.27 249.151 364.391 249.151H532.391C534.513 249.151 536.548 249.994 538.048 251.495C539.548 252.995 540.391 255.03 540.391 257.151C540.391 259.273 539.548 261.308 538.048 262.808C536.548 264.309 534.513 265.151 532.391 265.151Z" fill="#E6E6E6"/>
<path d="M417.391 231.151H364.391C362.27 231.151 360.235 230.309 358.734 228.808C357.234 227.308 356.391 225.273 356.391 223.151C356.391 221.03 357.234 218.995 358.734 217.495C360.235 215.994 362.27 215.151 364.391 215.151H417.391C419.513 215.151 421.548 215.994 423.048 217.495C424.548 218.995 425.391 221.03 425.391 223.151C425.391 225.273 424.548 227.308 423.048 228.808C421.548 230.309 419.513 231.151 417.391 231.151Z" fill="#E6E6E6"/>
<path d="M300.053 474.151C291.566 474.151 283.427 477.522 277.425 483.524C271.424 489.525 268.053 497.664 268.053 506.151C268.053 514.638 271.424 522.777 277.425 528.778C283.426 534.78 291.566 538.151 300.053 538.151H300.053C308.54 538.151 316.679 534.78 322.68 528.779C328.681 522.777 332.053 514.638 332.053 506.151C332.053 497.664 328.681 489.525 322.68 483.524C316.679 477.523 308.54 474.151 300.053 474.151Z" fill="#E6E6E6"/>
<path d="M532.391 533.151H364.391C362.27 533.151 360.235 532.309 358.734 530.808C357.234 529.308 356.391 527.273 356.391 525.151C356.391 523.03 357.234 520.995 358.734 519.495C360.235 517.994 362.27 517.151 364.391 517.151H532.391C534.513 517.151 536.548 517.994 538.048 519.495C539.548 520.995 540.391 523.03 540.391 525.151C540.391 527.273 539.548 529.308 538.048 530.808C536.548 532.309 534.513 533.151 532.391 533.151Z" fill="#E6E6E6"/>
<path d="M417.391 499.151H364.391C362.27 499.151 360.235 498.309 358.734 496.808C357.234 495.308 356.391 493.273 356.391 491.151C356.391 489.03 357.234 486.995 358.734 485.495C360.235 483.994 362.27 483.151 364.391 483.151H417.391C419.513 483.151 421.548 483.994 423.048 485.495C424.548 486.995 425.391 489.03 425.391 491.151C425.391 493.273 424.548 495.308 423.048 496.808C421.548 498.309 419.513 499.151 417.391 499.151Z" fill="#E6E6E6"/>
<path d="M300.053 608.151C291.566 608.151 283.427 611.522 277.425 617.524C271.424 623.525 268.053 631.664 268.053 640.151C268.053 648.638 271.424 656.777 277.425 662.778C283.426 668.78 291.566 672.151 300.053 672.151H300.053C308.54 672.151 316.679 668.78 322.68 662.779C328.681 656.777 332.053 648.638 332.053 640.151C332.053 631.664 328.681 623.525 322.68 617.524C316.679 611.523 308.54 608.151 300.053 608.151Z" fill="#E6E6E6"/>
<path d="M532.391 667.151H364.391C362.27 667.151 360.235 666.309 358.734 664.808C357.234 663.308 356.391 661.273 356.391 659.151C356.391 657.03 357.234 654.995 358.734 653.495C360.235 651.994 362.27 651.151 364.391 651.151H532.391C534.513 651.151 536.548 651.994 538.048 653.495C539.548 654.995 540.391 657.03 540.391 659.151C540.391 661.273 539.548 663.308 538.048 664.808C536.548 666.309 534.513 667.151 532.391 667.151Z" fill="#E6E6E6"/>
<path d="M417.391 633.151H364.391C362.27 633.151 360.235 632.309 358.734 630.808C357.234 629.308 356.391 627.273 356.391 625.151C356.391 623.03 357.234 620.995 358.734 619.495C360.235 617.994 362.27 617.151 364.391 617.151H417.391C419.513 617.151 421.548 617.994 423.048 619.495C424.548 620.995 425.391 623.03 425.391 625.151C425.391 627.273 424.548 629.308 423.048 630.808C421.548 632.309 419.513 633.151 417.391 633.151Z" fill="#E6E6E6"/>
<path d="M597.222 449.151H211.222C206.847 449.146 202.653 447.406 199.56 444.313C196.467 441.22 194.727 437.026 194.722 432.651V308.651C194.727 304.277 196.467 300.083 199.56 296.99C202.653 293.896 206.847 292.156 211.222 292.151H597.222C601.596 292.156 605.79 293.896 608.884 296.99C611.977 300.083 613.717 304.277 613.722 308.651V432.651C613.717 437.026 611.977 441.22 608.884 444.313C605.79 447.406 601.596 449.146 597.222 449.151Z" fill="white"/>
<path d="M258.626 416.377C249.582 416.377 240.741 413.696 233.221 408.671C225.702 403.647 219.841 396.505 216.38 388.15C212.919 379.795 212.014 370.601 213.778 361.731C215.542 352.861 219.897 344.713 226.292 338.318C232.687 331.923 240.835 327.568 249.705 325.804C258.575 324.04 267.769 324.945 276.124 328.406C284.479 331.867 291.621 337.728 296.645 345.247C301.67 352.767 304.352 361.608 304.352 370.651C304.338 382.774 299.516 394.397 290.944 402.969C282.371 411.542 270.749 416.364 258.626 416.377V416.377ZM258.626 326.925C249.977 326.925 241.523 329.49 234.333 334.294C227.142 339.099 221.537 345.928 218.228 353.918C214.918 361.908 214.052 370.7 215.74 379.182C217.427 387.664 221.591 395.455 227.707 401.57C233.822 407.686 241.613 411.85 250.095 413.537C258.577 415.224 267.369 414.359 275.359 411.049C283.349 407.739 290.178 402.135 294.982 394.944C299.787 387.754 302.352 379.3 302.352 370.651C302.339 359.059 297.727 347.944 289.53 339.747C281.333 331.549 270.218 326.938 258.626 326.925V326.925Z" fill="#3F3D56"/>
<path d="M583.363 408.389H348.551C347.082 408.391 345.626 408.103 344.269 407.541C342.911 406.98 341.677 406.157 340.637 405.118C339.598 404.08 338.773 402.847 338.211 401.489C337.648 400.132 337.359 398.677 337.359 397.208C337.359 395.739 337.648 394.284 338.211 392.926C338.773 391.569 339.598 390.336 340.637 389.298C341.677 388.259 342.911 387.436 344.269 386.874C345.626 386.313 347.082 386.025 348.551 386.026H583.363C584.832 386.025 586.288 386.313 587.646 386.874C589.003 387.436 590.237 388.259 591.277 389.298C592.316 390.336 593.141 391.569 593.703 392.926C594.266 394.284 594.555 395.739 594.555 397.208C594.555 398.677 594.266 400.132 593.703 401.489C593.141 402.847 592.316 404.08 591.277 405.118C590.237 406.157 589.003 406.98 587.646 407.541C586.288 408.103 584.832 408.391 583.363 408.389V408.389Z" fill="#8FF2E1"/>
<path d="M422.629 360.868H348.551C347.082 360.869 345.626 360.581 344.269 360.02C342.911 359.458 341.677 358.635 340.637 357.597C339.598 356.558 338.773 355.325 338.211 353.968C337.648 352.61 337.359 351.155 337.359 349.686C337.359 348.217 337.648 346.762 338.211 345.405C338.773 344.047 339.598 342.814 340.637 341.776C341.677 340.737 342.911 339.914 344.269 339.353C345.626 338.791 347.082 338.503 348.551 338.505H422.629C424.098 338.503 425.553 338.791 426.911 339.353C428.269 339.914 429.503 340.737 430.542 341.776C431.581 342.814 432.406 344.047 432.969 345.405C433.531 346.762 433.821 348.217 433.821 349.686C433.821 351.155 433.531 352.61 432.969 353.968C432.406 355.325 431.581 356.558 430.542 357.597C429.503 358.635 428.269 359.458 426.911 360.02C425.553 360.581 424.098 360.869 422.629 360.868V360.868Z" fill="#8FF2E1"/>
<path d="M597.222 449.151H211.222C206.847 449.146 202.653 447.406 199.56 444.313C196.467 441.22 194.727 437.026 194.722 432.651V308.651C194.727 304.277 196.467 300.083 199.56 296.99C202.653 293.896 206.847 292.156 211.222 292.151H597.222C601.596 292.156 605.79 293.896 608.884 296.99C611.977 300.083 613.717 304.277 613.722 308.651V432.651C613.717 437.026 611.977 441.22 608.884 444.313C605.79 447.406 601.596 449.146 597.222 449.151ZM211.222 293.151C207.112 293.156 203.173 294.791 200.267 297.696C197.361 300.602 195.727 304.542 195.722 308.651V432.651C195.727 436.761 197.361 440.701 200.267 443.606C203.173 446.512 207.112 448.147 211.222 448.151H597.222C601.331 448.147 605.271 446.512 608.177 443.606C611.083 440.701 612.717 436.761 612.722 432.651V308.651C612.717 304.542 611.083 300.602 608.177 297.696C605.271 294.791 601.331 293.156 597.222 293.151H211.222Z" fill="#3F3D56"/>
<path d="M257.817 392.904C268.12 392.904 276.472 384.552 276.472 374.249C276.472 363.947 268.12 355.595 257.817 355.595C247.515 355.595 239.163 363.947 239.163 374.249C239.163 384.552 247.515 392.904 257.817 392.904Z" fill="#2F2E41"/>
<path d="M243.257 364.192C246.271 361.177 246.882 356.901 244.621 354.64C242.36 352.379 238.084 352.99 235.069 356.004C232.055 359.019 231.444 363.295 233.705 365.556C235.966 367.817 240.242 367.206 243.257 364.192Z" fill="#2F2E41"/>
<path d="M277.26 358.268C278.516 355.328 276.356 351.586 272.436 349.912C268.515 348.237 264.319 349.263 263.063 352.203C261.807 355.144 263.967 358.885 267.887 360.56C271.808 362.234 276.004 361.208 277.26 358.268Z" fill="#2F2E41"/>
<path d="M258.409 394.534C267.153 394.534 274.241 387.446 274.241 378.703C274.241 369.959 267.153 362.871 258.409 362.871C249.665 362.871 242.577 369.959 242.577 378.703C242.577 387.446 249.665 394.534 258.409 394.534Z" fill="#FFB8B8"/>
<path d="M241.773 368.745C245.391 371.238 249.685 372.565 254.079 372.548C252.512 373.635 250.727 374.369 248.849 374.699C254.691 375.953 260.729 375.986 266.584 374.799C267.886 374.59 269.142 374.159 270.297 373.524C270.872 373.202 271.374 372.763 271.769 372.235C272.164 371.707 272.443 371.102 272.588 370.459C272.978 368.236 271.245 366.217 269.445 364.856C266.689 362.804 263.512 361.39 260.143 360.717C256.773 360.043 253.296 360.127 249.963 360.963C247.743 361.409 245.722 362.551 244.193 364.223C242.78 365.971 242.361 368.666 243.708 370.465L241.773 368.745Z" fill="#2F2E41"/>
<path d="M24.7351 511.165C24.2721 509.665 24.1437 508.081 24.359 506.525C24.5744 504.969 25.1282 503.48 25.9815 502.161C26.8348 500.843 27.9668 499.728 29.2978 498.894C30.6288 498.06 32.1264 497.529 33.6851 497.336L85.0181 437.353L96.9907 449.924L45.8599 507.437C46.0094 510.077 45.1852 512.68 43.5437 514.753C41.9022 516.826 39.5573 518.225 36.9534 518.684C34.3495 519.144 31.6674 518.632 29.4155 517.247C27.1636 515.861 25.4983 513.697 24.7351 511.165V511.165Z" fill="#A0616A"/>
<path d="M68.318 446.719C68.2656 446.075 68.3528 445.426 68.5738 444.819C68.7948 444.211 69.1442 443.658 69.5984 443.198L85.4573 427.117C87.4083 424.443 90.3402 422.653 93.6096 422.139C96.8789 421.624 100.219 422.428 102.897 424.373C105.574 426.318 107.371 429.245 107.893 432.514C108.415 435.782 107.619 439.123 105.68 441.806L95.1356 461.861C94.8347 462.434 94.4138 462.934 93.9019 463.329C93.3899 463.724 92.7988 464.005 92.1689 464.151C91.5389 464.297 90.8849 464.305 90.2513 464.176C89.6178 464.046 89.0196 463.781 88.4975 463.4L70.1481 449.989C69.6258 449.608 69.1919 449.119 68.876 448.554C68.5602 447.99 68.3698 447.364 68.318 446.719V446.719Z" fill="#8FF2E1"/>
<path d="M105.556 409.915C119.121 409.915 130.117 398.918 130.117 385.354C130.117 371.789 119.121 360.792 105.556 360.792C91.9912 360.792 80.9949 371.789 80.9949 385.354C80.9949 398.918 91.9912 409.915 105.556 409.915Z" fill="#A0616A"/>
<path d="M92.2012 495.262C91.7129 494.899 91.3043 494.439 91.0006 493.912C90.6968 493.385 90.5044 492.802 90.4353 492.197C88.7374 478.003 86.2663 463.912 83.033 449.987C81.6015 443.73 82.4905 437.165 85.5348 431.514C88.579 425.863 93.5715 421.509 99.5843 419.262C105.597 417.015 112.221 417.028 118.226 419.297C124.23 421.567 129.206 425.939 132.229 431.601C141.889 449.729 142.626 474.618 142.495 484.477C142.481 485.53 142.097 486.543 141.411 487.342C140.725 488.14 139.781 488.672 138.742 488.845L95.6474 496.098C95.3962 496.141 95.1419 496.162 94.8872 496.162C93.9178 496.162 92.9749 495.846 92.2012 495.262Z" fill="#2F2E41"/>
<path d="M185.241 415.291C185.118 415.83 185.038 416.379 185.001 416.931L142.044 441.713L131.602 435.702L120.471 450.274L137.922 462.712C139.331 463.717 141.029 464.237 142.76 464.195C144.49 464.153 146.161 463.55 147.52 462.478L191.816 427.532C193.815 428.272 195.992 428.386 198.058 427.858C200.123 427.331 201.979 426.187 203.378 424.579C204.778 422.971 205.655 420.975 205.892 418.857C206.129 416.739 205.716 414.598 204.708 412.72C203.699 410.842 202.142 409.316 200.245 408.345C198.348 407.373 196.199 407.002 194.086 407.281C191.973 407.56 189.995 408.476 188.414 409.907C186.834 411.337 185.727 413.215 185.241 415.291V415.291Z" fill="#A0616A"/>
<path d="M140.608 442.887L126.724 460.881C126.329 461.393 125.828 461.813 125.256 462.114C124.684 462.415 124.053 462.589 123.407 462.625C122.762 462.66 122.116 462.556 121.514 462.319C120.912 462.083 120.369 461.719 119.92 461.253L104.203 444.932C101.595 442.896 99.9013 439.909 99.4925 436.626C99.0838 433.343 99.9934 430.032 102.022 427.418C104.051 424.805 107.033 423.103 110.315 422.684C113.597 422.266 116.91 423.167 119.529 425.188L139.242 436.211C139.807 436.526 140.296 436.96 140.678 437.482C141.06 438.004 141.324 438.602 141.454 439.236C141.583 439.869 141.575 440.524 141.429 441.153C141.283 441.783 141.003 442.375 140.608 442.887H140.608Z" fill="#8FF2E1"/>
<path d="M162.252 716.442L174.512 716.441L177.398 669.306L162.25 669.154L162.252 716.442Z" fill="#A0616A"/>
<path d="M159.125 712.439L183.269 712.438H183.27C185.29 712.438 187.291 712.836 189.158 713.609C191.025 714.382 192.721 715.516 194.15 716.944C195.578 718.373 196.712 720.069 197.485 721.936C198.258 723.803 198.656 725.804 198.656 727.824V728.324L159.126 728.326L159.125 712.439Z" fill="#2F2E41"/>
<path d="M45.252 716.442L57.512 716.441L63.344 669.153L45.25 669.154L45.252 716.442Z" fill="#A0616A"/>
<path d="M42.125 712.439L66.2688 712.438H66.2698C68.2904 712.438 70.2912 712.836 72.158 713.609C74.0247 714.382 75.7209 715.516 77.1497 716.944C78.5785 718.373 79.7118 720.069 80.4851 721.936C81.2583 723.803 81.6563 725.804 81.6562 727.824V728.324L42.1257 728.326L42.125 712.439Z" fill="#2F2E41"/>
<path d="M58.6137 691.883L43.3989 689.898C42.7631 689.815 42.1525 689.597 41.6078 689.259C41.0631 688.921 40.597 688.47 40.2406 687.937C39.8843 687.404 39.646 686.801 39.5417 686.169C39.4373 685.536 39.4694 684.888 39.6357 684.269L61.8295 575.208C64.0358 564.62 65.5624 553.902 66.3999 543.119C67.0478 534.345 69.6162 521.939 78.1721 512.663C81.6515 508.856 84.8989 504.844 87.8967 500.647L94.6147 491.345L139.367 484.225L139.398 484.779C141.331 520.34 150.568 555.122 166.532 586.957C173.714 601.275 177.836 616.931 178.636 632.928L181.172 682.381C181.204 683.007 181.104 683.633 180.88 684.219C180.655 684.805 180.311 685.338 179.869 685.783C179.429 686.231 178.898 686.58 178.313 686.808C177.728 687.036 177.101 687.137 176.474 687.105L161.929 686.444C160.943 686.398 159.999 686.029 159.243 685.395C158.487 684.761 157.959 683.896 157.742 682.933L145.598 628.754C145.489 628.27 145.279 627.816 144.983 627.419L106.873 576.605C106.601 576.243 106.235 575.961 105.816 575.79C105.396 575.619 104.938 575.565 104.49 575.634C104.043 575.704 103.622 575.893 103.274 576.183C102.925 576.473 102.662 576.851 102.513 577.279L63.4431 688.906C63.1317 689.786 62.5558 690.548 61.7944 691.087C61.033 691.627 60.1233 691.917 59.1901 691.92C58.9974 691.92 58.8048 691.907 58.6137 691.883V691.883Z" fill="#2F2E41"/>
<path d="M78.3985 368.306C80.3495 362.392 81.7897 356.321 82.7032 350.161C82.9904 346.575 82.0716 342.716 79.4597 340.241C74.5716 335.61 66.2667 337.816 61.1549 342.198C53.7672 348.533 50.0827 358.267 48.6902 367.898C47.2977 377.53 47.9104 387.324 47.5752 397.049C47.24 406.775 45.849 416.775 40.8907 425.149C35.9323 433.523 26.7312 439.95 17.0259 439.237C13.1085 439.026 9.3888 437.449 6.51216 434.782C5.10011 433.438 4.03072 431.776 3.39366 429.934C2.7566 428.092 2.57046 426.124 2.85081 424.196C-2.10968 433.078 0.404897 445.117 7.80391 452.099C15.2029 459.082 26.584 461.056 36.3111 458.075C46.0381 455.094 54.0438 447.618 58.8257 438.638C63.6076 429.658 65.3599 419.285 65.106 409.115C64.911 401.304 63.5833 393.43 64.9032 385.73C66.223 378.03 71.0421 370.211 78.6414 368.398L78.3985 368.306Z" fill="#2F2E41"/>
<path d="M112.525 378.43C113.821 382.758 118.776 385.427 123.235 384.695C127.693 383.963 131.359 380.292 132.713 375.982C133.938 371.58 133.437 366.876 131.312 362.831C130.141 360.407 128.503 358.237 126.492 356.446C124.482 354.655 122.138 353.278 119.594 352.394C117.036 351.547 114.313 351.326 111.652 351.751C108.991 352.176 106.472 353.235 104.305 354.837C104.075 353.865 103.589 352.972 102.898 352.249C102.208 351.527 101.337 351.002 100.376 350.728C98.4409 350.207 96.3984 350.237 94.4795 350.815C88.95 352.391 84.1586 355.877 80.9572 360.652C77.7965 365.414 75.7056 370.803 74.8285 376.45C73.3198 384.919 73.8763 394.173 78.6325 401.34C83.3887 408.508 93.1193 412.74 101.013 409.323C101.506 406.806 100.34 404.272 98.9905 402.092C97.6414 399.911 96.0425 397.787 95.5243 395.276C95.0061 392.765 95.9996 389.693 98.4286 388.872C100.501 388.171 102.71 389.306 104.893 389.443C106.133 389.521 107.372 389.272 108.485 388.72C109.598 388.168 110.546 387.333 111.234 386.299C111.923 385.265 112.327 384.068 112.407 382.828C112.487 381.589 112.239 380.35 111.689 379.236L112.525 378.43Z" fill="#2F2E41"/>
</svg>
